<svg width="84" height="58" viewBox="0 0 84 58" fill="none" xmlns="http://www.w3.org/2000/svg">
<path d="M0.5 48.5285H11.7156H12.0807L12.1918 48.8763C13.0704 51.6243 14.3993 53.7767 16.2075 55.2329C18.0096 56.6843 20.3274 57.4765 23.2494 57.4392L23.2494 57.4392C26.081 57.4036 28.3189 56.5747 30.0555 55.1247C31.7981 53.6696 33.0722 51.5583 33.9143 48.9009L34.0249 48.552H34.3909H49.6732H50.0624L50.1579 48.9293C50.8853 51.8037 52.4314 54.0947 54.9233 55.7187C56.9029 57.0081 59.0849 57.5703 61.4703 57.493L0.5 48.5285ZM0.5 48.5285V48.5249V48.4829V48.4409V48.399V48.357V48.315V48.2731V48.2311V48.1891V48.1472V48.1052V48.0632V48.0212V47.9793V47.9373V47.8953V47.8534V47.8114V47.7694V47.7274V47.6855V47.6435V47.6015V47.5596V47.5176V47.4756V47.4336V47.3917V47.3497V47.3077V47.2658V47.2238V47.1818V47.1398V47.0979V47.0559V47.0139V46.972V46.93V46.888V46.846V46.8041V46.7621V46.7201V46.6782V46.6362V46.5942V46.5522V46.5103V46.4683V46.4263V46.3843V46.3424V46.3004V46.2584V46.2164V46.1745V46.1325V46.0905V46.0486V46.0066V45.9646V45.9226V45.8807V45.8387V45.7967V45.7547V45.7128V45.6708V45.6288V45.5868V45.5449V45.5029V45.4609V45.4189V45.377V45.335V45.293V45.251V45.2091V45.1671V45.1251V45.0831V45.0412V44.9992V44.9572V44.9152V44.8733V44.8313V44.7893V44.7473V44.7054V44.6634V44.6214V44.5794V44.5375V44.4955V44.4535V44.4115V44.3696V44.3276V44.2856V44.2436V44.2017V44.1597V44.1177V44.0757V44.0338V43.9918V43.9498V43.9078V43.8659V43.8239V43.7819V43.7399V43.698V43.656V43.614V43.572V43.5301V43.4881V43.4461V43.4041V43.3621V43.3202V43.2782V43.2362V43.1942V43.1523V43.1103V43.0683V43.0263V42.9844V42.9424V42.9004V42.8584V42.8164V42.7745V42.7325V42.6905V42.6485V42.6066V42.5646V42.5226V42.4806V42.4387V42.3967V42.3547V42.3127V42.2707V42.2288V42.1868V42.1448V42.1028V42.0609V42.0189V41.9769V41.9349V41.8929V41.851V41.809V41.767V41.725V41.6831V41.6411V41.5991V41.5571V41.5152V41.4732V41.4312V41.3892V41.3472V41.3053V41.2633V41.2213V41.1793V41.1374V41.0954V41.0534V41.0114V40.9694V40.9275V40.8855V40.8435V40.8015V40.7595V40.7176V40.6756V40.6336V40.5916V40.5497V40.5077V40.4657V40.4237V40.3817V40.3398V40.2978V40.2558V40.2138V40.1719V40.1299V40.0879V40.0459V40.0039V39.962V39.92V39.878V39.836V39.794V39.7521V39.7101V39.6681V39.6261V39.5842V39.5422V39.5002V39.4582V39.4162V39.3743V39.3323V39.2903V39.2483V39.2063V39.1644V39.1224V39.0804V39.0384V38.9965V38.9545V38.9125V38.8705V38.8285V38.7866V38.7446V38.7026V38.6606V38.6186V38.5767V38.5347V38.4927V38.4507V38.4088V38.3668V38.3248V38.2828V38.2408V38.1989V38.1569V38.1149V38.0729V38.0309V37.989V37.947V37.905V37.863V37.8211V37.7791V37.7371V37.6951V37.6531V37.6112V37.5692V37.5272V37.4852V37.4432V37.4013V37.3593V37.3173V37.2753V37.2334V37.1914V37.1494V37.1074V37.0654V37.0235V36.9815V36.9395V36.8975V36.8555V36.8136V36.7716V36.7296V36.6876V36.6457V36.6037V36.5617V36.5197V36.4777V36.4358V36.3938V36.3518V36.3098V36.2678V36.2259V36.1839V36.1419V36.0999V36.058V36.016V35.974V35.932V35.89V35.8481V35.8061V35.7641V35.7221V35.6802V35.6382V35.5962V35.5542V35.5122V35.4703V35.4283V35.3863V35.3443V35.3024V35.2604V35.2184V35.1764V35.1344V35.0925V35.0505V35.0085V34.9665V34.9246V34.8826V34.8406V34.7986V34.7566V34.7147V34.6727V34.6307V34.5887V34.5468V34.5048V34.4628V34.4208V34.3788V34.3369V34.2949V34.2529V34.2109V34.169V34.127V34.085V34.043V34.001V33.9591V33.9171V33.8751V33.8331V33.7912V33.7492V33.7072V33.6652V33.6233V33.5813V33.5393V33.4973V33.4553V33.4134V33.3714V33.3294V33.2874V33.2455V33.2035V33.1615V33.1195V33.0776V33.0356V32.9936V32.9516V32.9097V32.8677V32.8257V32.7837V32.7418V32.6998V32.6578V32.6158V32.5738V32.5319V32.4899V32.4479V32.4059V32.364V32.322V32.28V32.238V32.1961V32.1541V32.1121V32.0701V32.0282V31.9862V31.9442V31.9022V31.8603V31.8183V31.7763V31.7343V31.6924V31.6504V31.6084V31.5664V31.5245V31.4825V31.4405V31.3985V31.3566V31.3146V31.2726V31.2306V31.1887V31.1467V31.1047V31.0627V31.0208V30.9788V30.9368V30.8948V30.8529V30.8109V30.7689V30.727V30.685V30.643V30.601V30.5591V30.5171V30.4751V30.4331V30.3912V30.3492V30.3072V30.2652V30.2233V30.1813V30.1393V30.0974V30.0554V30.0134V29.9714V29.9295V29.8875V29.8455V29.8035V29.7616V29.7196V29.6776V29.6357V29.5937V29.5517V29.5097V29.4678V29.4258V29.3838V29.3418V29.2999V29.2579V29.2159V29.174V29.132V29.09V29.048V29.0061V28.9641V28.9221V28.8802V28.8382V28.7962V28.7542V28.7123V28.6703V28.6283V28.5864V28.5444V28.5024V28.4605V28.4185V28.3765V28.3345V28.2926V28.2506V28.2086V28.1667V28.1247V28.0827V28.0408V27.9988V27.9568V27.9148V27.8729V27.8309V27.7889V27.747V27.705V27.663V27.6211V27.6136C0.558133 27.4275 0.615975 27.2398 0.673639 27.0526C0.718568 26.9068 0.763389 26.7613 0.808156 26.6173L0.808409 26.6165C1.46811 24.4808 2.75868 22.8603 4.77047 22.0432L4.77087 22.043C5.77858 21.6327 6.57924 21.0951 7.21137 20.3856C7.84218 19.6775 8.28432 18.8216 8.60848 17.8038C9.32326 15.5607 10.1803 13.3722 11.0444 11.1658C11.4058 10.243 11.7685 9.3171 12.1224 8.38272C14.0423 3.31504 18.1267 0.504716 23.6036 0.501488C29.0159 0.499256 34.4296 0.5 39.843 0.500744C42.5497 0.501116 45.2562 0.501488 47.9624 0.501488C50.5219 0.501488 52.698 1.06987 54.5134 2.18247C56.3288 3.295 57.814 4.97044 58.9621 7.23293C59.7384 8.76372 60.5118 10.2989 61.2855 11.8349C62.5878 14.4201 63.8914 17.0078 65.2124 19.5814L65.2133 19.5832C65.342 19.8315 65.5405 20.0565 65.7543 20.2339C65.9678 20.411 66.2257 20.565 66.4949 20.6456C67.5949 20.977 68.6864 21.2767 69.7709 21.5745C71.4628 22.039 73.1378 22.4989 74.8017 23.0676C79.6608 24.731 82.4782 28.148 83.3624 33.1885C83.3624 33.1886 83.3624 33.1888 83.3624 33.1889L83.8549 33.1025M0.5 48.5285H83.5H84V33.5613M83.8549 33.1025C83.8743 33.2155 83.9146 33.3251 83.9544 33.4336C83.9701 33.4763 83.9857 33.5188 84 33.5613M83.8549 33.1025C82.9405 27.8887 80.0014 24.3191 74.9636 22.5946L83.8549 33.1025ZM84 33.5613H83.5V33.6484C83.5109 33.6779 83.52 33.7025 83.526 33.7205L84 33.5613ZM34.0221 44.6061L33.8836 44.3309L33.8802 44.3242L33.8555 44.2751L33.842 44.2218C33.1147 41.3408 31.5651 39.0463 29.0761 37.4188L29.076 37.4187C27.1967 36.1892 25.1183 35.642 22.8381 35.6418C18.91 35.6482 13.8103 38.2294 12.2431 44.2127L12.1454 44.586H11.7595H4.96698H4.49124L4.4676 44.1108C4.46427 44.0439 4.46 43.9722 4.45554 43.8973C4.44342 43.6934 4.42986 43.4655 4.42986 43.2455C4.42986 41.9414 4.43116 40.6375 4.43247 39.3337C4.43585 35.9448 4.43923 32.5567 4.41975 29.1677L34.0221 44.6061ZM34.0221 44.6061H34.3302M34.0221 44.6061H34.3302M34.3302 44.6061H49.6023H49.9683M34.3302 44.6061H49.9683M49.9683 44.6061L50.0789 44.2572M49.9683 44.6061L50.0789 44.2572M50.0789 44.2572C50.9177 41.6127 52.1822 39.5101 53.9126 38.0548M50.0789 44.2572L53.9126 38.0548M74.6774 36.2425H79.0094H79.5094V36.7425V44.086V44.586H79.0094H72.2777H71.9141L71.802 44.2401C70.9149 41.5025 69.5842 39.3467 67.7688 37.8901C65.96 36.4387 63.6299 35.6488 60.677 35.7087L74.6774 36.2425ZM74.6774 36.2425V32.3468H78.4358H79.2121L78.891 31.64C77.7726 29.1779 76.0294 27.5221 73.5366 26.745L73.5361 26.7449C72.4595 26.4105 71.3723 26.1087 70.2937 25.8092L70.1009 25.7557C68.9564 25.4378 67.8219 25.1203 66.7034 24.7636L66.703 24.7635C64.7952 24.1567 62.8873 23.9731 60.9256 23.9765L60.9254 23.9765C44.8202 24.01 28.7192 24.0234 12.615 23.9631L12.6148 23.9631C10.5239 23.9562 8.62026 24.2949 6.75292 25.3468L6.75281 25.3469C6.00973 25.7657 5.41526 26.2666 5.01116 26.9064C4.60441 27.5504 4.41424 28.2975 4.41975 29.1674L74.6774 36.2425ZM37.4373 4.42395H37.9373C39.053 4.42395 40.1678 4.41417 41.2814 4.4044C43.9129 4.38131 46.5375 4.35829 49.15 4.46454L37.4373 4.42395ZM37.4373 4.42395V4.92395M37.4373 4.42395V4.92395M37.4373 4.92395V19.554V20.054M37.4373 4.92395V20.054M37.4373 20.054H37.9373M37.4373 20.054H37.9373M37.9373 20.054H60.12H60.7578M37.9373 20.054H60.7578M60.7578 20.054L60.6056 19.4347M60.7578 20.054L60.6056 19.4347M60.6056 19.4347C60.5974 19.4014 60.5934 19.379 60.5877 19.3472C60.5841 19.3273 60.5799 19.3037 60.5736 19.2714C60.5609 19.2064 60.5379 19.0989 60.4808 18.9881C59.9751 17.9843 59.4725 16.9768 58.9694 15.9683C57.6816 13.3865 56.3905 10.7981 55.0345 8.2489M60.6056 19.4347L55.0345 8.2489M55.0345 8.2489C53.8266 5.97338 51.7525 4.56936 49.1502 4.46454L55.0345 8.2489ZM53.9126 38.0548C55.637 36.6046 57.8598 35.7669 60.6768 35.7087L53.9126 38.0548ZM83.5 49.0285H72.2439H83.5ZM12.157 19.544V20.044H12.657H32.9062H33.4062V19.544V4.94069V4.46969L32.9361 4.44158C32.867 4.43745 32.7964 4.43254 32.7251 4.42758C32.5333 4.41423 32.336 4.40051 32.147 4.40051C31.1549 4.40051 30.1623 4.39939 29.1694 4.39827C27.1827 4.39604 25.1952 4.39381 23.2102 4.40051L23.2097 4.40051C19.9158 4.41479 17.17 6.28011 15.9675 9.34217L15.9672 9.34285C15.3441 10.9364 14.7437 12.539 14.1448 14.1378C13.9834 14.5688 13.822 14.9995 13.6604 15.4297C13.2862 16.4224 12.916 17.4153 12.5348 18.4377C12.4205 18.7442 12.3052 19.0533 12.1886 19.3658L12.157 19.4504V19.5406V19.544ZM60.9366 39.5509H60.4366V39.5714C56.7674 39.8248 53.8606 42.8457 53.8432 46.5515C53.825 50.4014 57.025 53.593 60.8981 53.6004C64.8298 53.6112 68.0555 50.4357 68.03 46.5439C68.0046 42.6586 64.8416 39.5509 60.9366 39.5509ZM23.5296 39.5734V39.5528L23.0283 39.5542C19.1328 39.565 15.963 42.7113 15.9666 46.5812L15.9666 46.5816C15.9739 50.444 19.1568 53.5966 23.0456 53.6038C26.931 53.611 30.1243 50.4761 30.1534 46.6112C30.1813 42.8757 27.2387 39.8185 23.5296 39.5734Z" fill="url(#paint0_linear_229_4)" stroke="white"/>
<defs>
<linearGradient id="paint0_linear_229_4" x1="42" y1="-9" x2="42" y2="63" gradientUnits="userSpaceOnUse">
<stop stop-color="#2AA9FF"/>
<stop offset="1" stop-color="#0047BF"/>
</linearGradient>
</defs>
</svg>
