<svg width="68" height="68" viewBox="0 0 68 68" fill="none" xmlns="http://www.w3.org/2000/svg">
<path fill-rule="evenodd" clip-rule="evenodd" d="M67.9871 46.2048V42.8838L67.9899 42.8893C67.922 42.5119 67.8625 42.1321 67.8029 41.7521C67.6742 40.9317 67.5455 40.1107 67.3333 39.3127C65.2017 31.2587 60.1583 25.8746 52.3075 23.1414C51.6043 22.8969 51.173 22.5591 50.945 21.7762C51.3259 21.7762 51.7041 21.7774 52.0804 21.7786C52.8275 21.7811 53.5674 21.7835 54.3073 21.7762C55.8758 21.7597 57.252 21.235 58.414 20.1775C60.2819 18.4798 60.9055 15.8647 60.0154 13.5024C59.1447 11.1949 56.9279 9.5962 54.4501 9.57147C52.0955 9.54793 49.7395 9.55241 47.384 9.5569C46.442 9.55869 45.5001 9.56048 44.5583 9.56048H43.8469C43.9332 9.299 44.028 9.04138 44.1223 8.78526C44.3253 8.23423 44.5256 7.69015 44.6325 7.12943C45.311 3.5529 42.5531 0.146674 38.9134 0.00932587C38.5865 -0.00135662 38.2596 -0.000406968 37.9327 0.000542683C37.8393 0.000814018 37.7459 0.00108535 37.6525 0.00108535H6.64763C3.12329 0.00108535 0.99165 1.65201 0.0961435 5.07471C0.0811246 5.12915 0.0571243 5.18231 0.0329114 5.23594C0.0216961 5.26079 0.0104351 5.28573 0 5.31095V6.90418C0.09286 7.15065 0.175027 7.40315 0.257155 7.65554C0.434983 8.20201 0.61263 8.74792 0.898254 9.23085C2.05747 11.1894 3.84848 12.1866 6.12021 12.2085C8.39698 12.2316 10.6751 12.2264 12.9527 12.2212C13.9286 12.219 14.9045 12.2168 15.8801 12.2168H16.7015C15.339 14.5215 15.3225 16.7877 16.7097 19.1226C16.2976 19.1226 15.8966 19.1207 15.5029 19.1189C14.7366 19.1152 13.9981 19.1117 13.2595 19.1226C9.76542 19.1693 7.06517 21.985 7.18329 25.4763C7.23822 27.0943 7.88925 28.4705 9.04297 29.605C9.12302 29.6833 9.21113 29.7535 9.31253 29.8343C9.36771 29.8782 9.42683 29.9253 9.49073 29.9786C8.01012 31.2779 7.18054 32.8382 7.17779 34.7638C7.17504 36.6922 7.98265 38.2607 9.46326 39.56C8.01561 40.8346 7.18054 42.3921 7.17779 44.3177C7.1723 46.2461 7.97166 47.8201 9.2902 48.9655C9.09095 49.2991 8.87628 49.6203 8.66411 49.9377C8.21227 50.6138 7.77175 51.2729 7.51567 51.9982C6.1312 55.9181 9.07868 59.9808 13.2788 60.0083C18.2804 60.0413 23.2794 60.0248 28.2811 60.0083H28.2826C28.7386 60.0083 29.049 60.1484 29.3787 60.4643C35.6829 66.5158 43.1409 68.6722 51.5411 66.2796C60.0374 63.8568 65.3006 58.0415 67.4432 49.4572C67.6269 48.7244 67.7323 47.9719 67.8376 47.2197C67.885 46.8807 67.9325 46.5419 67.9871 46.2048ZM45.3687 24.6907C56.3483 24.6632 65.3143 33.5963 65.3308 44.5814H65.3281C65.3473 55.5582 56.4005 64.5215 45.4209 64.527C34.4441 64.5325 25.489 55.5802 25.4945 44.6006C25.5 33.6458 34.4111 24.7182 45.3687 24.6907ZM26.9678 9.55314C25.4254 9.55269 23.8831 9.55224 22.341 9.55224H22.3382C20.7256 9.55224 19.1128 9.55299 17.4998 9.55373C13.7358 9.55546 9.9713 9.55719 6.20812 9.5495C3.79904 9.544 2.14537 7.38764 2.79365 5.13514C3.21394 3.67651 4.54346 2.66563 6.11197 2.65464C7.67588 2.64287 9.24118 2.64511 10.8059 2.64736C11.4316 2.64825 12.0573 2.64915 12.6827 2.64915C15.5452 2.64915 18.4074 2.64884 21.2695 2.64854C26.9929 2.64793 32.7155 2.64732 38.4381 2.64915C40.4626 2.64915 42.0009 4.03636 42.0888 5.91802C42.1822 7.93429 40.6247 9.54675 38.537 9.5495C34.6813 9.55538 30.8243 9.55426 26.9678 9.55314ZM38.5425 19.1144H38.0124C36.3997 19.1144 34.7868 19.1151 33.1738 19.1159C29.4099 19.1176 25.6454 19.1193 21.8822 19.1116C19.4704 19.1061 17.8167 16.9525 18.4623 14.7C18.8826 13.2414 20.2093 12.2305 21.7779 12.2168C23.2161 12.205 24.6543 12.2073 26.0925 12.2095C26.6678 12.2104 27.2431 12.2113 27.8184 12.2113C30.7394 12.2113 33.6602 12.211 36.5808 12.2107C42.4217 12.2101 48.2623 12.2095 54.104 12.2113C56.1313 12.2113 57.6696 13.5958 57.7575 15.4774C57.8536 17.4937 56.2961 19.1089 54.2084 19.1116C50.4784 19.1175 46.7484 19.1164 43.0185 19.1153C41.5265 19.1148 40.0345 19.1144 38.5425 19.1144ZM46.8191 21.9053L46.7999 22.0674V22.0701C44.5776 21.9657 42.3828 22.136 40.2182 22.6525C36.2763 23.5919 32.8453 25.4653 29.9061 28.2425C29.5792 28.5529 29.2578 28.6875 28.8018 28.6875C25.8557 28.6797 22.9095 28.679 19.9633 28.6783C17.7535 28.6778 15.5436 28.6773 13.3337 28.6738C11.7899 28.671 10.5153 27.7645 10.0236 26.3636C9.54566 25.0011 9.94947 23.526 11.0702 22.581C11.702 22.0481 12.4382 21.7734 13.265 21.7734C15.4338 21.7734 17.6025 21.7733 19.7711 21.7732C28.4465 21.7728 37.1205 21.7723 45.7945 21.7789C46.0272 21.7789 46.2612 21.8174 46.4947 21.8558C46.603 21.8736 46.7112 21.8914 46.8191 21.9053ZM26.824 31.3328C26.8899 31.3328 26.9531 31.3493 26.9119 31.3438C26.6451 31.8889 26.3744 32.4311 26.104 32.9726C25.4588 34.265 24.8155 35.5535 24.2309 36.868C24.1994 36.9389 24.1698 37.0061 24.1418 37.0699C23.6405 38.2088 23.6286 38.2359 22.2421 38.2359C21.3836 38.2359 20.525 38.2373 19.6662 38.2386C17.5187 38.242 15.3706 38.2454 13.2238 38.2277C11.5262 38.214 10.1445 36.9806 9.86156 35.3077C9.59236 33.7145 10.5675 32.0773 12.1305 31.5416C12.4794 31.4207 12.8612 31.3411 13.2293 31.3411C16.7544 31.3304 20.2778 31.3314 23.8021 31.3323C24.8093 31.3326 25.8166 31.3328 26.824 31.3328ZM20.5261 50.4518C21.4877 50.4545 22.4408 50.4571 23.3821 50.4571C23.8956 51.5762 24.3974 52.6689 24.8934 53.7489C25.4482 54.9568 25.9956 56.1487 26.5438 57.3438C26.5795 57.3383 26.5026 57.3547 26.423 57.3547C25.3285 57.3554 24.2339 57.357 23.1392 57.3585C19.8542 57.3631 16.5685 57.3678 13.2843 57.3492C10.7681 57.3355 9.11439 54.8083 10.1198 52.5393C10.6884 51.2592 11.7158 50.4928 13.1167 50.4736C15.6036 50.4382 18.092 50.4451 20.5261 50.4518ZM22.9135 40.9112C22.9426 40.9145 22.9645 40.917 22.9755 40.917V47.7981H21.9509C21.0824 47.7981 20.2137 47.7996 19.3449 47.8011C17.3172 47.8045 15.2891 47.808 13.2623 47.7926C11.485 47.7789 10.0264 46.4356 9.84508 44.7078C9.65829 42.9442 10.8367 41.3455 12.6085 40.9664C12.8228 40.9197 13.0453 40.895 13.265 40.895H22.6843C22.7701 40.895 22.8559 40.9047 22.9135 40.9112ZM46.7775 53.4277C46.6617 54.7517 46.2496 55.3083 45.4126 55.3137C44.5693 55.3192 44.1435 54.7479 44.0474 53.4568C43.916 53.4043 43.7815 53.3548 43.6463 53.305C43.3572 53.1986 43.0643 53.0908 42.7892 52.9486C41.0367 52.0339 39.9764 50.6247 39.8418 48.6139C39.7813 47.7184 40.3197 47.0949 41.1054 47.0619C41.8608 47.0289 42.4047 47.5756 42.4871 48.4491C42.6107 49.7374 43.5721 50.6989 44.9044 50.8664C46.4235 51.056 47.775 50.3308 48.198 49.1056C48.6732 47.7267 47.7035 46.2433 46.1021 45.9439C45.7994 45.8875 45.4908 45.8604 45.1821 45.8333C44.8295 45.8023 44.4767 45.7713 44.1325 45.6967C41.7179 45.1775 39.9654 43.2381 39.839 41.0049C39.7072 38.6535 41.1521 36.5987 43.5529 35.7994C43.9622 35.662 44.0968 35.4945 44.0913 35.0687C44.0831 34.2144 44.6462 33.6238 45.3934 33.6156C46.1405 33.6101 46.7366 34.2034 46.7174 35.0495C46.7064 35.5274 46.8904 35.6785 47.3025 35.8186C49.4561 36.5438 50.923 38.42 50.9752 40.461C50.9944 41.2164 50.6263 41.7822 50.0082 41.9443C49.1951 42.1586 48.3985 41.6422 48.3436 40.7851C48.2694 39.6122 47.6926 38.8265 46.6432 38.3952C45.517 37.9365 44.4264 38.0656 43.4458 38.8073C42.6244 39.4281 42.3058 40.3786 42.5695 41.2713C42.8689 42.2877 43.8331 43.0376 44.9786 43.1667C45.1559 43.1869 45.3346 43.2039 45.5135 43.2208C46.0634 43.2729 46.6154 43.3251 47.1377 43.4744C49.3957 44.1199 50.9532 46.1334 50.9779 48.3337C51.0026 50.5231 49.5385 52.4844 47.3025 53.2535C47.1364 53.3107 46.9703 53.3652 46.7775 53.4277Z" fill="url(#paint0_linear_121_298)"/>
<defs>
<linearGradient id="paint0_linear_121_298" x1="33.9949" y1="-11.5" x2="33.9949" y2="77.5" gradientUnits="userSpaceOnUse">
<stop stop-color="#2AA9FF"/>
<stop offset="1" stop-color="#0047BF"/>
</linearGradient>
</defs>
</svg>
