<svg width="160" height="54" viewBox="0 0 160 54" fill="none" xmlns="http://www.w3.org/2000/svg">
<path d="M58.3198 35.8288H60.1998V43.8663H58.3198V35.8288Z" fill="black"/>
<path d="M70.6398 35.8288V43.8663H69.1198L65.1198 38.9879V43.8663H63.2798V35.8288H64.8398L68.8398 40.7073V35.8288H70.6398Z" fill="black"/>
<path d="M75.5597 37.3084V39.4277H79.2797V40.9073H75.5597V43.8263H73.6797V35.8288H79.7597V37.3084H75.5597Z" fill="black"/>
<path d="M81.5996 39.8276C81.5996 37.4283 83.4796 35.6689 85.9996 35.6689C88.5196 35.6689 90.3996 37.4283 90.3996 39.8276C90.3996 42.2268 88.5196 43.9863 85.9996 43.9863C83.4796 43.9863 81.5996 42.2268 81.5996 39.8276ZM88.5196 39.8276C88.5196 38.3081 87.4396 37.2684 85.9996 37.2684C84.5596 37.2684 83.4796 38.3081 83.4796 39.8276C83.4796 41.3471 84.5596 42.3868 85.9996 42.3868C87.4396 42.3868 88.5196 41.3471 88.5196 39.8276Z" fill="black"/>
<path d="M98.0799 43.8663L96.5199 41.627H96.4399H94.7999V43.8663H92.9199V35.8288H96.3999C98.5599 35.8288 99.8799 36.9485 99.8799 38.7479C99.8799 39.9476 99.2799 40.8273 98.2399 41.2671L100.04 43.8663H98.0799ZM96.3599 37.3084H94.8399V40.1075H96.3599C97.4799 40.1075 98.0799 39.5877 98.0799 38.7079C98.0399 37.8282 97.4799 37.3084 96.3599 37.3084Z" fill="black"/>
<path d="M109.88 43.8663V39.0278L107.52 42.9866H106.68L104.32 39.1078V43.8263H102.56V35.8288H104.12L107.12 40.8273L110.08 35.8288H111.6L111.64 43.8663H109.88Z" fill="black"/>
<path d="M120 42.1469H116.28L115.56 43.8663H113.64L117.24 35.8288H119.08L122.68 43.8663H120.72L120 42.1469ZM119.4 40.7073L118.12 37.6283L116.84 40.7073H119.4Z" fill="black"/>
<path d="M125.92 37.3084H123.36V35.7888H130.36V37.3084H127.8V43.8263H125.92V37.3084Z" fill="black"/>
<path d="M132.48 35.8288H134.36V43.8663H132.48V35.8288Z" fill="black"/>
<path d="M136.92 39.8276C136.92 37.3883 138.8 35.6689 141.28 35.6689C142.68 35.6689 143.84 36.1887 144.6 37.1084L143.4 38.2281C142.88 37.5883 142.2 37.2684 141.36 37.2684C139.84 37.2684 138.8 38.3081 138.8 39.8276C138.8 41.3471 139.88 42.3868 141.36 42.3868C142.16 42.3868 142.84 42.0669 143.4 41.4271L144.6 42.5467C143.84 43.4665 142.68 43.9863 141.28 43.9863C138.76 43.9863 136.92 42.2668 136.92 39.8276Z" fill="black"/>
<path d="M146.28 43.0666L146.92 41.667C147.6 42.1469 148.6 42.5068 149.56 42.5068C150.68 42.5068 151.12 42.1469 151.12 41.627C151.12 40.1075 146.44 41.1472 146.44 38.1881C146.44 36.8285 147.56 35.6689 149.84 35.6689C150.84 35.6689 151.88 35.9088 152.64 36.3887L152.08 37.7882C151.32 37.3484 150.56 37.1484 149.84 37.1484C148.72 37.1484 148.32 37.5483 148.32 38.0681C148.32 39.5477 153 38.508 153 41.4671C153 42.8267 151.88 43.9463 149.6 43.9463C148.28 43.9863 147 43.6264 146.28 43.0666Z" fill="black"/>
<path d="M112.68 19.4339L103.48 8.31741H98.6401V29.1909H104.4V18.0744L113.6 29.1909H118.48V8.31741H112.68V19.4339Z" fill="black"/>
<path d="M128.56 8.31741H122.64V29.1909H128.56V8.31741Z" fill="black"/>
<path d="M144.96 18.3943L152.24 8.31741H145.84L141.76 14.3555L137.56 8.31741H130.92L138.2 18.6342L130.6 29.1909H137.32L141.6 22.7129L145.92 29.1909H152.72L144.96 18.3943Z" fill="black"/>
<path d="M77.1599 16.035C77.1599 11.2765 73.5999 8.31741 67.8799 8.31741H58.3599V29.1909H64.2799V26.8716C64.2799 25.1122 65.7199 23.6726 67.4799 23.6726L71.2799 29.2309H77.5999L73.0799 22.6729C75.6399 21.3533 77.1599 19.114 77.1599 16.035ZM67.5199 19.0741H64.2399V12.956H67.5199C69.9599 12.956 71.1999 14.0756 71.1999 16.035C71.1999 17.9544 69.9599 19.0741 67.5199 19.0741Z" fill="black"/>
<path d="M86.2399 20.7935H92.1999V16.3949H86.2399V12.876H94.9599V8.31741H80.3999V29.1909H95.3599V24.6323H86.2399V20.7935Z" fill="black"/>
<path d="M31.8801 21.1134C33.0001 18.4742 33.5601 15.5951 33.5601 12.6361V6.63794H26.7201V12.6361C26.7201 20.9935 19.9201 27.7913 11.5601 27.7913H5.56006V34.6292H11.5601C15.5201 34.6292 19.2801 33.5895 22.6001 31.6701C21.4801 34.3093 20.9201 37.1884 20.9201 40.1475V46.1456H27.7601V40.1475C27.7601 31.7901 34.5601 24.9922 42.9201 24.9922H48.9201V18.1544H42.9201C38.9601 18.1544 35.2001 19.194 31.8801 21.1134Z" fill="url(#paint0_linear_115_62)"/>
<path d="M21.2801 12.6361V6.63794H14.4401V12.6361C14.4401 14.2356 13.1601 15.5152 11.5601 15.5152H5.56006V22.353H11.5601C16.9201 22.353 21.2801 17.9944 21.2801 12.6361Z" fill="url(#paint1_linear_115_62)"/>
<path d="M33.2002 40.1475V46.1456H40.0402V40.1475C40.0402 38.548 41.3202 37.2684 42.9202 37.2684H48.9202V30.4305H42.9202C37.5602 30.4305 33.2002 34.7892 33.2002 40.1475Z" fill="url(#paint2_linear_115_62)"/>
<defs>
<linearGradient id="paint0_linear_115_62" x1="27.2384" y1="-3.1285" x2="27.2384" y2="51.3653" gradientUnits="userSpaceOnUse">
<stop stop-color="#2AA9FF"/>
<stop offset="1" stop-color="#0047BF"/>
</linearGradient>
<linearGradient id="paint1_linear_115_62" x1="13.403" y1="-3.1285" x2="13.403" y2="51.3653" gradientUnits="userSpaceOnUse">
<stop stop-color="#2AA9FF"/>
<stop offset="1" stop-color="#0047BF"/>
</linearGradient>
<linearGradient id="paint2_linear_115_62" x1="41.0739" y1="-3.12851" x2="41.0739" y2="51.3653" gradientUnits="userSpaceOnUse">
<stop stop-color="#2AA9FF"/>
<stop offset="1" stop-color="#0047BF"/>
</linearGradient>
</defs>
</svg>
