<svg width="38" height="38" viewBox="0 0 38 38" fill="none" xmlns="http://www.w3.org/2000/svg">
<path d="M33.25 15.8333C33.25 26.9166 19 36.4166 19 36.4166C19 36.4166 4.75 26.9166 4.75 15.8333C4.75 12.0539 6.25133 8.42937 8.92373 5.75698C11.5961 3.08459 15.2207 1.58325 19 1.58325C22.7793 1.58325 26.4039 3.08459 29.0763 5.75698C31.7487 8.42937 33.25 12.0539 33.25 15.8333Z" stroke="#F7F7F7" stroke-width="3" stroke-linecap="round" stroke-linejoin="round"/>
<path d="M19 20.5833C21.6234 20.5833 23.75 18.4566 23.75 15.8333C23.75 13.2099 21.6234 11.0833 19 11.0833C16.3766 11.0833 14.25 13.2099 14.25 15.8333C14.25 18.4566 16.3766 20.5833 19 20.5833Z" stroke="#F7F7F7" stroke-width="3" stroke-linecap="round" stroke-linejoin="round"/>
</svg>
