<svg width="219" height="224" viewBox="0 0 219 224" fill="none" xmlns="http://www.w3.org/2000/svg">
<g opacity="0.35" filter="url(#filter0_f_0_1)">
<rect x="77" y="77" width="65" height="69.3919" rx="28" fill="#EB2246"/>
</g>
<rect x="60" y="60" width="98" height="103" rx="34" fill="white"/>
<path fill-rule="evenodd" clip-rule="evenodd" d="M106.104 88.1119C106.204 88.1119 106.303 88.1106 106.403 88.1092C106.624 88.1063 106.846 88.1034 107.067 88.1149C107.886 88.1572 108.508 88.7815 108.535 89.5736C108.562 90.3642 107.986 91.0353 107.167 91.1215C106.712 91.1701 106.255 91.2045 105.799 91.2389C104.992 91.2997 104.186 91.3604 103.394 91.4994C98.9148 92.2854 95.1554 94.4199 92.111 97.7847C89.2979 100.894 87.6306 104.554 87.1756 108.721C86.5936 114.051 88.0765 118.807 91.3764 123.005C91.7926 123.535 92.2536 124.029 92.7146 124.524C92.8529 124.672 92.9912 124.82 93.1283 124.97C93.7753 125.674 93.8055 126.577 93.1873 127.187C92.5615 127.807 91.6212 127.762 90.9335 127.071C87.3373 123.458 84.9943 119.174 84.2551 114.113C83.4101 108.321 84.6663 102.958 87.9934 98.1385C91.2645 93.3995 95.7177 90.2644 101.309 88.8359C102.378 88.5624 103.477 88.399 104.574 88.2356C105.078 88.1606 105.582 88.0856 106.083 88L106.106 88.1103L106.104 88.1119ZM117.458 94.1176C117.483 94.2183 117.505 94.3048 117.525 94.382L117.525 94.3821L117.526 94.3826C117.566 94.5394 117.597 94.6578 117.622 94.7782C117.786 95.5627 117.318 96.3503 116.569 96.5619C115.793 96.7811 114.963 96.4062 114.731 95.6277C114.292 94.1584 113.895 92.674 113.532 91.1836C113.357 90.461 113.849 89.7127 114.595 89.4996C115.99 89.1021 117.39 88.7226 118.797 88.3735C119.651 88.1618 120.423 88.6425 120.649 89.4573C120.866 90.2448 120.402 91.0339 119.563 91.3045C119.409 91.3544 119.256 91.4043 119.04 91.4753C119.089 91.5126 119.132 91.5465 119.172 91.5776L119.173 91.5781L119.173 91.5783L119.173 91.5783C119.257 91.644 119.325 91.6973 119.397 91.7444C125.094 95.5567 128.625 100.829 129.558 107.618C130.674 115.725 128.099 122.621 121.983 128.084C117.628 131.973 112.428 133.728 106.609 133.721C102.178 133.716 97.7466 133.717 93.3154 133.717H93.3153H93.3153H93.3152C90.8543 133.718 88.3934 133.718 85.9327 133.718C85.7135 133.718 85.4913 133.712 85.2766 133.677C84.5238 133.554 83.9842 132.892 84.0099 132.141C84.0356 131.388 84.616 130.77 85.3779 130.693C85.5407 130.677 85.7054 130.678 85.8697 130.679H85.8698H85.8699H85.87C85.9085 130.679 85.9471 130.679 85.9856 130.679C88.073 130.679 90.1605 130.678 92.248 130.677C97.0188 130.675 101.79 130.673 106.56 130.682C110.017 130.69 113.311 130.007 116.34 128.318C121.911 125.215 125.465 120.545 126.453 114.233C127.738 106.022 124.836 99.431 118.111 94.5378C117.997 94.4554 117.877 94.38 117.729 94.2863L117.729 94.2863L117.728 94.2862L117.728 94.286C117.648 94.2355 117.56 94.1797 117.459 94.1146L117.458 94.1176ZM135.904 132.551C135.816 132.668 135.732 132.789 135.647 132.909C135.464 133.172 135.28 133.434 135.063 133.666C134.261 134.53 133.435 135.371 132.609 136.211L132.609 136.212L132.533 136.289C131.85 136.986 130.908 137.034 130.282 136.42C129.646 135.796 129.677 134.892 130.361 134.17C130.422 134.105 130.482 134.039 130.557 133.957L130.557 133.956C130.609 133.9 130.668 133.835 130.74 133.757C130.659 133.752 130.587 133.747 130.52 133.742L130.52 133.742L130.52 133.742C130.38 133.732 130.265 133.724 130.149 133.724C129.238 133.723 128.328 133.723 127.417 133.723C126.505 133.723 125.594 133.723 124.682 133.722H124.681C124.479 133.722 124.275 133.722 124.075 133.699C123.246 133.606 122.674 132.972 122.688 132.171C122.701 131.352 123.32 130.703 124.174 130.69C125.216 130.674 126.259 130.677 127.302 130.679H127.302H127.302H127.303H127.303C127.761 130.68 128.22 130.681 128.678 130.681H130.69L130.614 130.599L130.561 130.541L130.503 130.479L130.502 130.479L130.502 130.478L130.502 130.478C130.382 130.35 130.29 130.252 130.204 130.15C129.674 129.526 129.703 128.654 130.269 128.085C130.82 127.531 131.757 127.466 132.332 128.016C133.416 129.054 134.468 130.126 135.518 131.199C135.633 131.316 135.711 131.47 135.79 131.624L135.79 131.624C135.826 131.697 135.863 131.77 135.904 131.839V132.548V132.551ZM93.3323 110.875C93.3157 118.431 99.4513 124.58 107.009 124.586C114.543 124.592 120.682 118.473 120.699 110.939C120.715 103.382 114.583 97.2361 107.022 97.23C99.4876 97.224 93.3489 103.343 93.3323 110.875ZM117.659 110.907C117.659 116.769 112.897 121.534 107.029 121.544C101.169 121.555 96.3842 116.79 96.3737 110.933C96.3631 105.047 101.144 100.262 107.029 100.271C112.897 100.28 117.659 105.045 117.659 110.907ZM106.737 111.947C106.32 112.365 105.899 112.788 105.471 113.215L105.47 113.217C105.269 113.011 105.074 112.808 104.881 112.608C104.449 112.158 104.03 111.723 103.595 111.303C102.927 110.659 101.944 110.668 101.32 111.29C100.685 111.921 100.666 112.893 101.316 113.562C102.316 114.59 103.331 115.605 104.359 116.606C105.009 117.239 105.949 117.27 106.594 116.633C108.664 114.597 110.715 112.541 112.754 110.475C113.27 109.952 113.321 109.211 112.979 108.599C112.642 107.997 111.965 107.651 111.259 107.834C110.907 107.925 110.552 108.158 110.287 108.416C109.106 109.572 107.938 110.742 106.737 111.947Z" fill="#EB2246"/>
<defs>
<filter id="filter0_f_0_1" x="0" y="0" width="219" height="223.392" filterUnits="userSpaceOnUse" color-interpolation-filters="sRGB">
<feFlood flood-opacity="0" result="BackgroundImageFix"/>
<feBlend mode="normal" in="SourceGraphic" in2="BackgroundImageFix" result="shape"/>
<feGaussianBlur stdDeviation="38.5" result="effect1_foregroundBlur_0_1"/>
</filter>
</defs>
</svg>
