<svg width="219" height="224" viewBox="0 0 219 224" fill="none" xmlns="http://www.w3.org/2000/svg">
<g opacity="0.35" filter="url(#filter0_f_0_1)">
<rect x="77" y="77" width="65" height="69.3919" rx="28" fill="#2AA9FF"/>
</g>
<rect x="61" y="60" width="98" height="103" rx="34" fill="white"/>
<path d="M80 102.493V99.9164C80.0719 99.5166 80.15 99.1169 80.2156 98.7155C82.0281 87.5206 95.0355 81.9723 104.329 88.4841C105.913 89.5943 107.246 91.0622 108.693 92.3662C108.86 92.5161 109.023 92.6722 109.213 92.8487C110.046 92.0101 110.801 91.1918 111.619 90.4392C112.493 89.6349 113.376 88.8245 114.341 88.1405C117.804 85.6841 121.666 84.4677 125.888 85.2219C132.796 86.4556 137.28 90.5766 139.413 97.2414C139.7 98.1424 139.808 99.1013 140 100.034V102.61C139.964 102.76 139.911 102.907 139.894 103.058C139.677 105.02 139.072 106.859 138.164 108.605C137.305 110.26 136.192 111.733 134.88 113.135C136.844 114.928 137.713 117.083 136.853 119.666C135.991 122.256 134.042 123.535 131.353 123.777C131.292 125.395 130.705 126.758 129.569 127.877C128.435 128.993 127.049 129.53 125.48 129.583C125.149 135.113 118.24 137.46 114.56 132.766C114.421 132.947 114.307 133.131 114.157 133.281C113.098 134.348 112.057 135.433 110.962 136.462C107.991 139.251 103.067 138.086 101.659 134.263C101.439 133.667 101.346 133.025 101.178 132.329C99.7276 132.252 98.3948 131.729 97.3027 130.656C96.2136 129.586 95.6871 128.256 95.5621 126.772C93.4403 126.612 91.8372 125.697 90.8497 123.868C89.8529 122.021 89.9919 120.161 91.0294 118.296C90.8763 118.167 90.7216 118.048 90.5794 117.915C88.692 116.133 86.8045 114.352 84.9186 112.567C82.6781 110.448 81.164 107.901 80.4516 104.896C80.2641 104.105 80.1484 103.294 80 102.493ZM106.47 107.721C106.282 107.895 106.151 108.009 106.027 108.13C102.16 111.994 98.2933 115.859 94.4277 119.723C94.3449 119.806 94.2606 119.889 94.1856 119.978C93.284 121.035 93.695 122.631 95.0012 123.1C95.8449 123.403 96.5683 123.17 97.1902 122.547C98.3058 121.427 99.412 120.295 100.551 119.197C101.564 118.221 103.12 118.627 103.495 119.945C103.696 120.653 103.463 121.248 102.956 121.754C101.892 122.815 100.821 123.871 99.7698 124.945C99.1104 125.618 98.9183 126.435 99.2448 127.321C99.5698 128.204 100.239 128.707 101.184 128.787C101.906 128.848 102.517 128.59 103.029 128.072C104.073 127.016 105.117 125.964 106.179 124.927C107.001 124.126 108.182 124.19 108.852 125.041C109.407 125.745 109.332 126.721 108.637 127.428C107.596 128.487 106.543 129.532 105.49 130.576C104.99 131.073 104.74 131.671 104.795 132.371C104.867 133.287 105.331 133.965 106.184 134.304C107.076 134.658 107.923 134.51 108.621 133.829C109.712 132.766 110.768 131.668 111.865 130.612C112.19 130.3 112.266 130.061 112.071 129.619C111.145 127.508 111.609 124.949 113.248 123.335C113.86 122.733 114.619 122.278 115.323 121.746C114.008 119.133 114.012 116.894 115.476 115.009C117.28 112.687 119.644 112.084 122.443 112.962C123.213 110.896 124.582 109.458 126.758 108.967C128.913 108.483 130.803 109.08 132.386 110.623C132.499 110.521 132.575 110.462 132.641 110.391C135.713 107.234 136.98 103.446 136.191 99.134C135.292 94.2213 132.378 90.8217 127.618 89.2852C122.846 87.7439 118.524 88.7995 114.827 92.2194C113.868 93.1063 112.969 94.0605 112.044 94.9849C111.94 95.0896 111.849 95.2067 111.71 95.3644C111.89 95.5174 112.044 95.6377 112.184 95.772C113.908 97.4429 115.63 99.1169 117.354 100.788C118.546 101.943 119.155 103.367 119.238 105.01C119.371 107.645 117.91 110.007 115.533 111.061C113.144 112.12 110.368 111.61 108.498 109.761C107.832 109.103 107.179 108.435 106.47 107.721ZM93.4981 115.835C93.6403 115.637 93.745 115.44 93.895 115.29C97.148 112.031 100.404 108.774 103.665 105.522C105.357 103.834 107.52 103.831 109.205 105.505C109.801 106.097 110.385 106.698 110.99 107.281C111.644 107.913 112.432 108.215 113.341 108.066C114.449 107.885 115.252 107.276 115.605 106.194C115.972 105.068 115.677 104.075 114.833 103.255C111.155 99.6759 107.506 96.0687 103.784 92.5364C100.912 89.8098 97.423 88.7355 93.5371 89.4288C88.7966 90.2736 85.5311 93.0611 84.0968 97.6662C82.6562 102.29 83.7843 106.408 87.1951 109.859C88.4013 111.08 89.6826 112.226 90.931 113.407C91.7528 114.185 92.5731 114.961 93.5012 115.838L93.4981 115.835ZM125.73 126.039C126.446 126.004 127.166 125.528 127.577 124.644C127.993 123.749 127.894 122.85 127.21 122.144C125.421 120.297 123.602 118.476 121.754 116.688C120.816 115.782 119.413 115.893 118.501 116.841C117.627 117.748 117.596 119.152 118.486 120.059C120.247 121.852 122.035 123.621 123.819 125.392C124.266 125.836 124.821 126.054 125.732 126.039H125.73ZM131.067 120.212C132.152 120.247 133.047 119.7 133.438 118.816C133.85 117.882 133.711 117.003 133.014 116.272C131.952 115.157 130.855 114.075 129.752 112.999C128.789 112.061 127.378 112.076 126.444 113.002C125.505 113.932 125.469 115.342 126.402 116.307C127.458 117.4 128.546 118.465 129.627 119.536C130.058 119.964 130.577 120.211 131.071 120.212H131.067ZM119.555 131.785C120.543 131.745 121.272 131.271 121.679 130.386C122.088 129.494 121.969 128.614 121.297 127.886C120.571 127.099 119.81 126.34 119.024 125.611C118.09 124.742 116.726 124.811 115.808 125.723C114.938 126.588 114.854 127.994 115.683 128.901C116.419 129.705 117.208 130.462 117.999 131.215C118.422 131.618 118.96 131.799 119.555 131.785Z" fill="#2AA9FF"/>
<defs>
<filter id="filter0_f_0_1" x="0" y="0" width="219" height="223.392" filterUnits="userSpaceOnUse" color-interpolation-filters="sRGB">
<feFlood flood-opacity="0" result="BackgroundImageFix"/>
<feBlend mode="normal" in="SourceGraphic" in2="BackgroundImageFix" result="shape"/>
<feGaussianBlur stdDeviation="38.5" result="effect1_foregroundBlur_0_1"/>
</filter>
</defs>
</svg>
