<svg width="219" height="224" viewBox="0 0 219 224" fill="none" xmlns="http://www.w3.org/2000/svg">
<g opacity="0.35" filter="url(#filter0_f_0_1)">
<rect x="77" y="77" width="65" height="69.3919" rx="28" fill="#EFB30A"/>
</g>
<rect x="61" y="60" width="98" height="103" rx="34" fill="white"/>
<path fill-rule="evenodd" clip-rule="evenodd" d="M108.607 81.2386C108.612 80.609 108.204 80.2815 107.728 80H106.612C106.306 80.0548 105.999 80.1049 105.691 80.1549C105.042 80.2606 104.392 80.3664 103.753 80.5169C88.9705 83.9886 82.3239 100.905 90.6083 113.445C90.8983 113.885 90.9699 114.195 90.7209 114.707C89.5386 117.147 90.7294 120.081 93.2475 121.07C95.7792 122.063 98.6009 120.733 99.4505 118.143C100.298 115.56 98.8022 112.815 96.1699 112.124C95.0524 111.831 93.9657 111.983 92.9011 112.411C92.8619 112.354 92.8247 112.301 92.7891 112.25C92.707 112.132 92.6335 112.026 92.5634 111.919C87.72 104.546 88.6822 94.5744 94.8596 88.269C98.2682 84.7871 102.417 82.8746 107.274 82.4908C108.119 82.4242 108.6 81.9636 108.607 81.2386ZM94.9961 114.456C96.2466 114.466 97.2105 115.458 97.1952 116.717C97.1798 117.96 96.1613 118.943 94.9211 118.909C93.7098 118.875 92.7288 117.873 92.734 116.672C92.7391 115.441 93.7541 114.446 94.9961 114.456ZM104.053 131.176C104.05 131.226 104.047 131.275 104.045 131.325L104.047 131.33L103.924 131.388C103.767 131.136 103.613 130.882 103.458 130.628C103.111 130.057 102.763 129.486 102.394 128.93C101.332 127.335 99.4455 126.572 97.6457 126.978C94.6875 127.645 93.1435 130.744 94.4606 133.5C95.4948 135.666 96.5666 137.812 97.6385 139.959C98.0979 140.879 98.5574 141.8 99.0139 142.721L99.0199 142.733C99.064 142.822 99.1086 142.911 99.1657 142.991C99.5445 143.527 100.188 143.69 100.754 143.399C101.285 143.126 101.547 142.508 101.361 141.921C101.308 141.753 101.226 141.592 101.144 141.433C101.122 141.389 101.1 141.346 101.078 141.302C100.675 140.486 100.271 139.671 99.8673 138.856C98.8403 136.785 97.8132 134.713 96.808 132.632C96.6033 132.206 96.4788 131.678 96.5129 131.213C96.5794 130.286 97.2926 129.577 98.1439 129.411C99.0549 129.234 99.8993 129.597 100.42 130.442C101.199 131.706 101.971 132.974 102.744 134.242C103.229 135.038 103.715 135.835 104.202 136.631C104.526 137.158 104.988 137.424 105.614 137.262C106.237 137.1 106.522 136.655 106.551 136.03C106.559 135.849 106.559 135.666 106.558 135.484C106.558 135.439 106.558 135.393 106.558 135.348V108.233C106.558 108.197 106.558 108.161 106.558 108.125C106.557 107.872 106.557 107.617 106.583 107.366C106.708 106.223 107.755 105.457 108.885 105.67C109.873 105.856 110.466 106.65 110.466 107.803V130.697C110.466 131.837 110.884 132.397 111.725 132.388C112.549 132.38 112.949 131.84 112.949 130.732C112.949 130.172 112.948 129.613 112.947 129.053C112.945 127.71 112.944 126.366 112.952 125.023C112.961 123.843 113.807 122.964 114.904 122.959C115.973 122.954 116.825 123.797 116.874 124.945C116.895 125.413 116.89 125.881 116.886 126.349C116.884 126.543 116.883 126.737 116.883 126.931C116.883 127.364 116.883 127.797 116.882 128.231C116.88 129.369 116.879 130.508 116.896 131.646C116.907 132.339 117.417 132.828 118.065 132.857C118.674 132.883 119.211 132.446 119.327 131.803C119.364 131.598 119.363 131.385 119.363 131.174C119.363 131.158 119.363 131.141 119.363 131.124C119.364 130.369 119.364 129.614 119.364 128.86C119.363 127.566 119.362 126.274 119.37 124.981C119.373 124.083 119.855 123.386 120.621 123.09C121.886 122.602 123.238 123.525 123.253 124.928C123.262 125.845 123.261 126.763 123.26 127.682C123.258 128.915 123.256 130.148 123.28 131.38C123.289 131.798 123.437 132.339 123.725 132.588C124.007 132.83 124.575 132.898 124.969 132.815C125.488 132.704 125.742 132.231 125.742 131.673C125.742 131.253 125.742 130.833 125.741 130.413C125.739 129.469 125.737 128.524 125.75 127.579C125.769 126.277 126.709 125.417 127.946 125.535C128.965 125.631 129.679 126.494 129.679 127.669C129.682 130.079 129.682 132.488 129.682 134.898C129.682 137.307 129.682 139.716 129.685 142.126C129.685 142.991 130.169 143.533 130.909 143.537C131.614 143.539 132.158 142.993 132.158 142.198C132.16 141.322 132.162 140.445 132.164 139.569C132.173 135.481 132.182 131.393 132.143 127.306C132.122 125.223 130.597 123.508 128.571 123.109C127.53 122.904 126.527 123.09 125.578 123.549C124.167 120.101 120.377 119.6 118.08 121.796C117.874 121.613 117.666 121.43 117.425 121.221C117.486 121.188 117.541 121.157 117.593 121.128C117.708 121.065 117.805 121.011 117.906 120.961C129.835 115.146 133.782 100.421 126.366 89.378C126.163 89.076 126.165 88.8593 126.336 88.5522C126.858 87.6122 126.987 86.5869 126.8 85.5446C126.322 82.8832 123.702 81.1652 121.11 81.7828C118.447 82.4174 116.881 85.0908 117.642 87.7044C118.392 90.2855 121.141 91.7203 123.691 90.8144C124.152 90.6506 124.341 90.7598 124.573 91.1232C126.453 94.0609 127.465 97.2631 127.629 100.752C128.04 109.493 122.342 117.449 113.918 119.846C113.709 119.905 113.499 119.958 113.28 120.013C113.178 120.039 113.074 120.065 112.967 120.093V113.434C113.051 113.398 113.133 113.363 113.215 113.328C113.367 113.264 113.515 113.201 113.66 113.131C118.287 110.903 120.907 107.228 121.211 102.11C121.687 94.0951 114.426 87.7095 106.496 89.035C100.892 89.9733 96.6409 94.4516 95.9636 100.136C95.3136 105.592 98.41 110.925 103.54 113.139C103.948 113.315 104.077 113.528 104.077 113.963C104.066 118.633 104.066 123.305 104.067 127.975C104.067 128.909 104.067 129.844 104.067 130.778C104.067 130.91 104.06 131.043 104.053 131.176ZM112.949 110.67C116.548 109.115 119.624 104.544 118.532 99.3803C117.531 94.6529 113.058 91.1232 108.276 91.3416C103.153 91.577 99.0429 95.3319 98.4441 100.324C97.9357 104.56 100.662 109.584 104.071 110.568C104.071 110.391 104.07 110.215 104.069 110.041C104.068 109.697 104.067 109.358 104.071 109.019C104.073 108.825 104.072 108.63 104.071 108.436C104.066 107.538 104.06 106.64 104.437 105.778C104.497 105.641 104.352 105.365 104.231 105.21C103.025 103.685 102.591 101.984 103.076 100.09C103.646 97.8602 105.572 96.1696 107.795 95.8966C110.185 95.6032 112.438 96.7479 113.566 98.8275C114.68 100.88 114.426 103.41 112.884 105.196C112.597 105.529 112.575 105.78 112.698 106.18C112.851 106.685 112.918 107.23 112.938 107.76C112.963 108.423 112.958 109.088 112.953 109.777C112.951 110.07 112.949 110.367 112.949 110.67ZM110.54 103.606C109.107 102.942 107.703 102.988 106.283 103.719C105.07 102.484 105.07 100.568 106.247 99.3257C107.402 98.1076 109.347 97.9984 110.627 99.0834C111.922 100.18 112.157 102.141 111.121 103.427C111.012 103.562 110.681 103.671 110.54 103.606ZM122.168 84.1507C123.415 84.1559 124.389 85.1505 124.379 86.4061V86.4044C124.369 87.6583 123.379 88.6188 122.118 88.6C120.902 88.583 119.924 87.5969 119.919 86.3873C119.914 85.1658 120.94 84.1456 122.168 84.1507Z" fill="#EFB30A"/>
<defs>
<filter id="filter0_f_0_1" x="0" y="0" width="219" height="223.392" filterUnits="userSpaceOnUse" color-interpolation-filters="sRGB">
<feFlood flood-opacity="0" result="BackgroundImageFix"/>
<feBlend mode="normal" in="SourceGraphic" in2="BackgroundImageFix" result="shape"/>
<feGaussianBlur stdDeviation="38.5" result="effect1_foregroundBlur_0_1"/>
</filter>
</defs>
</svg>
