<svg width="219" height="224" viewBox="0 0 219 224" fill="none" xmlns="http://www.w3.org/2000/svg">
<g opacity="0.35" filter="url(#filter0_f_0_1)">
<rect x="77" y="77" width="65" height="69.3919" rx="28" fill="#46C622"/>
</g>
<rect x="60" y="60" width="98" height="103" rx="34" fill="white"/>
<path fill-rule="evenodd" clip-rule="evenodd" d="M87.3631 142.016C87.3631 142.791 87.5258 143.405 88.2899 143.732V143.738H94.017C94.7007 143.42 94.9347 142.888 94.9292 142.138C94.9104 139.662 94.9133 137.186 94.9161 134.71C94.9172 133.81 94.9182 132.91 94.9182 132.009V131.223H106.235V131.9C106.235 132.765 106.236 133.631 106.237 134.497C106.24 136.986 106.243 139.476 106.222 141.966C106.217 142.736 106.405 143.337 107.089 143.736H112.94C113.604 143.363 113.827 142.805 113.821 142.041C113.801 138.798 113.804 135.555 113.807 132.311C113.808 131.183 113.809 130.055 113.809 128.927V128.114C113.993 128.321 114.161 128.511 114.321 128.689C114.585 128.985 114.822 129.251 115.057 129.52C115.958 130.546 116.861 131.572 117.764 132.597C120.282 135.459 122.801 138.321 125.292 141.208C126.319 142.398 127.442 143.365 128.999 143.736H130.617C130.845 143.633 131.084 143.545 131.324 143.456C131.85 143.262 132.377 143.067 132.779 142.725C134.406 141.345 135.971 139.882 137.466 138.36C138.386 137.422 138.485 136.204 137.982 134.993C137.487 133.797 136.563 133.101 135.271 133.022C134.534 132.978 133.763 132.991 133.052 133.165C132.376 133.329 131.72 133.58 131.048 133.837C130.757 133.949 130.463 134.061 130.164 134.168L129.544 133.273C127.95 130.967 126.32 128.611 124.639 126.178H125.374C126.277 126.177 127.18 126.177 128.083 126.177C130.147 126.177 132.211 126.177 134.275 126.163C137.121 126.143 139.322 124.045 139.369 121.206C139.402 119.237 139.316 117.263 139.185 115.298C139.101 114.049 138.388 113.121 137.225 112.629C136.042 112.128 134.847 112.223 133.916 113.119C133.2 113.81 132.602 114.66 132.096 115.523C131.829 115.977 131.668 116.494 131.5 117.03C131.423 117.274 131.346 117.522 131.257 117.769C130.957 117.718 130.656 117.665 130.353 117.612C129.649 117.49 128.938 117.366 128.226 117.248C127.407 117.113 126.736 117.544 126.632 118.254C126.52 119.001 126.979 119.563 127.82 119.707C128.092 119.754 128.365 119.799 128.637 119.845C129.346 119.963 130.055 120.082 130.76 120.221C130.939 120.255 131.226 120.436 131.229 120.559C131.259 121.348 131.256 122.139 131.253 122.945C131.252 123.189 131.251 123.434 131.251 123.681C131.201 123.683 131.147 123.686 131.089 123.689C130.98 123.696 130.861 123.703 130.741 123.703C130.334 123.702 129.927 123.702 129.519 123.701C127.084 123.698 124.649 123.696 122.214 123.685C120.804 123.678 119.395 123.674 117.985 123.669C113.835 123.657 109.685 123.644 105.535 123.577C102.543 123.529 99.9324 121.54 98.9197 118.734C98.8237 118.469 98.7559 118.194 98.6834 117.9C98.6481 117.757 98.6118 117.61 98.5705 117.457H99.362C100.508 117.457 101.654 117.454 102.8 117.451C105.575 117.444 108.35 117.436 111.125 117.471C112.526 117.489 113.926 117.605 115.326 117.722C115.662 117.75 115.997 117.777 116.333 117.804C117.143 117.866 117.784 117.453 117.881 116.718C117.971 116.042 117.463 115.44 116.671 115.336C115.808 115.223 114.944 115.117 114.076 115.058C113.597 115.025 113.364 114.879 113.257 114.364C112.97 112.985 112.624 111.618 112.258 110.258C111.962 109.156 111.656 108.056 111.351 106.956C111.019 105.764 110.688 104.571 110.368 103.376C110.315 103.182 110.425 102.897 110.546 102.712C111.332 101.516 112.124 100.323 112.917 99.1313C113.491 98.2689 114.064 97.4066 114.635 96.5427C117.059 92.8739 115.626 88.4337 111.511 86.858C110.464 86.4574 109.417 86.0583 108.37 85.6592C106.36 84.8929 104.35 84.1266 102.343 83.3501C102.071 83.2459 101.797 83.054 101.609 82.831C99.4626 80.2681 96.0132 79.334 92.88 80.4893C89.809 81.6208 87.7818 84.6004 87.7891 87.9073C87.7909 88.2381 87.641 88.633 87.429 88.8907C86.5423 89.9666 85.644 91.0337 84.7456 92.1008C83.6397 93.4143 82.5338 94.728 81.4496 96.0583C78.7917 99.3176 79.9214 104.036 83.7547 105.77C84.6778 106.187 85.6284 106.555 86.5862 106.884C87.173 107.087 87.3924 107.364 87.3924 108.032C87.3761 114.767 87.374 121.503 87.3719 128.238C87.3705 132.831 87.3691 137.423 87.3631 142.016ZM110.856 114.963C110.671 114.215 110.484 113.477 110.299 112.744C109.884 111.107 109.477 109.501 109.122 107.882C108.604 105.524 107.806 103.308 106.325 101.376C104.93 99.5552 103.307 98.0197 101.122 97.1715C100.673 96.9978 100.3 97.0362 99.8337 97.2154C98.916 97.5682 97.949 97.9173 96.9838 97.9904C96.1722 98.0526 95.7317 98.3597 95.4081 99.0159C95.3259 99.1823 95.2326 99.345 95.1357 99.504C93.8324 101.641 91.2385 102.443 88.9663 101.396C88.4417 101.155 87.9353 100.864 87.4326 100.575C86.4016 99.983 86.2609 99.2883 86.9701 98.3359C87.2852 97.9125 87.6012 97.4901 87.9173 97.0676C88.4704 96.3283 89.0234 95.589 89.5714 94.8445C89.6701 94.7092 89.7944 94.4844 89.7468 94.3655C89.4602 93.6566 89.151 92.9558 88.8369 92.244C88.7323 92.007 88.6271 91.7687 88.5221 91.5285C88.4858 91.5675 88.4489 91.6064 88.4118 91.6453C88.3238 91.7379 88.2352 91.8311 88.1528 91.9288C86.6447 93.7221 85.1367 95.5154 83.6322 97.3104C81.6214 99.7088 82.3636 102.586 85.2811 103.721C86.4917 104.192 87.7018 104.665 88.912 105.137C91.1537 106.012 93.3954 106.887 95.6403 107.754C96.2618 107.993 96.6109 108.392 96.7608 109.039C96.9453 109.833 97.1402 110.624 97.3351 111.416C97.5709 112.373 97.8068 113.331 98.024 114.292C98.1391 114.804 98.3347 114.983 98.8813 114.978C100.745 114.954 102.61 114.957 104.474 114.961C105.14 114.962 105.805 114.963 106.471 114.963H110.856ZM101.607 89.7755C102.022 92.8776 99.501 95.5629 95.9583 95.5556V95.5574C94.2272 95.4514 92.5455 94.5337 91.6534 92.5613C91.0959 91.3256 90.6828 89.9967 90.4122 88.6677C89.8766 86.0427 91.4889 83.5073 94.0499 82.7194C96.5963 81.9352 99.3858 83.1509 100.393 85.6205C100.936 86.9512 101.417 88.3588 101.607 89.7755ZM110.153 98.7908C109.747 99.3994 109.342 100.008 108.937 100.617V100.619C108.426 100.013 107.928 99.4237 107.429 98.8316C107.053 98.3861 106.675 97.9391 106.29 97.4823C106.481 97.2153 106.674 96.9467 106.868 96.6766C107.514 95.7762 108.171 94.8599 108.816 93.936C108.988 93.6892 109.155 93.3967 109.197 93.1061C109.29 92.4718 108.959 92.0458 108.385 91.7899L108.234 91.7227C107.019 91.1802 105.803 90.6371 104.594 90.0789C104.424 90.0003 104.197 89.8559 104.161 89.7024C103.968 88.9121 103.799 88.1166 103.626 87.2962C103.567 87.0198 103.508 86.7405 103.448 86.4577L103.554 86.4976C103.853 86.609 104.155 86.7218 104.457 86.8361C104.98 87.0356 105.504 87.2349 106.028 87.4343C107.573 88.022 109.118 88.61 110.661 89.2051C113.24 90.1996 114.09 92.8264 112.578 95.1333C111.777 96.3568 110.965 97.5738 110.153 98.7908ZM115.444 126.183C117.009 127.991 118.562 129.784 120.11 131.573C122.024 133.783 123.932 135.987 125.851 138.204C126.196 137.881 126.532 137.565 126.863 137.254C127.357 136.79 127.841 136.336 128.326 135.881C127.968 135.363 127.611 134.846 127.255 134.331C125.42 131.677 123.615 129.066 121.793 126.467C121.673 126.295 121.355 126.182 121.126 126.176C119.635 126.146 118.142 126.141 116.65 126.135C116.401 126.134 116.152 126.133 115.903 126.132C115.828 126.132 115.752 126.143 115.642 126.158C115.586 126.165 115.522 126.174 115.444 126.183ZM89.9059 126.134H111.29V128.644H89.9059V126.134ZM89.9059 123.553V108.205C90.1144 108.287 90.3186 108.365 90.5193 108.442C91.0855 108.66 91.6239 108.867 92.1543 109.095C92.2823 109.15 92.4175 109.364 92.4175 109.505C92.4289 113.651 92.4287 117.799 92.4285 121.981C92.4285 122.504 92.4285 123.028 92.4285 123.553H89.9059ZM108.774 141.199V131.203H111.284V141.199H108.774ZM92.3901 131.214V141.213H89.904V131.214H92.3901ZM136.903 120.937C136.94 122.641 135.737 123.73 133.847 123.654V123.652C133.847 123.091 133.841 122.533 133.835 121.979C133.821 120.654 133.807 119.345 133.874 118.04C133.927 116.994 134.474 116.075 135.192 115.289C135.47 114.983 135.766 114.729 136.214 114.894C136.657 115.055 136.741 115.418 136.752 115.844C136.771 116.625 136.797 117.405 136.823 118.185C136.853 119.102 136.884 120.019 136.903 120.937ZM131.818 140.321C130.392 141.65 128.89 141.551 127.573 139.979H127.575C127.949 139.637 128.317 139.292 128.682 138.95C129.523 138.163 130.353 137.386 131.224 136.658C132.198 135.843 133.381 135.453 134.671 135.461C135.097 135.462 135.523 135.486 135.702 135.969C135.872 136.429 135.633 136.746 135.306 137.049C134.627 137.678 133.954 138.312 133.281 138.946C132.794 139.405 132.307 139.864 131.818 140.321ZM99.2176 123.566H94.942V112.581L95.0827 112.554C95.177 112.987 95.2826 113.419 95.3881 113.851C95.6244 114.819 95.8606 115.785 95.9693 116.766C96.2508 119.319 97.1794 121.52 99.0184 123.325C99.053 123.358 99.0829 123.396 99.1285 123.454C99.1527 123.485 99.1814 123.521 99.2176 123.566ZM102.621 95.0638C103.06 94.2083 103.48 93.3894 103.927 92.5229V92.5211C104.137 92.615 104.349 92.7091 104.563 92.8046C105.046 93.0198 105.544 93.2415 106.082 93.4808C105.743 93.9568 105.412 94.4207 105.081 94.8832C104.822 95.2466 104.563 95.6092 104.301 95.976L102.621 95.0638ZM92.141 96.772C92.5517 97.0134 92.9576 97.252 93.379 97.4987V97.5005C92.5071 99.3194 91.2129 99.8312 89.6353 98.9355C90.266 98.0928 90.8893 97.2593 91.5236 96.4092C91.7322 96.5317 91.9372 96.6522 92.141 96.772ZM122.335 116.223C121.642 116.179 121.048 116.716 121.02 117.413C120.995 118.091 121.503 118.659 122.17 118.702C122.85 118.744 123.463 118.195 123.501 117.51C123.538 116.868 122.989 116.263 122.335 116.223Z" fill="#46C622"/>
<defs>
<filter id="filter0_f_0_1" x="0" y="0" width="219" height="223.392" filterUnits="userSpaceOnUse" color-interpolation-filters="sRGB">
<feFlood flood-opacity="0" result="BackgroundImageFix"/>
<feBlend mode="normal" in="SourceGraphic" in2="BackgroundImageFix" result="shape"/>
<feGaussianBlur stdDeviation="38.5" result="effect1_foregroundBlur_0_1"/>
</filter>
</defs>
</svg>
