<svg width="287" height="390" viewBox="0 0 287 390" fill="none" xmlns="http://www.w3.org/2000/svg">
<path d="M75.8301 222.98C75.8301 218.8 72.6701 215.84 68.6901 215.84C64.7501 215.84 61.5301 218.8 61.5301 222.98C61.5301 227.18 64.7501 230.14 68.6901 230.14C72.6501 230.14 75.8301 227.18 75.8301 222.98ZM64.4101 222.98C64.4101 220.14 66.1501 218.36 68.6901 218.36C71.2101 218.36 72.9501 220.14 72.9501 222.98C72.9501 225.82 71.2101 227.64 68.6901 227.64C66.1501 227.64 64.4101 225.82 64.4101 222.98ZM80.7132 220.52V218.92H77.9132V235.28H80.7132V228.42C81.3932 229.32 82.6332 230.18 84.3732 230.18C87.2132 230.18 89.4332 227.88 89.4332 224.42C89.4332 220.96 87.2132 218.74 84.3732 218.74C82.6532 218.74 81.3732 219.58 80.7132 220.52ZM86.5732 224.42C86.5732 226.52 85.1532 227.72 83.6332 227.72C82.1332 227.72 80.7132 226.56 80.7132 224.46C80.7132 222.36 82.1332 221.2 83.6332 221.2C85.1532 221.2 86.5732 222.32 86.5732 224.42ZM96.2279 221.04C97.6679 221.04 98.8279 221.96 98.8679 223.42H93.6079C93.8279 221.9 94.8879 221.04 96.2279 221.04ZM101.488 226.52H98.4679C98.1079 227.26 97.4479 227.86 96.2479 227.86C94.8479 227.86 93.7279 226.94 93.5879 225.3H101.688C101.748 224.94 101.768 224.58 101.768 224.22C101.768 220.92 99.5079 218.74 96.3079 218.74C93.0279 218.74 90.7479 220.96 90.7479 224.46C90.7479 227.94 93.0879 230.18 96.3079 230.18C99.0479 230.18 100.888 228.56 101.488 226.52ZM111.572 230H114.372V223.5C114.372 220.44 112.532 218.76 109.952 218.76C108.532 218.76 107.332 219.36 106.612 220.3V218.92H103.812V230H106.612V223.88C106.612 222.1 107.592 221.14 109.112 221.14C110.592 221.14 111.572 222.1 111.572 223.88V230ZM121.12 223C121.12 227.18 124.18 230.12 128.2 230.12C131.3 230.12 133.82 228.48 134.76 225.6H131.54C130.88 226.96 129.68 227.62 128.18 227.62C125.74 227.62 124 225.82 124 223C124 220.16 125.74 218.38 128.18 218.38C129.68 218.38 130.88 219.04 131.54 220.38H134.76C133.82 217.52 131.3 215.86 128.2 215.86C124.18 215.86 121.12 218.82 121.12 223ZM147.851 224.46C147.851 220.96 145.351 218.74 142.151 218.74C138.951 218.74 136.451 220.96 136.451 224.46C136.451 227.94 138.871 230.18 142.071 230.18C145.291 230.18 147.851 227.94 147.851 224.46ZM139.291 224.46C139.291 222.24 140.631 221.18 142.111 221.18C143.591 221.18 144.971 222.24 144.971 224.46C144.971 226.66 143.551 227.74 142.071 227.74C140.571 227.74 139.291 226.66 139.291 224.46ZM165.405 230H168.205V223.5C168.205 220.44 166.325 218.76 163.665 218.76C162.045 218.76 160.585 219.62 159.865 220.88C159.105 219.5 157.685 218.76 155.965 218.76C154.585 218.76 153.405 219.34 152.705 220.26V218.92H149.905V230H152.705V223.88C152.705 222.12 153.685 221.2 155.205 221.2C156.685 221.2 157.665 222.12 157.665 223.88V230H160.465V223.88C160.465 222.12 161.445 221.2 162.945 221.2C164.425 221.2 165.405 222.12 165.405 223.88V230ZM186.362 230H189.162V223.5C189.162 220.44 187.282 218.76 184.622 218.76C183.002 218.76 181.542 219.62 180.822 220.88C180.062 219.5 178.642 218.76 176.922 218.76C175.542 218.76 174.362 219.34 173.662 220.26V218.92H170.862V230H173.662V223.88C173.662 222.12 174.642 221.2 176.162 221.2C177.642 221.2 178.622 222.12 178.622 223.88V230H181.422V223.88C181.422 222.12 182.402 221.2 183.902 221.2C185.382 221.2 186.362 222.12 186.362 223.88V230ZM202.279 218.92H199.459V225.02C199.459 226.8 198.499 227.76 196.979 227.76C195.499 227.76 194.519 226.8 194.519 225.02V218.92H191.719V225.42C191.719 228.46 193.579 230.14 196.159 230.14C197.539 230.14 198.759 229.54 199.459 228.6V230H202.279V218.92ZM212.802 230H215.602V223.5C215.602 220.44 213.762 218.76 211.182 218.76C209.762 218.76 208.562 219.36 207.842 220.3V218.92H205.042V230H207.842V223.88C207.842 222.1 208.822 221.14 210.342 221.14C211.822 221.14 212.802 222.1 212.802 223.88V230ZM218.265 230H221.065V218.92H218.265V230ZM219.685 217.6C220.665 217.6 221.405 216.88 221.405 215.96C221.405 215.04 220.665 214.32 219.685 214.32C218.685 214.32 217.965 215.04 217.965 215.96C217.965 216.88 218.685 217.6 219.685 217.6ZM224.271 226.56C224.271 229.1 225.691 230 227.811 230H229.571V227.64H228.271C227.391 227.64 227.091 227.32 227.091 226.58V221.22H229.571V218.92H227.091V216.18H224.271V218.92H222.951V221.22H224.271V226.56ZM236.305 226.66L233.445 218.92H230.305L234.745 229.72L232.345 235.24H235.325L242.185 218.92H239.205L236.305 226.66Z" fill="#EDEDED"/>
<path d="M60.688 267.416C60.688 270.76 63.136 273.096 66.256 273.096C68.672 273.096 70.592 271.896 71.424 269.752H69.68C69.072 271.08 67.888 271.832 66.256 271.832C63.92 271.832 62.176 270.136 62.176 267.416C62.176 264.68 63.92 262.984 66.256 262.984C67.888 262.984 69.072 263.736 69.68 265.08H71.424C70.592 262.92 68.672 261.704 66.256 261.704C63.136 261.704 60.688 264.072 60.688 267.416ZM81.9114 268.6C81.9114 265.832 79.9754 264.088 77.4794 264.088C74.9994 264.088 73.0474 265.832 73.0474 268.6C73.0474 271.384 74.9354 273.144 77.4154 273.144C79.9114 273.144 81.9114 271.384 81.9114 268.6ZM74.5354 268.6C74.5354 266.392 75.9274 265.352 77.4634 265.352C78.9674 265.352 80.4234 266.392 80.4234 268.6C80.4234 270.824 78.9354 271.864 77.4154 271.864C75.8954 271.864 74.5354 270.824 74.5354 268.6ZM96.4818 273H97.9218V267.832C97.9218 265.32 96.3698 264.072 94.3698 264.072C93.0258 264.072 91.7778 264.76 91.2658 266.024C90.6898 264.712 89.4898 264.072 88.0498 264.072C86.8978 264.072 85.8578 264.568 85.2818 265.496V264.232H83.8258V273H85.2818V268.168C85.2818 266.28 86.2898 265.336 87.7618 265.336C89.2018 265.336 90.1618 266.248 90.1618 268.04V273H91.6018V268.168C91.6018 266.28 92.6098 265.336 94.0818 265.336C95.5218 265.336 96.4818 266.248 96.4818 268.04V273ZM112.966 273H114.406V267.832C114.406 265.32 112.854 264.072 110.854 264.072C109.51 264.072 108.262 264.76 107.75 266.024C107.174 264.712 105.974 264.072 104.534 264.072C103.382 264.072 102.342 264.568 101.766 265.496V264.232H100.31V273H101.766V268.168C101.766 266.28 102.774 265.336 104.246 265.336C105.686 265.336 106.646 266.248 106.646 268.04V273H108.086V268.168C108.086 266.28 109.094 265.336 110.566 265.336C112.006 265.336 112.966 266.248 112.966 268.04V273ZM124.571 264.232H123.115V269.048C123.115 270.936 122.107 271.864 120.603 271.864C119.131 271.864 118.155 270.952 118.155 269.176V264.232H116.715V269.368C116.715 271.88 118.299 273.128 120.315 273.128C121.483 273.128 122.555 272.616 123.115 271.704V273H124.571V264.232ZM133.445 273H134.885V267.832C134.885 265.32 133.333 264.072 131.301 264.072C130.117 264.072 129.061 264.568 128.485 265.48V264.232H127.029V273H128.485V268.152C128.485 266.264 129.509 265.336 130.997 265.336C132.469 265.336 133.445 266.248 133.445 268.04V273ZM137.263 273H138.719V264.232H137.263V273ZM138.015 262.808C138.543 262.808 138.975 262.376 138.975 261.816C138.975 261.256 138.543 260.824 138.015 260.824C137.455 260.824 137.023 261.256 137.023 261.816C137.023 262.376 137.455 262.808 138.015 262.808ZM141.521 270.6C141.521 272.36 142.401 273 143.953 273H145.265V271.768H144.193C143.297 271.768 142.977 271.464 142.977 270.6V265.432H145.265V264.232H142.977V262.024H141.521V264.232H140.385V265.432H141.521V270.6ZM147.029 273H148.485V264.232H147.029V273ZM147.781 262.808C148.309 262.808 148.741 262.376 148.741 261.816C148.741 261.256 148.309 260.824 147.781 260.824C147.221 260.824 146.789 261.256 146.789 261.816C146.789 262.376 147.221 262.808 147.781 262.808ZM154.694 265.32C156.198 265.32 157.478 266.264 157.462 267.976H151.926C152.086 266.264 153.27 265.32 154.694 265.32ZM158.79 270.296H157.222C156.902 271.24 156.07 271.912 154.758 271.912C153.27 271.912 152.022 270.936 151.91 269.16H158.918C158.95 268.856 158.966 268.6 158.966 268.28C158.966 265.88 157.302 264.088 154.758 264.088C152.198 264.088 150.422 265.832 150.422 268.6C150.422 271.384 152.262 273.144 154.758 273.144C156.934 273.144 158.342 271.896 158.79 270.296ZM167.192 270.616C167.128 267.48 162.04 268.616 162.04 266.536C162.04 265.832 162.68 265.32 163.752 265.32C164.92 265.32 165.592 265.96 165.656 266.84H167.112C167.016 265.128 165.736 264.088 163.8 264.088C161.848 264.088 160.584 265.192 160.584 266.536C160.584 269.8 165.768 268.664 165.768 270.616C165.768 271.336 165.128 271.912 163.976 271.912C162.744 271.912 161.992 271.272 161.912 270.424H160.408C160.504 272.024 161.944 273.144 163.992 273.144C165.928 273.144 167.192 272.056 167.192 270.616ZM172.969 268.584C172.969 271.304 174.777 273.144 177.113 273.144C178.729 273.144 179.865 272.312 180.393 271.368V273H181.865V264.232H180.393V265.832C179.881 264.92 178.761 264.088 177.129 264.088C174.777 264.088 172.969 265.848 172.969 268.584ZM180.393 268.6C180.393 270.664 179.017 271.864 177.417 271.864C175.817 271.864 174.457 270.648 174.457 268.584C174.457 266.52 175.817 265.352 177.417 265.352C179.017 265.352 180.393 266.568 180.393 268.6ZM185.782 268.232C185.782 266.2 186.838 265.576 188.23 265.576H188.614V264.072C187.222 264.072 186.278 264.68 185.782 265.656V264.232H184.326V273H185.782V268.232ZM194.023 265.32C195.527 265.32 196.807 266.264 196.791 267.976H191.255C191.414 266.264 192.599 265.32 194.023 265.32ZM198.119 270.296H196.551C196.231 271.24 195.399 271.912 194.087 271.912C192.599 271.912 191.351 270.936 191.239 269.16H198.247C198.279 268.856 198.295 268.6 198.295 268.28C198.295 265.88 196.631 264.088 194.087 264.088C191.527 264.088 189.751 265.832 189.751 268.6C189.751 271.384 191.591 273.144 194.087 273.144C196.263 273.144 197.671 271.896 198.119 270.296ZM204.802 270.6C204.802 272.36 205.682 273 207.234 273H208.546V271.768H207.474C206.578 271.768 206.258 271.464 206.258 270.6V265.432H208.546V264.232H206.258V262.024H204.802V264.232H203.666V265.432H204.802V270.6ZM210.31 273H211.766V268.152C211.766 266.264 212.79 265.336 214.278 265.336C215.75 265.336 216.726 266.248 216.726 268.04V273H218.166V267.832C218.166 265.32 216.614 264.072 214.662 264.072C213.43 264.072 212.342 264.568 211.766 265.496V261.16H210.31V273ZM224.273 265.32C225.777 265.32 227.057 266.264 227.041 267.976H221.505C221.664 266.264 222.849 265.32 224.273 265.32ZM228.369 270.296H226.801C226.481 271.24 225.649 271.912 224.337 271.912C222.849 271.912 221.601 270.936 221.489 269.16H228.497C228.529 268.856 228.545 268.6 228.545 268.28C228.545 265.88 226.881 264.088 224.337 264.088C221.777 264.088 220.001 265.832 220.001 268.6C220.001 271.384 221.841 273.144 224.337 273.144C226.513 273.144 227.921 271.896 228.369 270.296ZM234.732 273H236.188V269.128L239.628 273H241.612L237.468 268.6L241.596 264.232H239.564L236.188 268.12V261.16H234.732V273ZM246.694 265.32C248.198 265.32 249.478 266.264 249.462 267.976H243.926C244.086 266.264 245.27 265.32 246.694 265.32ZM250.79 270.296H249.222C248.902 271.24 248.07 271.912 246.758 271.912C245.27 271.912 244.022 270.936 243.91 269.16H250.918C250.95 268.856 250.966 268.6 250.966 268.28C250.966 265.88 249.302 264.088 246.758 264.088C244.198 264.088 242.422 265.832 242.422 268.6C242.422 271.384 244.262 273.144 246.758 273.144C248.934 273.144 250.342 271.896 250.79 270.296ZM256.216 271.336L253.464 264.232H251.848L255.384 272.904L253.656 277.128H255.16L260.44 264.232H258.936L256.216 271.336ZM266.49 270.6C266.49 272.36 267.37 273 268.922 273H270.234V271.768H269.161C268.266 271.768 267.946 271.464 267.946 270.6V265.432H270.234V264.232H267.946V262.024H266.49V264.232H265.354V265.432H266.49V270.6ZM280.318 268.6C280.318 265.832 278.382 264.088 275.886 264.088C273.406 264.088 271.454 265.832 271.454 268.6C271.454 271.384 273.342 273.144 275.822 273.144C278.318 273.144 280.318 271.384 280.318 268.6ZM272.942 268.6C272.942 266.392 274.334 265.352 275.87 265.352C277.374 265.352 278.83 266.392 278.83 268.6C278.83 270.824 277.342 271.864 275.822 271.864C274.302 271.864 272.942 270.824 272.942 268.6ZM69.552 296.6C69.552 293.832 67.616 292.088 65.12 292.088C62.64 292.088 60.688 293.832 60.688 296.6C60.688 299.384 62.576 301.144 65.056 301.144C67.552 301.144 69.552 299.384 69.552 296.6ZM62.176 296.6C62.176 294.392 63.568 293.352 65.104 293.352C66.608 293.352 68.064 294.392 68.064 296.6C68.064 298.824 66.576 299.864 65.056 299.864C63.536 299.864 62.176 298.824 62.176 296.6ZM79.2424 292.232H77.7864V297.048C77.7864 298.936 76.7784 299.864 75.2744 299.864C73.8024 299.864 72.8264 298.952 72.8264 297.176V292.232H71.3864V297.368C71.3864 299.88 72.9704 301.128 74.9864 301.128C76.1544 301.128 77.2264 300.616 77.7864 299.704V301H79.2424V292.232ZM83.1568 296.232C83.1568 294.2 84.2128 293.576 85.6048 293.576H85.9888V292.072C84.5968 292.072 83.6528 292.68 83.1568 293.656V292.232H81.7008V301H83.1568V296.232ZM91.3911 296.6C91.3911 299.384 93.1671 301.144 95.6631 301.144C97.8391 301.144 99.2631 299.928 99.7111 298.184H98.1431C97.8231 299.288 96.9591 299.912 95.6631 299.912C94.0631 299.912 92.8791 298.776 92.8791 296.6C92.8791 294.456 94.0631 293.32 95.6631 293.32C96.9591 293.32 97.8391 293.992 98.1431 295.048H99.7111C99.2631 293.208 97.8391 292.088 95.6631 292.088C93.1671 292.088 91.3911 293.848 91.3911 296.6ZM109.974 296.6C109.974 293.832 108.038 292.088 105.542 292.088C103.062 292.088 101.11 293.832 101.11 296.6C101.11 299.384 102.998 301.144 105.478 301.144C107.974 301.144 109.974 299.384 109.974 296.6ZM102.598 296.6C102.598 294.392 103.99 293.352 105.526 293.352C107.03 293.352 108.486 294.392 108.486 296.6C108.486 298.824 106.998 299.864 105.478 299.864C103.958 299.864 102.598 298.824 102.598 296.6ZM113.344 296.232C113.344 294.2 114.4 293.576 115.792 293.576H116.176V292.072C114.784 292.072 113.84 292.68 113.344 293.656V292.232H111.888V301H113.344V296.232ZM121.585 293.32C123.089 293.32 124.369 294.264 124.353 295.976H118.817C118.977 294.264 120.161 293.32 121.585 293.32ZM125.681 298.296H124.113C123.793 299.24 122.961 299.912 121.649 299.912C120.161 299.912 118.913 298.936 118.801 297.16H125.809C125.841 296.856 125.857 296.6 125.857 296.28C125.857 293.88 124.193 292.088 121.649 292.088C119.089 292.088 117.313 293.832 117.313 296.6C117.313 299.384 119.153 301.144 121.649 301.144C123.825 301.144 125.233 299.896 125.681 298.296ZM129.203 300.104C129.203 299.544 128.771 299.112 128.243 299.112C127.683 299.112 127.251 299.544 127.251 300.104C127.251 300.664 127.683 301.096 128.243 301.096C128.771 301.096 129.203 300.664 129.203 300.104ZM137.66 301.016L139.276 301L141.964 292.024L144.556 301H146.188L149.42 289.848H147.852L145.404 299.272L142.844 289.848H141.212L138.524 299.304L136.092 289.848H134.54L137.66 301.016ZM154.741 293.32C156.245 293.32 157.525 294.264 157.509 295.976H151.973C152.133 294.264 153.317 293.32 154.741 293.32ZM158.837 298.296H157.269C156.949 299.24 156.117 299.912 154.805 299.912C153.317 299.912 152.069 298.936 151.957 297.16H158.965C158.997 296.856 159.013 296.6 159.013 296.28C159.013 293.88 157.349 292.088 154.805 292.088C152.245 292.088 150.469 293.832 150.469 296.6C150.469 299.384 152.309 301.144 154.805 301.144C156.981 301.144 158.389 299.896 158.837 298.296ZM166.657 293.848V292.232H165.201V305.16H166.657V299.384C167.201 300.28 168.337 301.144 169.937 301.144C172.289 301.144 174.097 299.304 174.097 296.584C174.097 293.848 172.289 292.088 169.937 292.088C168.337 292.088 167.185 292.92 166.657 293.848ZM172.609 296.584C172.609 298.648 171.249 299.864 169.633 299.864C168.049 299.864 166.657 298.664 166.657 296.6C166.657 294.568 168.049 293.352 169.633 293.352C171.249 293.352 172.609 294.52 172.609 296.584ZM177.469 296.232C177.469 294.2 178.525 293.576 179.917 293.576H180.301V292.072C178.909 292.072 177.965 292.68 177.469 293.656V292.232H176.013V301H177.469V296.232ZM190.302 296.6C190.302 293.832 188.366 292.088 185.87 292.088C183.39 292.088 181.438 293.832 181.438 296.6C181.438 299.384 183.326 301.144 185.806 301.144C188.302 301.144 190.302 299.384 190.302 296.6ZM182.926 296.6C182.926 294.392 184.318 293.352 185.854 293.352C187.358 293.352 188.814 294.392 188.814 296.6C188.814 298.824 187.326 299.864 185.806 299.864C184.286 299.864 182.926 298.824 182.926 296.6ZM191.176 292.232L194.616 301H196.312L199.752 292.232H198.2L195.48 299.656L192.744 292.232H191.176ZM201.185 301H202.641V292.232H201.185V301ZM201.937 290.808C202.465 290.808 202.897 290.376 202.897 289.816C202.897 289.256 202.465 288.824 201.937 288.824C201.377 288.824 200.945 289.256 200.945 289.816C200.945 290.376 201.377 290.808 201.937 290.808ZM204.579 296.584C204.579 299.304 206.387 301.144 208.739 301.144C210.339 301.144 211.475 300.328 212.003 299.352V301H213.475V289.16H212.003V293.8C211.395 292.792 210.131 292.088 208.755 292.088C206.387 292.088 204.579 293.848 204.579 296.584ZM212.003 296.6C212.003 298.664 210.627 299.864 209.027 299.864C207.427 299.864 206.067 298.648 206.067 296.584C206.067 294.52 207.427 293.352 209.027 293.352C210.627 293.352 212.003 294.568 212.003 296.6ZM219.663 293.32C221.167 293.32 222.447 294.264 222.431 295.976H216.895C217.055 294.264 218.239 293.32 219.663 293.32ZM223.759 298.296H222.191C221.871 299.24 221.039 299.912 219.727 299.912C218.239 299.912 216.991 298.936 216.879 297.16H223.887C223.919 296.856 223.935 296.6 223.935 296.28C223.935 293.88 222.271 292.088 219.727 292.088C217.167 292.088 215.391 293.832 215.391 296.6C215.391 299.384 217.231 301.144 219.727 301.144C221.903 301.144 223.311 299.896 223.759 298.296ZM229.579 296.584C229.579 299.304 231.387 301.144 233.723 301.144C235.339 301.144 236.475 300.312 237.003 299.368V301H238.475V292.232H237.003V293.832C236.491 292.92 235.371 292.088 233.739 292.088C231.387 292.088 229.579 293.848 229.579 296.584ZM237.003 296.6C237.003 298.664 235.627 299.864 234.027 299.864C232.427 299.864 231.067 298.648 231.067 296.584C231.067 294.52 232.427 293.352 234.027 293.352C235.627 293.352 237.003 294.568 237.003 296.6ZM240.391 296.6C240.391 299.384 242.167 301.144 244.663 301.144C246.839 301.144 248.263 299.928 248.711 298.184H247.143C246.823 299.288 245.959 299.912 244.663 299.912C243.063 299.912 241.879 298.776 241.879 296.6C241.879 294.456 243.063 293.32 244.663 293.32C245.959 293.32 246.839 293.992 247.143 295.048H248.711C248.263 293.208 246.839 292.088 244.663 292.088C242.167 292.088 240.391 293.848 240.391 296.6ZM250.11 296.6C250.11 299.384 251.886 301.144 254.382 301.144C256.558 301.144 257.982 299.928 258.43 298.184H256.862C256.542 299.288 255.678 299.912 254.382 299.912C252.782 299.912 251.598 298.776 251.598 296.6C251.598 294.456 252.782 293.32 254.382 293.32C255.678 293.32 256.558 293.992 256.862 295.048H258.43C257.982 293.208 256.558 292.088 254.382 292.088C251.886 292.088 250.11 293.848 250.11 296.6ZM264.101 293.32C265.605 293.32 266.885 294.264 266.869 295.976H261.333C261.493 294.264 262.677 293.32 264.101 293.32ZM268.197 298.296H266.629C266.309 299.24 265.477 299.912 264.165 299.912C262.677 299.912 261.429 298.936 261.317 297.16H268.325C268.357 296.856 268.373 296.6 268.373 296.28C268.373 293.88 266.709 292.088 264.165 292.088C261.605 292.088 259.829 293.832 259.829 296.6C259.829 299.384 261.669 301.144 264.165 301.144C266.341 301.144 267.749 299.896 268.197 298.296ZM276.599 298.616C276.535 295.48 271.447 296.616 271.447 294.536C271.447 293.832 272.087 293.32 273.159 293.32C274.327 293.32 274.999 293.96 275.063 294.84H276.519C276.423 293.128 275.143 292.088 273.207 292.088C271.255 292.088 269.991 293.192 269.991 294.536C269.991 297.8 275.175 296.664 275.175 298.616C275.175 299.336 274.535 299.912 273.383 299.912C272.151 299.912 271.399 299.272 271.319 298.424H269.815C269.911 300.024 271.351 301.144 273.399 301.144C275.335 301.144 276.599 300.056 276.599 298.616ZM284.958 298.616C284.894 295.48 279.806 296.616 279.806 294.536C279.806 293.832 280.446 293.32 281.518 293.32C282.686 293.32 283.358 293.96 283.422 294.84H284.878C284.782 293.128 283.502 292.088 281.566 292.088C279.614 292.088 278.35 293.192 278.35 294.536C278.35 297.8 283.534 296.664 283.534 298.616C283.534 299.336 282.894 299.912 281.742 299.912C280.51 299.912 279.758 299.272 279.678 298.424H278.174C278.27 300.024 279.71 301.144 281.758 301.144C283.694 301.144 284.958 300.056 284.958 298.616ZM61.504 329H62.96V321.432H64.8V320.232H62.96V319.608C62.96 318.472 63.392 317.992 64.704 317.992V316.776C62.464 316.776 61.504 317.656 61.504 319.608V320.232H60.368V321.432H61.504V329ZM74.8176 324.6C74.8176 321.832 72.8816 320.088 70.3856 320.088C67.9056 320.088 65.9536 321.832 65.9536 324.6C65.9536 327.384 67.8416 329.144 70.3216 329.144C72.8176 329.144 74.8176 327.384 74.8176 324.6ZM67.4416 324.6C67.4416 322.392 68.8336 321.352 70.3696 321.352C71.8736 321.352 73.3296 322.392 73.3296 324.6C73.3296 326.824 71.8416 327.864 70.3216 327.864C68.8016 327.864 67.4416 326.824 67.4416 324.6ZM78.188 324.232C78.188 322.2 79.244 321.576 80.636 321.576H81.02V320.072C79.628 320.072 78.684 320.68 78.188 321.656V320.232H76.732V329H78.188V324.232ZM86.4224 324.6C86.4224 327.384 88.1984 329.144 90.6944 329.144C92.8704 329.144 94.2944 327.928 94.7424 326.184H93.1744C92.8544 327.288 91.9904 327.912 90.6944 327.912C89.0944 327.912 87.9104 326.776 87.9104 324.6C87.9104 322.456 89.0944 321.32 90.6944 321.32C91.9904 321.32 92.8704 321.992 93.1744 323.048H94.7424C94.2944 321.208 92.8704 320.088 90.6944 320.088C88.1984 320.088 86.4224 321.848 86.4224 324.6ZM105.005 324.6C105.005 321.832 103.069 320.088 100.573 320.088C98.0931 320.088 96.1411 321.832 96.1411 324.6C96.1411 327.384 98.0291 329.144 100.509 329.144C103.005 329.144 105.005 327.384 105.005 324.6ZM97.6291 324.6C97.6291 322.392 99.0211 321.352 100.557 321.352C102.061 321.352 103.517 322.392 103.517 324.6C103.517 326.824 102.029 327.864 100.509 327.864C98.9891 327.864 97.6291 326.824 97.6291 324.6ZM106.92 329H108.376V317.16H106.92V329ZM110.857 329H112.313V317.16H110.857V329ZM114.251 324.584C114.251 327.304 116.059 329.144 118.395 329.144C120.011 329.144 121.147 328.312 121.675 327.368V329H123.147V320.232H121.675V321.832C121.163 320.92 120.043 320.088 118.411 320.088C116.059 320.088 114.251 321.848 114.251 324.584ZM121.675 324.6C121.675 326.664 120.299 327.864 118.699 327.864C117.099 327.864 115.739 326.648 115.739 324.584C115.739 322.52 117.099 321.352 118.699 321.352C120.299 321.352 121.675 322.568 121.675 324.6ZM127.063 321.864V317.16H125.607V329H127.063V327.384C127.607 328.344 128.743 329.144 130.343 329.144C132.695 329.144 134.503 327.304 134.503 324.584C134.503 321.848 132.711 320.088 130.343 320.088C128.791 320.088 127.623 320.888 127.063 321.864ZM133.015 324.584C133.015 326.648 131.655 327.864 130.039 327.864C128.455 327.864 127.063 326.664 127.063 324.6C127.063 322.568 128.455 321.352 130.039 321.352C131.655 321.352 133.015 322.52 133.015 324.584ZM144.74 324.6C144.74 321.832 142.804 320.088 140.308 320.088C137.828 320.088 135.876 321.832 135.876 324.6C135.876 327.384 137.764 329.144 140.244 329.144C142.74 329.144 144.74 327.384 144.74 324.6ZM137.364 324.6C137.364 322.392 138.756 321.352 140.292 321.352C141.796 321.352 143.252 322.392 143.252 324.6C143.252 326.824 141.764 327.864 140.244 327.864C138.724 327.864 137.364 326.824 137.364 324.6ZM148.11 324.232C148.11 322.2 149.166 321.576 150.558 321.576H150.942V320.072C149.55 320.072 148.606 320.68 148.11 321.656V320.232H146.654V329H148.11V324.232ZM152.079 324.584C152.079 327.304 153.887 329.144 156.223 329.144C157.839 329.144 158.975 328.312 159.503 327.368V329H160.975V320.232H159.503V321.832C158.991 320.92 157.871 320.088 156.239 320.088C153.887 320.088 152.079 321.848 152.079 324.584ZM159.503 324.6C159.503 326.664 158.127 327.864 156.527 327.864C154.927 327.864 153.567 326.648 153.567 324.584C153.567 322.52 154.927 321.352 156.527 321.352C158.127 321.352 159.503 322.568 159.503 324.6ZM163.755 326.6C163.755 328.36 164.635 329 166.187 329H167.499V327.768H166.427C165.531 327.768 165.211 327.464 165.211 326.6V321.432H167.499V320.232H165.211V318.024H163.755V320.232H162.619V321.432H163.755V326.6ZM169.263 329H170.719V320.232H169.263V329ZM170.015 318.808C170.543 318.808 170.975 318.376 170.975 317.816C170.975 317.256 170.543 316.824 170.015 316.824C169.455 316.824 169.023 317.256 169.023 317.816C169.023 318.376 169.455 318.808 170.015 318.808ZM181.521 324.6C181.521 321.832 179.585 320.088 177.089 320.088C174.609 320.088 172.657 321.832 172.657 324.6C172.657 327.384 174.545 329.144 177.025 329.144C179.521 329.144 181.521 327.384 181.521 324.6ZM174.145 324.6C174.145 322.392 175.537 321.352 177.073 321.352C178.577 321.352 180.033 322.392 180.033 324.6C180.033 326.824 178.545 327.864 177.025 327.864C175.505 327.864 174.145 326.824 174.145 324.6ZM189.851 329H191.291V323.832C191.291 321.32 189.739 320.072 187.707 320.072C186.523 320.072 185.467 320.568 184.891 321.48V320.232H183.435V329H184.891V324.152C184.891 322.264 185.915 321.336 187.403 321.336C188.875 321.336 189.851 322.248 189.851 324.04V329ZM198.255 326.6C198.255 328.36 199.135 329 200.687 329H201.999V327.768H200.927C200.031 327.768 199.711 327.464 199.711 326.6V321.432H201.999V320.232H199.711V318.024H198.255V320.232H197.119V321.432H198.255V326.6ZM212.083 324.6C212.083 321.832 210.147 320.088 207.651 320.088C205.171 320.088 203.219 321.832 203.219 324.6C203.219 327.384 205.107 329.144 207.587 329.144C210.083 329.144 212.083 327.384 212.083 324.6ZM204.707 324.6C204.707 322.392 206.099 321.352 207.635 321.352C209.139 321.352 210.595 322.392 210.595 324.6C210.595 326.824 209.107 327.864 207.587 327.864C206.067 327.864 204.707 326.824 204.707 324.6ZM224.567 326.616C224.503 323.48 219.415 324.616 219.415 322.536C219.415 321.832 220.055 321.32 221.127 321.32C222.295 321.32 222.967 321.96 223.031 322.84H224.487C224.391 321.128 223.111 320.088 221.175 320.088C219.223 320.088 217.959 321.192 217.959 322.536C217.959 325.8 223.143 324.664 223.143 326.616C223.143 327.336 222.503 327.912 221.351 327.912C220.119 327.912 219.367 327.272 219.287 326.424H217.783C217.879 328.024 219.319 329.144 221.367 329.144C223.303 329.144 224.567 328.056 224.567 326.616ZM226.623 329H228.079V324.152C228.079 322.264 229.103 321.336 230.591 321.336C232.063 321.336 233.039 322.248 233.039 324.04V329H234.479V323.832C234.479 321.32 232.927 320.072 230.975 320.072C229.743 320.072 228.655 320.568 228.079 321.496V317.16H226.623V329ZM236.313 324.584C236.313 327.304 238.121 329.144 240.457 329.144C242.073 329.144 243.209 328.312 243.737 327.368V329H245.209V320.232H243.737V321.832C243.225 320.92 242.105 320.088 240.473 320.088C238.121 320.088 236.313 321.848 236.313 324.584ZM243.737 324.6C243.737 326.664 242.361 327.864 240.761 327.864C239.161 327.864 237.801 326.648 237.801 324.584C237.801 322.52 239.161 321.352 240.761 321.352C242.361 321.352 243.737 322.568 243.737 324.6ZM249.126 324.232C249.126 322.2 250.182 321.576 251.574 321.576H251.958V320.072C250.566 320.072 249.622 320.68 249.126 321.656V320.232H247.67V329H249.126V324.232ZM257.366 321.32C258.87 321.32 260.15 322.264 260.134 323.976H254.598C254.758 322.264 255.942 321.32 257.366 321.32ZM261.462 326.296H259.894C259.574 327.24 258.742 327.912 257.43 327.912C255.942 327.912 254.694 326.936 254.582 325.16H261.59C261.622 324.856 261.638 324.6 261.638 324.28C261.638 321.88 259.974 320.088 257.43 320.088C254.87 320.088 253.094 321.832 253.094 324.6C253.094 327.384 254.934 329.144 257.43 329.144C259.606 329.144 261.014 327.896 261.462 326.296ZM62.688 352.232C62.688 350.2 63.744 349.576 65.136 349.576H65.52V348.072C64.128 348.072 63.184 348.68 62.688 349.656V348.232H61.232V357H62.688V352.232ZM70.9288 349.32C72.4328 349.32 73.7128 350.264 73.6968 351.976H68.1608C68.3207 350.264 69.5048 349.32 70.9288 349.32ZM75.0248 354.296H73.4568C73.1368 355.24 72.3048 355.912 70.9928 355.912C69.5048 355.912 68.2568 354.936 68.1448 353.16H75.1528C75.1848 352.856 75.2008 352.6 75.2008 352.28C75.2008 349.88 73.5368 348.088 70.9928 348.088C68.4328 348.088 66.6568 349.832 66.6568 352.6C66.6568 355.384 68.4968 357.144 70.9928 357.144C73.1688 357.144 74.5768 355.896 75.0248 354.296ZM83.4266 354.616C83.3626 351.48 78.2746 352.616 78.2746 350.536C78.2746 349.832 78.9146 349.32 79.9866 349.32C81.1546 349.32 81.8266 349.96 81.8906 350.84H83.3466C83.2506 349.128 81.9706 348.088 80.0346 348.088C78.0826 348.088 76.8186 349.192 76.8186 350.536C76.8186 353.8 82.0026 352.664 82.0026 354.616C82.0026 355.336 81.3626 355.912 80.2106 355.912C78.9786 355.912 78.2266 355.272 78.1466 354.424H76.6426C76.7386 356.024 78.1786 357.144 80.2266 357.144C82.1626 357.144 83.4266 356.056 83.4266 354.616ZM93.802 352.6C93.802 349.832 91.866 348.088 89.37 348.088C86.89 348.088 84.938 349.832 84.938 352.6C84.938 355.384 86.826 357.144 89.306 357.144C91.802 357.144 93.802 355.384 93.802 352.6ZM86.426 352.6C86.426 350.392 87.818 349.352 89.354 349.352C90.858 349.352 92.314 350.392 92.314 352.6C92.314 354.824 90.826 355.864 89.306 355.864C87.786 355.864 86.426 354.824 86.426 352.6ZM103.492 348.232H102.036V353.048C102.036 354.936 101.028 355.864 99.5244 355.864C98.0524 355.864 97.0764 354.952 97.0764 353.176V348.232H95.6364V353.368C95.6364 355.88 97.2204 357.128 99.2364 357.128C100.404 357.128 101.476 356.616 102.036 355.704V357H103.492V348.232ZM107.407 352.232C107.407 350.2 108.463 349.576 109.855 349.576H110.239V348.072C108.847 348.072 107.903 348.68 107.407 349.656V348.232H105.951V357H107.407V352.232ZM111.376 352.6C111.376 355.384 113.152 357.144 115.648 357.144C117.824 357.144 119.248 355.928 119.696 354.184H118.128C117.808 355.288 116.944 355.912 115.648 355.912C114.048 355.912 112.864 354.776 112.864 352.6C112.864 350.456 114.048 349.32 115.648 349.32C116.944 349.32 117.824 349.992 118.128 351.048H119.696C119.248 349.208 117.824 348.088 115.648 348.088C113.152 348.088 111.376 349.848 111.376 352.6ZM125.366 349.32C126.87 349.32 128.15 350.264 128.134 351.976H122.598C122.758 350.264 123.942 349.32 125.366 349.32ZM129.462 354.296H127.894C127.574 355.24 126.742 355.912 125.43 355.912C123.942 355.912 122.694 354.936 122.582 353.16H129.59C129.622 352.856 129.638 352.6 129.638 352.28C129.638 349.88 127.974 348.088 125.43 348.088C122.87 348.088 121.094 349.832 121.094 352.6C121.094 355.384 122.934 357.144 125.43 357.144C127.606 357.144 129.014 355.896 129.462 354.296ZM137.864 354.616C137.8 351.48 132.712 352.616 132.712 350.536C132.712 349.832 133.352 349.32 134.424 349.32C135.592 349.32 136.264 349.96 136.328 350.84H137.784C137.688 349.128 136.408 348.088 134.472 348.088C132.52 348.088 131.256 349.192 131.256 350.536C131.256 353.8 136.44 352.664 136.44 354.616C136.44 355.336 135.8 355.912 134.648 355.912C133.416 355.912 132.664 355.272 132.584 354.424H131.08C131.176 356.024 132.616 357.144 134.664 357.144C136.6 357.144 137.864 356.056 137.864 354.616ZM143.641 352.584C143.641 355.304 145.449 357.144 147.785 357.144C149.401 357.144 150.537 356.312 151.065 355.368V357H152.537V348.232H151.065V349.832C150.553 348.92 149.433 348.088 147.801 348.088C145.449 348.088 143.641 349.848 143.641 352.584ZM151.065 352.6C151.065 354.664 149.689 355.864 148.089 355.864C146.489 355.864 145.129 354.648 145.129 352.584C145.129 350.52 146.489 349.352 148.089 349.352C149.689 349.352 151.065 350.568 151.065 352.6ZM161.414 357H162.854V351.832C162.854 349.32 161.302 348.072 159.27 348.072C158.086 348.072 157.03 348.568 156.454 349.48V348.232H154.998V357H156.454V352.152C156.454 350.264 157.478 349.336 158.966 349.336C160.438 349.336 161.414 350.248 161.414 352.04V357ZM164.688 352.584C164.688 355.304 166.496 357.144 168.848 357.144C170.448 357.144 171.584 356.328 172.112 355.352V357H173.584V345.16H172.112V349.8C171.504 348.792 170.24 348.088 168.864 348.088C166.496 348.088 164.688 349.848 164.688 352.584ZM172.112 352.6C172.112 354.664 170.736 355.864 169.136 355.864C167.536 355.864 166.176 354.648 166.176 352.584C166.176 350.52 167.536 349.352 169.136 349.352C170.736 349.352 172.112 350.568 172.112 352.6ZM180.63 354.6C180.63 356.36 181.51 357 183.062 357H184.374V355.768H183.302C182.406 355.768 182.086 355.464 182.086 354.6V349.432H184.374V348.232H182.086V346.024H180.63V348.232H179.494V349.432H180.63V354.6ZM185.594 352.584C185.594 355.304 187.402 357.144 189.738 357.144C191.354 357.144 192.49 356.312 193.018 355.368V357H194.49V348.232H193.018V349.832C192.506 348.92 191.386 348.088 189.754 348.088C187.402 348.088 185.594 349.848 185.594 352.584ZM193.018 352.6C193.018 354.664 191.642 355.864 190.042 355.864C188.442 355.864 187.082 354.648 187.082 352.584C187.082 350.52 188.442 349.352 190.042 349.352C191.642 349.352 193.018 350.568 193.018 352.6ZM196.951 357H198.407V345.16H196.951V357ZM204.616 349.32C206.12 349.32 207.4 350.264 207.384 351.976H201.848C202.008 350.264 203.192 349.32 204.616 349.32ZM208.712 354.296H207.144C206.824 355.24 205.992 355.912 204.68 355.912C203.192 355.912 201.944 354.936 201.832 353.16H208.84C208.872 352.856 208.888 352.6 208.888 352.28C208.888 349.88 207.224 348.088 204.68 348.088C202.12 348.088 200.344 349.832 200.344 352.6C200.344 355.384 202.184 357.144 204.68 357.144C206.856 357.144 208.264 355.896 208.712 354.296ZM217.226 357H218.666V351.832C218.666 349.32 217.114 348.072 215.082 348.072C213.898 348.072 212.842 348.568 212.266 349.48V348.232H210.81V357H212.266V352.152C212.266 350.264 213.29 349.336 214.778 349.336C216.25 349.336 217.226 350.248 217.226 352.04V357ZM221.365 354.6C221.365 356.36 222.245 357 223.797 357H225.109V355.768H224.036C223.141 355.768 222.821 355.464 222.821 354.6V349.432H225.109V348.232H222.821V346.024H221.365V348.232H220.229V349.432H221.365V354.6ZM233.177 354.616C233.113 351.48 228.025 352.616 228.025 350.536C228.025 349.832 228.665 349.32 229.737 349.32C230.905 349.32 231.577 349.96 231.641 350.84H233.097C233.001 349.128 231.721 348.088 229.785 348.088C227.833 348.088 226.569 349.192 226.569 350.536C226.569 353.8 231.753 352.664 231.753 354.616C231.753 355.336 231.113 355.912 229.961 355.912C228.729 355.912 227.977 355.272 227.897 354.424H226.393C226.489 356.024 227.929 357.144 229.977 357.144C231.913 357.144 233.177 356.056 233.177 354.616ZM61.232 385H62.688V376.232H61.232V385ZM61.984 374.808C62.512 374.808 62.944 374.376 62.944 373.816C62.944 373.256 62.512 372.824 61.984 372.824C61.424 372.824 60.992 373.256 60.992 373.816C60.992 374.376 61.424 374.808 61.984 374.808ZM71.5855 385H73.0255V379.832C73.0255 377.32 71.4735 376.072 69.4415 376.072C68.2575 376.072 67.2015 376.568 66.6255 377.48V376.232H65.1695V385H66.6255V380.152C66.6255 378.264 67.6495 377.336 69.1375 377.336C70.6095 377.336 71.5855 378.248 71.5855 380.04V385ZM75.7239 382.6C75.7239 384.36 76.6039 385 78.1559 385H79.4679V383.768H78.3959C77.4999 383.768 77.1799 383.464 77.1799 382.6V377.432H79.4679V376.232H77.1799V374.024H75.7239V376.232H74.5879V377.432H75.7239V382.6ZM84.96 377.32C86.464 377.32 87.744 378.264 87.728 379.976H82.192C82.352 378.264 83.536 377.32 84.96 377.32ZM89.056 382.296H87.488C87.168 383.24 86.336 383.912 85.024 383.912C83.536 383.912 82.288 382.936 82.176 381.16H89.184C89.216 380.856 89.232 380.6 89.232 380.28C89.232 377.88 87.568 376.088 85.024 376.088C82.464 376.088 80.688 377.832 80.688 380.6C80.688 383.384 82.528 385.144 85.024 385.144C87.2 385.144 88.608 383.896 89.056 382.296ZM92.6099 380.232C92.6099 378.2 93.6659 377.576 95.0579 377.576H95.4419V376.072C94.0499 376.072 93.1059 376.68 92.6099 377.656V376.232H91.1539V385H92.6099V380.232ZM103.539 385H104.979V379.832C104.979 377.32 103.427 376.072 101.395 376.072C100.211 376.072 99.1546 376.568 98.5786 377.48V376.232H97.1226V385H98.5786V380.152C98.5786 378.264 99.6026 377.336 101.091 377.336C102.563 377.336 103.539 378.248 103.539 380.04V385ZM106.813 380.584C106.813 383.304 108.621 385.144 110.957 385.144C112.573 385.144 113.709 384.312 114.237 383.368V385H115.709V376.232H114.237V377.832C113.725 376.92 112.605 376.088 110.973 376.088C108.621 376.088 106.813 377.848 106.813 380.584ZM114.237 380.6C114.237 382.664 112.861 383.864 111.261 383.864C109.661 383.864 108.301 382.648 108.301 380.584C108.301 378.52 109.661 377.352 111.261 377.352C112.861 377.352 114.237 378.568 114.237 380.6ZM118.17 385H119.626V373.16H118.17V385ZM122.107 385H123.563V373.16H122.107V385ZM129.373 383.336L126.621 376.232H125.005L128.541 384.904L126.812 389.128H128.317L133.597 376.232H132.093L129.373 383.336ZM146.046 376.232C146.126 374.744 145.054 373.624 143.294 373.624C141.486 373.624 140.35 374.68 140.35 376.104C140.35 376.92 140.622 377.544 141.31 378.344C139.566 379.032 138.686 380.264 138.686 381.8C138.686 383.864 140.27 385.192 142.59 385.192C144.158 385.192 145.358 384.648 146.43 383.528L147.886 385H149.79L147.278 382.488C147.502 382.168 147.71 381.848 147.918 381.48L149.23 379.208H147.662L146.574 381.032C146.478 381.192 146.382 381.336 146.286 381.48L142.958 378.136C142.174 377.304 141.806 376.76 141.806 376.104C141.806 375.368 142.366 374.824 143.23 374.824C144.014 374.824 144.622 375.32 144.59 376.232H146.046ZM142.59 383.944C141.134 383.944 140.142 383 140.142 381.752C140.142 380.632 140.798 379.8 142.19 379.272L145.47 382.568C144.638 383.496 143.742 383.944 142.59 383.944ZM159.148 377.32C160.652 377.32 161.932 378.264 161.916 379.976H156.38C156.539 378.264 157.724 377.32 159.148 377.32ZM163.244 382.296H161.676C161.356 383.24 160.524 383.912 159.212 383.912C157.724 383.912 156.476 382.936 156.364 381.16H163.372C163.404 380.856 163.42 380.6 163.42 380.28C163.42 377.88 161.756 376.088 159.212 376.088C156.652 376.088 154.876 377.832 154.876 380.6C154.876 383.384 156.716 385.144 159.212 385.144C161.388 385.144 162.796 383.896 163.244 382.296ZM169.917 385H171.565L168.733 380.568L171.549 376.232H170.029L168.045 379.48L165.965 376.232H164.317L167.149 380.648L164.317 385H165.837L167.837 381.736L169.917 385ZM173.318 382.6C173.318 384.36 174.198 385 175.75 385H177.062V383.768H175.99C175.094 383.768 174.774 383.464 174.774 382.6V377.432H177.062V376.232H174.774V374.024H173.318V376.232H172.182V377.432H173.318V382.6ZM182.554 377.32C184.058 377.32 185.338 378.264 185.322 379.976H179.786C179.946 378.264 181.13 377.32 182.554 377.32ZM186.65 382.296H185.082C184.762 383.24 183.93 383.912 182.618 383.912C181.13 383.912 179.882 382.936 179.77 381.16H186.778C186.81 380.856 186.826 380.6 186.826 380.28C186.826 377.88 185.162 376.088 182.618 376.088C180.058 376.088 178.282 377.832 178.282 380.6C178.282 383.384 180.122 385.144 182.618 385.144C184.794 385.144 186.202 383.896 186.65 382.296ZM190.204 380.232C190.204 378.2 191.26 377.576 192.652 377.576H193.036V376.072C191.644 376.072 190.7 376.68 190.204 377.656V376.232H188.748V385H190.204V380.232ZM201.132 385H202.572V379.832C202.572 377.32 201.02 376.072 198.988 376.072C197.804 376.072 196.748 376.568 196.172 377.48V376.232H194.716V385H196.172V380.152C196.172 378.264 197.196 377.336 198.684 377.336C200.156 377.336 201.132 378.248 201.132 380.04V385ZM204.407 380.584C204.407 383.304 206.215 385.144 208.551 385.144C210.167 385.144 211.303 384.312 211.831 383.368V385H213.303V376.232H211.831V377.832C211.319 376.92 210.199 376.088 208.567 376.088C206.215 376.088 204.407 377.848 204.407 380.584ZM211.831 380.6C211.831 382.664 210.455 383.864 208.855 383.864C207.255 383.864 205.895 382.648 205.895 380.584C205.895 378.52 207.255 377.352 208.855 377.352C210.455 377.352 211.831 378.568 211.831 380.6ZM215.763 385H217.219V373.16H215.763V385ZM219.701 385H221.157V373.16H219.701V385ZM226.966 383.336L224.214 376.232H222.598L226.134 384.904L224.406 389.128H225.91L231.19 376.232H229.686L226.966 383.336ZM234.078 384.104C234.078 383.544 233.646 383.112 233.118 383.112C232.558 383.112 232.126 383.544 232.126 384.104C232.126 384.664 232.558 385.096 233.118 385.096C233.646 385.096 234.078 384.664 234.078 384.104Z" fill="#EDEDED"/>
<g opacity="0.35" filter="url(#filter0_f_315_676)">
<rect x="77" y="77" width="65" height="69.3919" rx="28" fill="#2AA9FF"/>
</g>
<rect x="61" y="60" width="98" height="103" rx="34" fill="white"/>
<path d="M80 102.493V99.9164C80.0719 99.5166 80.15 99.1169 80.2156 98.7155C82.0281 87.5206 95.0355 81.9723 104.329 88.4841C105.913 89.5943 107.246 91.0622 108.693 92.3662C108.86 92.5161 109.023 92.6722 109.213 92.8487C110.046 92.0101 110.801 91.1918 111.619 90.4392C112.493 89.6349 113.376 88.8245 114.341 88.1405C117.804 85.6841 121.666 84.4677 125.888 85.2219C132.796 86.4556 137.28 90.5766 139.413 97.2414C139.7 98.1424 139.808 99.1013 140 100.034V102.61C139.964 102.76 139.911 102.907 139.894 103.058C139.677 105.02 139.072 106.859 138.164 108.605C137.305 110.26 136.192 111.733 134.88 113.135C136.844 114.928 137.713 117.083 136.853 119.666C135.991 122.256 134.042 123.535 131.353 123.777C131.292 125.395 130.705 126.758 129.569 127.877C128.435 128.993 127.049 129.53 125.48 129.583C125.149 135.113 118.24 137.46 114.56 132.766C114.421 132.947 114.307 133.131 114.157 133.281C113.098 134.348 112.057 135.433 110.962 136.462C107.991 139.251 103.067 138.086 101.659 134.263C101.439 133.667 101.346 133.025 101.178 132.329C99.7276 132.252 98.3948 131.729 97.3027 130.656C96.2136 129.586 95.6871 128.256 95.5621 126.772C93.4403 126.612 91.8372 125.697 90.8497 123.868C89.8529 122.021 89.9919 120.161 91.0294 118.296C90.8763 118.167 90.7216 118.048 90.5794 117.915C88.692 116.133 86.8045 114.352 84.9186 112.567C82.6781 110.448 81.164 107.901 80.4516 104.896C80.2641 104.105 80.1484 103.294 80 102.493ZM106.47 107.721C106.282 107.895 106.151 108.009 106.027 108.13C102.16 111.994 98.2933 115.859 94.4277 119.723C94.3449 119.806 94.2606 119.889 94.1856 119.978C93.284 121.035 93.695 122.631 95.0012 123.1C95.8449 123.403 96.5683 123.17 97.1902 122.547C98.3058 121.427 99.412 120.295 100.551 119.197C101.564 118.221 103.12 118.627 103.495 119.945C103.696 120.653 103.463 121.248 102.956 121.754C101.892 122.815 100.821 123.871 99.7698 124.945C99.1104 125.618 98.9183 126.435 99.2448 127.321C99.5698 128.204 100.239 128.707 101.184 128.787C101.906 128.848 102.517 128.59 103.029 128.072C104.073 127.016 105.117 125.964 106.179 124.927C107.001 124.126 108.182 124.19 108.852 125.041C109.407 125.745 109.332 126.721 108.637 127.428C107.596 128.487 106.543 129.532 105.49 130.576C104.99 131.073 104.74 131.671 104.795 132.371C104.867 133.287 105.331 133.965 106.184 134.304C107.076 134.658 107.923 134.51 108.621 133.829C109.712 132.766 110.768 131.668 111.865 130.612C112.19 130.3 112.266 130.061 112.071 129.619C111.145 127.508 111.609 124.949 113.248 123.335C113.86 122.733 114.619 122.278 115.323 121.746C114.008 119.133 114.012 116.894 115.476 115.009C117.28 112.687 119.644 112.084 122.443 112.962C123.213 110.896 124.582 109.458 126.758 108.967C128.913 108.483 130.803 109.08 132.386 110.623C132.499 110.521 132.575 110.462 132.641 110.391C135.713 107.234 136.98 103.446 136.191 99.134C135.292 94.2213 132.378 90.8217 127.618 89.2852C122.846 87.7439 118.524 88.7995 114.827 92.2194C113.868 93.1063 112.969 94.0605 112.044 94.9849C111.94 95.0896 111.849 95.2067 111.71 95.3644C111.89 95.5174 112.044 95.6377 112.184 95.772C113.908 97.4429 115.63 99.1169 117.354 100.788C118.546 101.943 119.155 103.367 119.238 105.01C119.371 107.645 117.91 110.007 115.533 111.061C113.144 112.12 110.368 111.61 108.498 109.761C107.832 109.103 107.179 108.435 106.47 107.721ZM93.4981 115.835C93.6403 115.637 93.745 115.44 93.895 115.29C97.148 112.031 100.404 108.774 103.665 105.522C105.357 103.834 107.52 103.831 109.205 105.505C109.801 106.097 110.385 106.698 110.99 107.281C111.644 107.913 112.432 108.215 113.341 108.066C114.449 107.885 115.252 107.276 115.605 106.194C115.972 105.068 115.677 104.075 114.833 103.255C111.155 99.6759 107.506 96.0687 103.784 92.5364C100.912 89.8098 97.423 88.7355 93.5371 89.4288C88.7966 90.2736 85.5311 93.0611 84.0968 97.6662C82.6562 102.29 83.7843 106.408 87.1951 109.859C88.4013 111.08 89.6826 112.226 90.931 113.407C91.7528 114.185 92.5731 114.961 93.5012 115.838L93.4981 115.835ZM125.73 126.039C126.446 126.004 127.166 125.528 127.577 124.644C127.993 123.749 127.894 122.85 127.21 122.144C125.421 120.297 123.602 118.476 121.754 116.688C120.816 115.782 119.413 115.893 118.501 116.841C117.627 117.748 117.596 119.152 118.486 120.059C120.247 121.852 122.035 123.621 123.819 125.392C124.266 125.836 124.821 126.054 125.732 126.039H125.73ZM131.067 120.212C132.152 120.247 133.047 119.7 133.438 118.816C133.85 117.882 133.711 117.003 133.014 116.272C131.952 115.157 130.855 114.075 129.752 112.999C128.789 112.061 127.378 112.076 126.444 113.002C125.505 113.932 125.469 115.342 126.402 116.307C127.458 117.4 128.546 118.465 129.627 119.536C130.058 119.964 130.577 120.211 131.071 120.212H131.067ZM119.555 131.785C120.543 131.745 121.272 131.271 121.679 130.386C122.088 129.494 121.969 128.614 121.297 127.886C120.571 127.099 119.81 126.34 119.024 125.611C118.09 124.742 116.726 124.811 115.808 125.723C114.938 126.588 114.854 127.994 115.683 128.901C116.419 129.705 117.208 130.462 117.999 131.215C118.422 131.618 118.96 131.799 119.555 131.785Z" fill="#2AA9FF"/>
<defs>
<filter id="filter0_f_315_676" x="0" y="0" width="219" height="223.393" filterUnits="userSpaceOnUse" color-interpolation-filters="sRGB">
<feFlood flood-opacity="0" result="BackgroundImageFix"/>
<feBlend mode="normal" in="SourceGraphic" in2="BackgroundImageFix" result="shape"/>
<feGaussianBlur stdDeviation="38.5" result="effect1_foregroundBlur_315_676"/>
</filter>
</defs>
</svg>
