<svg width="305" height="390" viewBox="0 0 305 390" fill="none" xmlns="http://www.w3.org/2000/svg">
<path d="M61.4701 218.3H65.1901V230H67.9901V218.3H71.7101V216.04H61.4701V218.3ZM78.513 221.04C79.953 221.04 81.113 221.96 81.153 223.42H75.893C76.113 221.9 77.173 221.04 78.513 221.04ZM83.773 226.52H80.753C80.393 227.26 79.733 227.86 78.533 227.86C77.133 227.86 76.013 226.94 75.873 225.3H83.973C84.033 224.94 84.053 224.58 84.053 224.22C84.053 220.92 81.793 218.74 78.593 218.74C75.313 218.74 73.033 220.96 73.033 224.46C73.033 227.94 75.373 230.18 78.593 230.18C81.333 230.18 83.173 228.56 83.773 226.52ZM85.3768 224.46C85.3768 227.94 87.6568 230.18 90.8568 230.18C93.6168 230.18 95.4768 228.62 96.0768 226.26H93.0568C92.7168 227.26 91.9968 227.78 90.8368 227.78C89.2768 227.78 88.2368 226.62 88.2368 224.46C88.2368 222.3 89.2768 221.12 90.8368 221.12C91.9968 221.12 92.7368 221.72 93.0568 222.66H96.0768C95.4768 220.18 93.6168 218.74 90.8568 218.74C87.6568 218.74 85.3768 220.98 85.3768 224.46ZM98.128 230H100.928V223.88C100.928 222.1 101.908 221.14 103.428 221.14C104.908 221.14 105.888 222.1 105.888 223.88V230H108.688V223.5C108.688 220.44 106.868 218.76 104.368 218.76C102.888 218.76 101.648 219.36 100.928 220.3V215.2H98.128V230ZM116.116 230H118.916V224.1H123.376V221.88H118.916V218.3H124.736V216.04H116.116V230ZM129.522 224.48C129.522 222.34 130.522 221.7 132.182 221.7H132.922V218.76C131.382 218.76 130.222 219.5 129.522 220.64V218.92H126.722V230H129.522V224.48ZM139.568 221.04C141.008 221.04 142.168 221.96 142.208 223.42H136.948C137.168 221.9 138.228 221.04 139.568 221.04ZM144.828 226.52H141.808C141.448 227.26 140.788 227.86 139.588 227.86C138.188 227.86 137.068 226.94 136.928 225.3H145.028C145.088 224.94 145.108 224.58 145.108 224.22C145.108 220.92 142.848 218.74 139.648 218.74C136.368 218.74 134.088 220.96 134.088 224.46C134.088 227.94 136.428 230.18 139.648 230.18C142.388 230.18 144.228 228.56 144.828 226.52ZM151.911 221.04C153.351 221.04 154.511 221.96 154.551 223.42H149.291C149.511 221.9 150.571 221.04 151.911 221.04ZM157.171 226.52H154.151C153.791 227.26 153.131 227.86 151.931 227.86C150.531 227.86 149.411 226.94 149.271 225.3H157.371C157.431 224.94 157.451 224.58 157.451 224.22C157.451 220.92 155.191 218.74 151.991 218.74C148.711 218.74 146.431 220.96 146.431 224.46C146.431 227.94 148.771 230.18 151.991 230.18C154.731 230.18 156.571 228.56 157.171 226.52ZM158.775 224.42C158.775 227.88 161.015 230.18 163.835 230.18C165.575 230.18 166.815 229.38 167.475 228.36V230H170.315V215.2H167.475V220.46C166.715 219.42 165.315 218.74 163.855 218.74C161.015 218.74 158.775 220.96 158.775 224.42ZM167.495 224.46C167.495 226.56 166.095 227.72 164.555 227.72C163.055 227.72 161.635 226.52 161.635 224.42C161.635 222.32 163.055 221.2 164.555 221.2C166.095 221.2 167.495 222.36 167.495 224.46ZM183.75 224.46C183.75 220.96 181.25 218.74 178.05 218.74C174.85 218.74 172.35 220.96 172.35 224.46C172.35 227.94 174.77 230.18 177.97 230.18C181.19 230.18 183.75 227.94 183.75 224.46ZM175.19 224.46C175.19 222.24 176.53 221.18 178.01 221.18C179.49 221.18 180.87 222.24 180.87 224.46C180.87 226.66 179.45 227.74 177.97 227.74C176.47 227.74 175.19 226.66 175.19 224.46ZM201.304 230H204.104V223.5C204.104 220.44 202.224 218.76 199.564 218.76C197.944 218.76 196.484 219.62 195.764 220.88C195.004 219.5 193.584 218.76 191.864 218.76C190.484 218.76 189.304 219.34 188.604 220.26V218.92H185.804V230H188.604V223.88C188.604 222.12 189.584 221.2 191.104 221.2C192.584 221.2 193.564 222.12 193.564 223.88V230H196.364V223.88C196.364 222.12 197.344 221.2 198.844 221.2C200.324 221.2 201.304 222.12 201.304 223.88V230Z" fill="#EDEDED"/>
<path d="M67.232 261.832H61.232V273H67.232V271.8H62.688V267.96H66.752V266.76H62.688V263.032H67.232V261.832ZM75.8511 273H77.2911V267.832C77.2911 265.32 75.7391 264.072 73.7071 264.072C72.5231 264.072 71.4671 264.568 70.8911 265.48V264.232H69.4351V273H70.8911V268.152C70.8911 266.264 71.9151 265.336 73.4031 265.336C74.8751 265.336 75.8511 266.248 75.8511 268.04V273ZM79.1255 268.6C79.1255 271.384 80.9015 273.144 83.3975 273.144C85.5735 273.144 86.9975 271.928 87.4455 270.184H85.8775C85.5575 271.288 84.6935 271.912 83.3975 271.912C81.7975 271.912 80.6135 270.776 80.6135 268.6C80.6135 266.456 81.7975 265.32 83.3975 265.32C84.6935 265.32 85.5735 265.992 85.8775 267.048H87.4455C86.9975 265.208 85.5735 264.088 83.3975 264.088C80.9015 264.088 79.1255 265.848 79.1255 268.6ZM97.7083 268.6C97.7083 265.832 95.7723 264.088 93.2763 264.088C90.7963 264.088 88.8443 265.832 88.8443 268.6C88.8443 271.384 90.7323 273.144 93.2123 273.144C95.7083 273.144 97.7083 271.384 97.7083 268.6ZM90.3323 268.6C90.3323 266.392 91.7243 265.352 93.2603 265.352C94.7643 265.352 96.2203 266.392 96.2203 268.6C96.2203 270.824 94.7323 271.864 93.2123 271.864C91.6923 271.864 90.3323 270.824 90.3323 268.6ZM107.399 264.232H105.943V269.048C105.943 270.936 104.935 271.864 103.431 271.864C101.959 271.864 100.983 270.952 100.983 269.176V264.232H99.5426V269.368C99.5426 271.88 101.127 273.128 103.143 273.128C104.311 273.128 105.383 272.616 105.943 271.704V273H107.399V264.232ZM111.313 268.232C111.313 266.2 112.369 265.576 113.761 265.576H114.145V264.072C112.753 264.072 111.809 264.68 111.313 265.656V264.232H109.857V273H111.313V268.232ZM115.282 268.584C115.282 271.304 117.09 273.144 119.426 273.144C121.042 273.144 122.178 272.312 122.706 271.368V273H124.178V264.232H122.706V265.832C122.194 264.92 121.074 264.088 119.442 264.088C117.09 264.088 115.282 265.848 115.282 268.584ZM122.706 268.6C122.706 270.664 121.33 271.864 119.73 271.864C118.13 271.864 116.77 270.648 116.77 268.584C116.77 266.52 118.13 265.352 119.73 265.352C121.33 265.352 122.706 266.568 122.706 268.6ZM126.094 268.584C126.094 271.304 127.902 273.144 130.254 273.144C131.854 273.144 132.99 272.296 133.518 271.352V273.192C133.518 275.064 132.35 276.056 130.798 276.056C129.358 276.056 128.318 275.336 127.998 274.28H126.558C126.846 276.152 128.494 277.32 130.798 277.32C133.374 277.32 134.99 275.608 134.99 273.192V264.232H133.518V265.832C133.006 264.888 131.854 264.088 130.254 264.088C127.902 264.088 126.094 265.848 126.094 268.584ZM133.518 268.6C133.518 270.664 132.142 271.864 130.542 271.864C128.942 271.864 127.582 270.648 127.582 268.584C127.582 266.52 128.942 265.352 130.542 265.352C132.142 265.352 133.518 266.568 133.518 268.6ZM137.451 273H138.907V264.232H137.451V273ZM138.203 262.808C138.731 262.808 139.163 262.376 139.163 261.816C139.163 261.256 138.731 260.824 138.203 260.824C137.643 260.824 137.211 261.256 137.211 261.816C137.211 262.376 137.643 262.808 138.203 262.808ZM147.804 273H149.244V267.832C149.244 265.32 147.692 264.072 145.66 264.072C144.476 264.072 143.42 264.568 142.844 265.48V264.232H141.388V273H142.844V268.152C142.844 266.264 143.868 265.336 145.356 265.336C146.828 265.336 147.804 266.248 147.804 268.04V273ZM151.079 268.584C151.079 271.304 152.887 273.144 155.239 273.144C156.839 273.144 157.975 272.296 158.503 271.352V273.192C158.503 275.064 157.335 276.056 155.783 276.056C154.343 276.056 153.303 275.336 152.983 274.28H151.543C151.831 276.152 153.479 277.32 155.783 277.32C158.359 277.32 159.975 275.608 159.975 273.192V264.232H158.503V265.832C157.991 264.888 156.839 264.088 155.239 264.088C152.887 264.088 151.079 265.848 151.079 268.584ZM158.503 268.6C158.503 270.664 157.127 271.864 155.527 271.864C153.927 271.864 152.567 270.648 152.567 268.584C152.567 266.52 153.927 265.352 155.527 265.352C157.127 265.352 158.503 266.568 158.503 268.6ZM167.021 270.6C167.021 272.36 167.901 273 169.453 273H170.765V271.768H169.693C168.797 271.768 168.477 271.464 168.477 270.6V265.432H170.765V264.232H168.477V262.024H167.021V264.232H165.885V265.432H167.021V270.6ZM180.849 268.6C180.849 265.832 178.913 264.088 176.417 264.088C173.937 264.088 171.985 265.832 171.985 268.6C171.985 271.384 173.873 273.144 176.353 273.144C178.849 273.144 180.849 271.384 180.849 268.6ZM173.473 268.6C173.473 266.392 174.865 265.352 176.401 265.352C177.905 265.352 179.361 266.392 179.361 268.6C179.361 270.824 177.873 271.864 176.353 271.864C174.833 271.864 173.473 270.824 173.473 268.6ZM190.757 265.32C192.261 265.32 193.541 266.264 193.525 267.976H187.989C188.149 266.264 189.333 265.32 190.757 265.32ZM194.853 270.296H193.285C192.965 271.24 192.133 271.912 190.821 271.912C189.333 271.912 188.085 270.936 187.973 269.16H194.981C195.013 268.856 195.029 268.6 195.029 268.28C195.029 265.88 193.365 264.088 190.821 264.088C188.261 264.088 186.485 265.832 186.485 268.6C186.485 271.384 188.325 273.144 190.821 273.144C192.997 273.144 194.405 271.896 194.853 270.296ZM201.527 273H203.175L200.343 268.568L203.159 264.232H201.639L199.655 267.48L197.575 264.232H195.927L198.759 268.648L195.927 273H197.447L199.447 269.736L201.527 273ZM206.063 265.848V264.232H204.607V277.16H206.063V271.384C206.607 272.28 207.743 273.144 209.343 273.144C211.695 273.144 213.503 271.304 213.503 268.584C213.503 265.848 211.695 264.088 209.343 264.088C207.743 264.088 206.591 264.92 206.063 265.848ZM212.015 268.584C212.015 270.648 210.655 271.864 209.039 271.864C207.455 271.864 206.063 270.664 206.063 268.6C206.063 266.568 207.455 265.352 209.039 265.352C210.655 265.352 212.015 266.52 212.015 268.584ZM215.42 273H216.876V261.16H215.42V273ZM227.677 268.6C227.677 265.832 225.741 264.088 223.245 264.088C220.765 264.088 218.813 265.832 218.813 268.6C218.813 271.384 220.701 273.144 223.181 273.144C225.677 273.144 227.677 271.384 227.677 268.6ZM220.301 268.6C220.301 266.392 221.693 265.352 223.229 265.352C224.733 265.352 226.189 266.392 226.189 268.6C226.189 270.824 224.701 271.864 223.181 271.864C221.661 271.864 220.301 270.824 220.301 268.6ZM231.047 268.232C231.047 266.2 232.103 265.576 233.495 265.576H233.879V264.072C232.487 264.072 231.543 264.68 231.047 265.656V264.232H229.591V273H231.047V268.232ZM239.288 265.32C240.792 265.32 242.072 266.264 242.056 267.976H236.52C236.68 266.264 237.864 265.32 239.288 265.32ZM243.384 270.296H241.816C241.496 271.24 240.664 271.912 239.352 271.912C237.864 271.912 236.616 270.936 236.504 269.16H243.512C243.544 268.856 243.56 268.6 243.56 268.28C243.56 265.88 241.896 264.088 239.352 264.088C236.792 264.088 235.016 265.832 235.016 268.6C235.016 271.384 236.856 273.144 239.352 273.144C241.528 273.144 242.936 271.896 243.384 270.296ZM256.164 273H257.604V267.832C257.604 265.32 256.052 264.072 254.02 264.072C252.836 264.072 251.78 264.568 251.204 265.48V264.232H249.748V273H251.204V268.152C251.204 266.264 252.228 265.336 253.716 265.336C255.188 265.336 256.164 266.248 256.164 268.04V273ZM263.71 265.32C265.214 265.32 266.494 266.264 266.478 267.976H260.942C261.102 266.264 262.286 265.32 263.71 265.32ZM267.806 270.296H266.238C265.918 271.24 265.086 271.912 263.774 271.912C262.286 271.912 261.038 270.936 260.926 269.16H267.934C267.966 268.856 267.982 268.6 267.982 268.28C267.982 265.88 266.318 264.088 263.774 264.088C261.214 264.088 259.438 265.832 259.438 268.6C259.438 271.384 261.278 273.144 263.774 273.144C265.95 273.144 267.358 271.896 267.806 270.296ZM271.616 273H273.12L275.232 266.04L277.344 273H278.848L281.584 264.232H280.144L278.16 271.608L276.032 264.232H274.544L272.368 271.592L270.352 264.232H268.864L271.616 273ZM62.944 301H64.448L66.56 294.04L68.672 301H70.176L72.912 292.232H71.472L69.488 299.608L67.36 292.232H65.872L63.696 299.592L61.68 292.232H60.192L62.944 301ZM73.813 296.584C73.813 299.304 75.621 301.144 77.957 301.144C79.573 301.144 80.709 300.312 81.237 299.368V301H82.709V292.232H81.237V293.832C80.725 292.92 79.605 292.088 77.973 292.088C75.621 292.088 73.813 293.848 73.813 296.584ZM81.237 296.6C81.237 298.664 79.861 299.864 78.261 299.864C76.661 299.864 75.301 298.648 75.301 296.584C75.301 294.52 76.661 293.352 78.261 293.352C79.861 293.352 81.237 294.568 81.237 296.6ZM88.4975 299.336L85.7455 292.232H84.1295L87.6655 300.904L85.9375 305.128H87.4415L92.7215 292.232H91.2175L88.4975 299.336ZM100.489 298.616C100.425 295.48 95.3371 296.616 95.3371 294.536C95.3371 293.832 95.9771 293.32 97.0491 293.32C98.2171 293.32 98.8891 293.96 98.9531 294.84H100.409C100.313 293.128 99.0331 292.088 97.0971 292.088C95.1451 292.088 93.8811 293.192 93.8811 294.536C93.8811 297.8 99.0651 296.664 99.0651 298.616C99.0651 299.336 98.4251 299.912 97.2731 299.912C96.0411 299.912 95.2891 299.272 95.2091 298.424H93.7051C93.8011 300.024 95.2411 301.144 97.2891 301.144C99.2251 301.144 100.489 300.056 100.489 298.616ZM115.13 296.6C115.13 293.832 113.194 292.088 110.698 292.088C108.218 292.088 106.266 293.832 106.266 296.6C106.266 299.384 108.154 301.144 110.634 301.144C113.13 301.144 115.13 299.384 115.13 296.6ZM107.754 296.6C107.754 294.392 109.146 293.352 110.682 293.352C112.186 293.352 113.642 294.392 113.642 296.6C113.642 298.824 112.154 299.864 110.634 299.864C109.114 299.864 107.754 298.824 107.754 296.6ZM117.317 301H118.773V293.432H120.613V292.232H118.773V291.608C118.773 290.472 119.205 289.992 120.516 289.992V288.776C118.277 288.776 117.317 289.656 117.317 291.608V292.232H116.181V293.432H117.317V301ZM134.352 292.232H132.896V297.048C132.896 298.936 131.888 299.864 130.384 299.864C128.912 299.864 127.936 298.952 127.936 297.176V292.232H126.496V297.368C126.496 299.88 128.08 301.128 130.096 301.128C131.264 301.128 132.336 300.616 132.896 299.704V301H134.352V292.232ZM143.114 298.616C143.05 295.48 137.962 296.616 137.962 294.536C137.962 293.832 138.602 293.32 139.674 293.32C140.842 293.32 141.514 293.96 141.578 294.84H143.034C142.938 293.128 141.658 292.088 139.722 292.088C137.77 292.088 136.506 293.192 136.506 294.536C136.506 297.8 141.69 296.664 141.69 298.616C141.69 299.336 141.05 299.912 139.898 299.912C138.666 299.912 137.914 299.272 137.834 298.424H136.33C136.426 300.024 137.866 301.144 139.914 301.144C141.85 301.144 143.114 300.056 143.114 298.616ZM145.17 301H146.626V292.232H145.17V301ZM145.922 290.808C146.45 290.808 146.882 290.376 146.882 289.816C146.882 289.256 146.45 288.824 145.922 288.824C145.362 288.824 144.93 289.256 144.93 289.816C144.93 290.376 145.362 290.808 145.922 290.808ZM155.523 301H156.963V295.832C156.963 293.32 155.411 292.072 153.379 292.072C152.195 292.072 151.139 292.568 150.563 293.48V292.232H149.107V301H150.563V296.152C150.563 294.264 151.587 293.336 153.075 293.336C154.547 293.336 155.523 294.248 155.523 296.04V301ZM158.797 296.584C158.797 299.304 160.605 301.144 162.957 301.144C164.557 301.144 165.693 300.296 166.221 299.352V301.192C166.221 303.064 165.053 304.056 163.501 304.056C162.061 304.056 161.021 303.336 160.701 302.28H159.261C159.549 304.152 161.197 305.32 163.501 305.32C166.077 305.32 167.693 303.608 167.693 301.192V292.232H166.221V293.832C165.709 292.888 164.557 292.088 162.957 292.088C160.605 292.088 158.797 293.848 158.797 296.584ZM166.221 296.6C166.221 298.664 164.845 299.864 163.245 299.864C161.645 299.864 160.285 298.648 160.285 296.584C160.285 294.52 161.645 293.352 163.245 293.352C164.845 293.352 166.221 294.568 166.221 296.6ZM174.74 298.6C174.74 300.36 175.62 301 177.172 301H178.484V299.768H177.411C176.516 299.768 176.196 299.464 176.196 298.6V293.432H178.484V292.232H176.196V290.024H174.74V292.232H173.604V293.432H174.74V298.6ZM183.976 293.32C185.48 293.32 186.76 294.264 186.744 295.976H181.208C181.368 294.264 182.552 293.32 183.976 293.32ZM188.072 298.296H186.504C186.184 299.24 185.352 299.912 184.04 299.912C182.552 299.912 181.304 298.936 181.192 297.16H188.2C188.232 296.856 188.248 296.6 188.248 296.28C188.248 293.88 186.584 292.088 184.04 292.088C181.48 292.088 179.704 293.832 179.704 296.6C179.704 299.384 181.544 301.144 184.04 301.144C186.216 301.144 187.624 299.896 188.072 298.296ZM189.626 296.6C189.626 299.384 191.402 301.144 193.898 301.144C196.074 301.144 197.498 299.928 197.946 298.184H196.378C196.058 299.288 195.194 299.912 193.898 299.912C192.298 299.912 191.114 298.776 191.114 296.6C191.114 294.456 192.298 293.32 193.898 293.32C195.194 293.32 196.074 293.992 196.378 295.048H197.946C197.498 293.208 196.074 292.088 193.898 292.088C191.402 292.088 189.626 293.848 189.626 296.6ZM199.888 301H201.344V296.152C201.344 294.264 202.368 293.336 203.856 293.336C205.328 293.336 206.304 294.248 206.304 296.04V301H207.744V295.832C207.744 293.32 206.192 292.072 204.24 292.072C203.008 292.072 201.92 292.568 201.344 293.496V289.16H199.888V301ZM216.539 301H217.979V295.832C217.979 293.32 216.427 292.072 214.395 292.072C213.211 292.072 212.155 292.568 211.579 293.48V292.232H210.123V301H211.579V296.152C211.579 294.264 212.603 293.336 214.091 293.336C215.563 293.336 216.539 294.248 216.539 296.04V301ZM228.677 296.6C228.677 293.832 226.741 292.088 224.245 292.088C221.765 292.088 219.813 293.832 219.813 296.6C219.813 299.384 221.701 301.144 224.181 301.144C226.677 301.144 228.677 299.384 228.677 296.6ZM221.301 296.6C221.301 294.392 222.693 293.352 224.229 293.352C225.733 293.352 227.189 294.392 227.189 296.6C227.189 298.824 225.701 299.864 224.181 299.864C222.661 299.864 221.301 298.824 221.301 296.6ZM230.591 301H232.047V289.16H230.591V301ZM242.849 296.6C242.849 293.832 240.913 292.088 238.417 292.088C235.937 292.088 233.985 293.832 233.985 296.6C233.985 299.384 235.873 301.144 238.353 301.144C240.849 301.144 242.849 299.384 242.849 296.6ZM235.473 296.6C235.473 294.392 236.865 293.352 238.401 293.352C239.905 293.352 241.361 294.392 241.361 296.6C241.361 298.824 239.873 299.864 238.353 299.864C236.833 299.864 235.473 298.824 235.473 296.6ZM244.219 296.584C244.219 299.304 246.027 301.144 248.379 301.144C249.979 301.144 251.115 300.296 251.643 299.352V301.192C251.643 303.064 250.475 304.056 248.923 304.056C247.483 304.056 246.443 303.336 246.123 302.28H244.683C244.971 304.152 246.619 305.32 248.923 305.32C251.499 305.32 253.115 303.608 253.115 301.192V292.232H251.643V293.832C251.131 292.888 249.979 292.088 248.379 292.088C246.027 292.088 244.219 293.848 244.219 296.584ZM251.643 296.6C251.643 298.664 250.267 299.864 248.667 299.864C247.067 299.864 245.707 298.648 245.707 296.584C245.707 294.52 247.067 293.352 248.667 293.352C250.267 293.352 251.643 294.568 251.643 296.6ZM258.904 299.336L256.152 292.232H254.536L258.072 300.904L256.344 305.128H257.848L263.128 292.232H261.624L258.904 299.336ZM263.327 303.288H264.303L266.095 298.984H264.495L263.327 303.288ZM73.888 329H75.328V323.832C75.328 321.32 73.776 320.072 71.776 320.072C70.432 320.072 69.184 320.76 68.672 322.024C68.096 320.712 66.896 320.072 65.456 320.072C64.304 320.072 63.264 320.568 62.688 321.496V320.232H61.232V329H62.688V324.168C62.688 322.28 63.696 321.336 65.168 321.336C66.608 321.336 67.568 322.248 67.568 324.04V329H69.008V324.168C69.008 322.28 70.016 321.336 71.488 321.336C72.928 321.336 73.888 322.248 73.888 324.04V329ZM81.4444 321.32C82.9484 321.32 84.2284 322.264 84.2124 323.976H78.6764C78.8364 322.264 80.0204 321.32 81.4444 321.32ZM85.5404 326.296H83.9724C83.6524 327.24 82.8204 327.912 81.5084 327.912C80.0204 327.912 78.7724 326.936 78.6604 325.16H85.6684C85.7004 324.856 85.7164 324.6 85.7164 324.28C85.7164 321.88 84.0524 320.088 81.5084 320.088C78.9484 320.088 77.1724 321.832 77.1724 324.6C77.1724 327.384 79.0124 329.144 81.5084 329.144C83.6844 329.144 85.0924 327.896 85.5404 326.296ZM87.9583 326.6C87.9583 328.36 88.8383 329 90.3903 329H91.7023V327.768H90.6302C89.7343 327.768 89.4143 327.464 89.4143 326.6V321.432H91.7023V320.232H89.4143V318.024H87.9583V320.232H86.8223V321.432H87.9583V326.6ZM93.4664 329H94.9224V324.152C94.9224 322.264 95.9464 321.336 97.4344 321.336C98.9064 321.336 99.8824 322.248 99.8824 324.04V329H101.322V323.832C101.322 321.32 99.7704 320.072 97.8184 320.072C96.5864 320.072 95.4984 320.568 94.9224 321.496V317.16H93.4664V329ZM112.021 324.6C112.021 321.832 110.085 320.088 107.589 320.088C105.109 320.088 103.157 321.832 103.157 324.6C103.157 327.384 105.045 329.144 107.525 329.144C110.021 329.144 112.021 327.384 112.021 324.6ZM104.645 324.6C104.645 322.392 106.037 321.352 107.573 321.352C109.077 321.352 110.533 322.392 110.533 324.6C110.533 326.824 109.045 327.864 107.525 327.864C106.005 327.864 104.645 326.824 104.645 324.6ZM113.391 324.584C113.391 327.304 115.199 329.144 117.551 329.144C119.151 329.144 120.287 328.328 120.815 327.352V329H122.287V317.16H120.815V321.8C120.207 320.792 118.943 320.088 117.567 320.088C115.199 320.088 113.391 321.848 113.391 324.584ZM120.815 324.6C120.815 326.664 119.439 327.864 117.839 327.864C116.239 327.864 114.879 326.648 114.879 324.584C114.879 322.52 116.239 321.352 117.839 321.352C119.439 321.352 120.815 322.568 120.815 324.6ZM133.068 324.6C133.068 321.832 131.132 320.088 128.636 320.088C126.156 320.088 124.204 321.832 124.204 324.6C124.204 327.384 126.092 329.144 128.572 329.144C131.068 329.144 133.068 327.384 133.068 324.6ZM125.692 324.6C125.692 322.392 127.084 321.352 128.62 321.352C130.124 321.352 131.58 322.392 131.58 324.6C131.58 326.824 130.092 327.864 128.572 327.864C127.052 327.864 125.692 326.824 125.692 324.6ZM134.982 329H136.438V317.16H134.982V329ZM138.92 329H140.376V320.232H138.92V329ZM139.672 318.808C140.2 318.808 140.632 318.376 140.632 317.816C140.632 317.256 140.2 316.824 139.672 316.824C139.112 316.824 138.68 317.256 138.68 317.816C138.68 318.376 139.112 318.808 139.672 318.808ZM142.313 324.584C142.313 327.304 144.121 329.144 146.473 329.144C148.073 329.144 149.209 328.296 149.737 327.352V329.192C149.737 331.064 148.569 332.056 147.017 332.056C145.577 332.056 144.537 331.336 144.217 330.28H142.777C143.065 332.152 144.713 333.32 147.017 333.32C149.593 333.32 151.209 331.608 151.209 329.192V320.232H149.737V321.832C149.225 320.888 148.073 320.088 146.473 320.088C144.121 320.088 142.313 321.848 142.313 324.584ZM149.737 324.6C149.737 326.664 148.361 327.864 146.761 327.864C145.161 327.864 143.801 326.648 143.801 324.584C143.801 322.52 145.161 321.352 146.761 321.352C148.361 321.352 149.737 322.568 149.737 324.6ZM157.398 321.32C158.902 321.32 160.182 322.264 160.166 323.976H154.63C154.789 322.264 155.974 321.32 157.398 321.32ZM161.494 326.296H159.926C159.606 327.24 158.774 327.912 157.462 327.912C155.974 327.912 154.726 326.936 154.614 325.16H161.622C161.654 324.856 161.67 324.6 161.67 324.28C161.67 321.88 160.006 320.088 157.462 320.088C154.902 320.088 153.126 321.832 153.126 324.6C153.126 327.384 154.966 329.144 157.462 329.144C159.638 329.144 161.046 327.896 161.494 326.296ZM169.895 326.616C169.831 323.48 164.743 324.616 164.743 322.536C164.743 321.832 165.383 321.32 166.455 321.32C167.623 321.32 168.295 321.96 168.359 322.84H169.815C169.719 321.128 168.439 320.088 166.503 320.088C164.551 320.088 163.287 321.192 163.287 322.536C163.287 325.8 168.471 324.664 168.471 326.616C168.471 327.336 167.831 327.912 166.679 327.912C165.447 327.912 164.695 327.272 164.615 326.424H163.111C163.207 328.024 164.647 329.144 166.695 329.144C168.631 329.144 169.895 328.056 169.895 326.616ZM175.672 324.584C175.672 327.304 177.48 329.144 179.816 329.144C181.432 329.144 182.568 328.312 183.096 327.368V329H184.568V320.232H183.096V321.832C182.584 320.92 181.464 320.088 179.832 320.088C177.48 320.088 175.672 321.848 175.672 324.584ZM183.096 324.6C183.096 326.664 181.72 327.864 180.12 327.864C178.52 327.864 177.16 326.648 177.16 324.584C177.16 322.52 178.52 321.352 180.12 321.352C181.72 321.352 183.096 322.568 183.096 324.6ZM193.445 329H194.885V323.832C194.885 321.32 193.333 320.072 191.301 320.072C190.117 320.072 189.061 320.568 188.485 321.48V320.232H187.029V329H188.485V324.152C188.485 322.264 189.509 321.336 190.997 321.336C192.469 321.336 193.445 322.248 193.445 324.04V329ZM196.719 324.584C196.719 327.304 198.527 329.144 200.879 329.144C202.479 329.144 203.615 328.328 204.143 327.352V329H205.615V317.16H204.143V321.8C203.535 320.792 202.271 320.088 200.895 320.088C198.527 320.088 196.719 321.848 196.719 324.584ZM204.143 324.6C204.143 326.664 202.767 327.864 201.167 327.864C199.567 327.864 198.207 326.648 198.207 324.584C198.207 322.52 199.567 321.352 201.167 321.352C202.767 321.352 204.143 322.568 204.143 324.6ZM212.661 326.6C212.661 328.36 213.541 329 215.093 329H216.405V327.768H215.333C214.437 327.768 214.117 327.464 214.117 326.6V321.432H216.405V320.232H214.117V318.024H212.661V320.232H211.525V321.432H212.661V326.6ZM226.49 324.6C226.49 321.832 224.554 320.088 222.058 320.088C219.578 320.088 217.626 321.832 217.626 324.6C217.626 327.384 219.514 329.144 221.994 329.144C224.49 329.144 226.49 327.384 226.49 324.6ZM219.114 324.6C219.114 322.392 220.506 321.352 222.042 321.352C223.546 321.352 225.002 322.392 225.002 324.6C225.002 326.824 223.514 327.864 221.994 327.864C220.474 327.864 219.114 326.824 219.114 324.6ZM236.724 324.6C236.724 321.832 234.788 320.088 232.292 320.088C229.812 320.088 227.86 321.832 227.86 324.6C227.86 327.384 229.748 329.144 232.228 329.144C234.724 329.144 236.724 327.384 236.724 324.6ZM229.348 324.6C229.348 322.392 230.74 321.352 232.276 321.352C233.78 321.352 235.236 322.392 235.236 324.6C235.236 326.824 233.748 327.864 232.228 327.864C230.708 327.864 229.348 326.824 229.348 324.6ZM238.638 329H240.094V317.16H238.638V329ZM248.88 326.616C248.816 323.48 243.728 324.616 243.728 322.536C243.728 321.832 244.368 321.32 245.44 321.32C246.608 321.32 247.28 321.96 247.344 322.84H248.8C248.704 321.128 247.424 320.088 245.488 320.088C243.536 320.088 242.272 321.192 242.272 322.536C242.272 325.8 247.456 324.664 247.456 326.616C247.456 327.336 246.816 327.912 245.664 327.912C244.432 327.912 243.68 327.272 243.6 326.424H242.096C242.192 328.024 243.632 329.144 245.68 329.144C247.616 329.144 248.88 328.056 248.88 326.616ZM255.521 326.6C255.521 328.36 256.401 329 257.953 329H259.265V327.768H258.193C257.297 327.768 256.977 327.464 256.977 326.6V321.432H259.265V320.232H256.977V318.024H255.521V320.232H254.385V321.432H255.521V326.6ZM269.349 324.6C269.349 321.832 267.413 320.088 264.917 320.088C262.437 320.088 260.485 321.832 260.485 324.6C260.485 327.384 262.373 329.144 264.853 329.144C267.349 329.144 269.349 327.384 269.349 324.6ZM261.973 324.6C261.973 322.392 263.365 321.352 264.901 321.352C266.405 321.352 267.861 322.392 267.861 324.6C267.861 326.824 266.373 327.864 264.853 327.864C263.333 327.864 261.973 326.824 261.973 324.6ZM275.801 329H277.257V321.432H279.097V320.232H277.257V319.608C277.257 318.472 277.689 317.992 279.001 317.992V316.776C276.761 316.776 275.801 317.656 275.801 319.608V320.232H274.665V321.432H275.801V329ZM280.795 329H282.251V320.232H280.795V329ZM281.547 318.808C282.075 318.808 282.507 318.376 282.507 317.816C282.507 317.256 282.075 316.824 281.547 316.824C280.987 316.824 280.555 317.256 280.555 317.816C280.555 318.376 280.987 318.808 281.547 318.808ZM289.308 329H290.956L288.124 324.568L290.94 320.232H289.42L287.436 323.48L285.356 320.232H283.708L286.54 324.648L283.708 329H285.228L287.228 325.736L289.308 329ZM61.552 354.6C61.552 356.36 62.432 357 63.984 357H65.296V355.768H64.224C63.328 355.768 63.008 355.464 63.008 354.6V349.432H65.296V348.232H63.008V346.024H61.552V348.232H60.416V349.432H61.552V354.6ZM67.0601 357H68.5161V352.152C68.5161 350.264 69.5401 349.336 71.0281 349.336C72.5001 349.336 73.4761 350.248 73.4761 352.04V357H74.9161V351.832C74.9161 349.32 73.3641 348.072 71.4121 348.072C70.1801 348.072 69.0921 348.568 68.5161 349.496V345.16H67.0601V357ZM81.0225 349.32C82.5265 349.32 83.8065 350.264 83.7905 351.976H78.2545C78.4145 350.264 79.5985 349.32 81.0225 349.32ZM85.1185 354.296H83.5505C83.2305 355.24 82.3985 355.912 81.0865 355.912C79.5985 355.912 78.3505 354.936 78.2385 353.16H85.2465C85.2785 352.856 85.2945 352.6 85.2945 352.28C85.2945 349.88 83.6305 348.088 81.0865 348.088C78.5265 348.088 76.7505 349.832 76.7505 352.6C76.7505 355.384 78.5905 357.144 81.0865 357.144C83.2625 357.144 84.6705 355.896 85.1185 354.296ZM92.938 349.848V348.232H91.482V361.16H92.938V355.384C93.482 356.28 94.618 357.144 96.218 357.144C98.57 357.144 100.378 355.304 100.378 352.584C100.378 349.848 98.57 348.088 96.218 348.088C94.618 348.088 93.466 348.92 92.938 349.848ZM98.89 352.584C98.89 354.648 97.53 355.864 95.914 355.864C94.33 355.864 92.938 354.664 92.938 352.6C92.938 350.568 94.33 349.352 95.914 349.352C97.53 349.352 98.89 350.52 98.89 352.584ZM103.751 352.232C103.751 350.2 104.807 349.576 106.199 349.576H106.583V348.072C105.191 348.072 104.247 348.68 103.751 349.656V348.232H102.295V357H103.751V352.232ZM116.583 352.6C116.583 349.832 114.647 348.088 112.151 348.088C109.671 348.088 107.719 349.832 107.719 352.6C107.719 355.384 109.607 357.144 112.087 357.144C114.583 357.144 116.583 355.384 116.583 352.6ZM109.207 352.6C109.207 350.392 110.599 349.352 112.135 349.352C113.639 349.352 115.095 350.392 115.095 352.6C115.095 354.824 113.607 355.864 112.087 355.864C110.567 355.864 109.207 354.824 109.207 352.6ZM119.954 349.864V345.16H118.498V357H119.954V355.384C120.498 356.344 121.634 357.144 123.234 357.144C125.586 357.144 127.394 355.304 127.394 352.584C127.394 349.848 125.602 348.088 123.234 348.088C121.682 348.088 120.514 348.888 119.954 349.864ZM125.906 352.584C125.906 354.648 124.546 355.864 122.93 355.864C121.346 355.864 119.954 354.664 119.954 352.6C119.954 350.568 121.346 349.352 122.93 349.352C124.546 349.352 125.906 350.52 125.906 352.584ZM129.31 357H130.766V345.16H129.31V357ZM136.976 349.32C138.48 349.32 139.76 350.264 139.744 351.976H134.208C134.368 350.264 135.552 349.32 136.976 349.32ZM141.072 354.296H139.504C139.184 355.24 138.352 355.912 137.04 355.912C135.552 355.912 134.304 354.936 134.192 353.16H141.2C141.232 352.856 141.248 352.6 141.248 352.28C141.248 349.88 139.584 348.088 137.04 348.088C134.48 348.088 132.704 349.832 132.704 352.6C132.704 355.384 134.544 357.144 137.04 357.144C139.216 357.144 140.624 355.896 141.072 354.296ZM155.826 357H157.266V351.832C157.266 349.32 155.714 348.072 153.714 348.072C152.37 348.072 151.122 348.76 150.61 350.024C150.034 348.712 148.834 348.072 147.394 348.072C146.242 348.072 145.202 348.568 144.626 349.496V348.232H143.17V357H144.626V352.168C144.626 350.28 145.634 349.336 147.106 349.336C148.546 349.336 149.506 350.248 149.506 352.04V357H150.946V352.168C150.946 350.28 151.954 349.336 153.426 349.336C154.866 349.336 155.826 350.248 155.826 352.04V357ZM163.376 352.584C163.376 355.304 165.184 357.144 167.536 357.144C169.136 357.144 170.272 356.296 170.8 355.352V357.192C170.8 359.064 169.632 360.056 168.08 360.056C166.64 360.056 165.6 359.336 165.28 358.28H163.84C164.128 360.152 165.776 361.32 168.08 361.32C170.656 361.32 172.272 359.608 172.272 357.192V348.232H170.8V349.832C170.288 348.888 169.136 348.088 167.536 348.088C165.184 348.088 163.376 349.848 163.376 352.584ZM170.8 352.6C170.8 354.664 169.424 355.864 167.824 355.864C166.224 355.864 164.864 354.648 164.864 352.584C164.864 350.52 166.224 349.352 167.824 349.352C169.424 349.352 170.8 350.568 170.8 352.6ZM174.188 352.584C174.188 355.304 175.996 357.144 178.332 357.144C179.948 357.144 181.084 356.312 181.612 355.368V357H183.084V348.232H181.612V349.832C181.1 348.92 179.98 348.088 178.348 348.088C175.996 348.088 174.188 349.848 174.188 352.584ZM181.612 352.6C181.612 354.664 180.236 355.864 178.636 355.864C177.036 355.864 175.676 354.648 175.676 352.584C175.676 350.52 177.036 349.352 178.636 349.352C180.236 349.352 181.612 350.568 181.612 352.6ZM187.001 349.848V348.232H185.545V361.16H187.001V355.384C187.545 356.28 188.681 357.144 190.281 357.144C192.633 357.144 194.441 355.304 194.441 352.584C194.441 349.848 192.633 348.088 190.281 348.088C188.681 348.088 187.529 348.92 187.001 349.848ZM192.953 352.584C192.953 354.648 191.593 355.864 189.977 355.864C188.393 355.864 187.001 354.664 187.001 352.6C187.001 350.568 188.393 349.352 189.977 349.352C191.593 349.352 192.953 350.52 192.953 352.584ZM202.661 354.616C202.597 351.48 197.509 352.616 197.509 350.536C197.509 349.832 198.149 349.32 199.221 349.32C200.389 349.32 201.061 349.96 201.125 350.84H202.581C202.485 349.128 201.205 348.088 199.269 348.088C197.317 348.088 196.053 349.192 196.053 350.536C196.053 353.8 201.237 352.664 201.237 354.616C201.237 355.336 200.597 355.912 199.445 355.912C198.213 355.912 197.461 355.272 197.381 354.424H195.877C195.973 356.024 197.413 357.144 199.461 357.144C201.397 357.144 202.661 356.056 202.661 354.616ZM208.438 352.584C208.438 355.304 210.246 357.144 212.582 357.144C214.198 357.144 215.334 356.312 215.862 355.368V357H217.334V348.232H215.862V349.832C215.35 348.92 214.23 348.088 212.598 348.088C210.246 348.088 208.438 349.848 208.438 352.584ZM215.862 352.6C215.862 354.664 214.486 355.864 212.886 355.864C211.286 355.864 209.926 354.648 209.926 352.584C209.926 350.52 211.286 349.352 212.886 349.352C214.486 349.352 215.862 350.568 215.862 352.6ZM226.211 357H227.651V351.832C227.651 349.32 226.099 348.072 224.067 348.072C222.883 348.072 221.827 348.568 221.251 349.48V348.232H219.795V357H221.251V352.152C221.251 350.264 222.275 349.336 223.763 349.336C225.235 349.336 226.211 350.248 226.211 352.04V357ZM229.485 352.584C229.485 355.304 231.293 357.144 233.645 357.144C235.245 357.144 236.381 356.328 236.909 355.352V357H238.381V345.16H236.909V349.8C236.301 348.792 235.037 348.088 233.661 348.088C231.293 348.088 229.485 349.848 229.485 352.584ZM236.909 352.6C236.909 354.664 235.533 355.864 233.933 355.864C232.333 355.864 230.973 354.648 230.973 352.584C230.973 350.52 232.333 349.352 233.933 349.352C235.533 349.352 236.909 350.568 236.909 352.6ZM248.835 349.32C250.339 349.32 251.619 350.264 251.603 351.976H246.067C246.227 350.264 247.411 349.32 248.835 349.32ZM252.931 354.296H251.363C251.043 355.24 250.211 355.912 248.899 355.912C247.411 355.912 246.163 354.936 246.051 353.16H253.059C253.091 352.856 253.107 352.6 253.107 352.28C253.107 349.88 251.443 348.088 248.899 348.088C246.339 348.088 244.563 349.832 244.563 352.6C244.563 355.384 246.403 357.144 248.899 357.144C251.075 357.144 252.483 355.896 252.931 354.296ZM261.445 357H262.885V351.832C262.885 349.32 261.333 348.072 259.301 348.072C258.117 348.072 257.061 348.568 256.485 349.48V348.232H255.029V357H256.485V352.152C256.485 350.264 257.509 349.336 258.997 349.336C260.469 349.336 261.445 350.248 261.445 352.04V357ZM264.719 352.584C264.719 355.304 266.527 357.144 268.863 357.144C270.479 357.144 271.615 356.312 272.143 355.368V357H273.615V348.232H272.143V349.832C271.631 348.92 270.511 348.088 268.879 348.088C266.527 348.088 264.719 349.848 264.719 352.584ZM272.143 352.6C272.143 354.664 270.767 355.864 269.167 355.864C267.567 355.864 266.207 354.648 266.207 352.584C266.207 350.52 267.567 349.352 269.167 349.352C270.767 349.352 272.143 350.568 272.143 352.6ZM277.532 349.864V345.16H276.076V357H277.532V355.384C278.076 356.344 279.212 357.144 280.812 357.144C283.164 357.144 284.972 355.304 284.972 352.584C284.972 349.848 283.18 348.088 280.812 348.088C279.26 348.088 278.092 348.888 277.532 349.864ZM283.484 352.584C283.484 354.648 282.124 355.864 280.508 355.864C278.924 355.864 277.532 354.664 277.532 352.6C277.532 350.568 278.924 349.352 280.508 349.352C282.124 349.352 283.484 350.52 283.484 352.584ZM286.888 357H288.344V345.16H286.888V357ZM294.554 349.32C296.058 349.32 297.338 350.264 297.322 351.976H291.786C291.946 350.264 293.13 349.32 294.554 349.32ZM298.65 354.296H297.082C296.762 355.24 295.93 355.912 294.618 355.912C293.13 355.912 291.882 354.936 291.77 353.16H298.778C298.81 352.856 298.826 352.6 298.826 352.28C298.826 349.88 297.162 348.088 294.618 348.088C292.058 348.088 290.282 349.832 290.282 352.6C290.282 355.384 292.122 357.144 294.618 357.144C296.794 357.144 298.202 355.896 298.65 354.296ZM69.552 380.6C69.552 377.832 67.616 376.088 65.12 376.088C62.64 376.088 60.688 377.832 60.688 380.6C60.688 383.384 62.576 385.144 65.056 385.144C67.552 385.144 69.552 383.384 69.552 380.6ZM62.176 380.6C62.176 378.392 63.568 377.352 65.104 377.352C66.608 377.352 68.064 378.392 68.064 380.6C68.064 382.824 66.576 383.864 65.056 383.864C63.536 383.864 62.176 382.824 62.176 380.6ZM79.2424 376.232H77.7864V381.048C77.7864 382.936 76.7784 383.864 75.2744 383.864C73.8024 383.864 72.8264 382.952 72.8264 381.176V376.232H71.3864V381.368C71.3864 383.88 72.9704 385.128 74.9864 385.128C76.1544 385.128 77.2264 384.616 77.7864 383.704V385H79.2424V376.232ZM83.1568 380.232C83.1568 378.2 84.2128 377.576 85.6048 377.576H85.9888V376.072C84.5968 376.072 83.6528 376.68 83.1568 377.656V376.232H81.7008V385H83.1568V380.232ZM93.3911 377.848V376.232H91.9351V389.16H93.3911V383.384C93.9351 384.28 95.0711 385.144 96.6711 385.144C99.0231 385.144 100.831 383.304 100.831 380.584C100.831 377.848 99.0231 376.088 96.6711 376.088C95.0711 376.088 93.9191 376.92 93.3911 377.848ZM99.3431 380.584C99.3431 382.648 97.9831 383.864 96.3671 383.864C94.7831 383.864 93.3911 382.664 93.3911 380.6C93.3911 378.568 94.7831 377.352 96.3671 377.352C97.9831 377.352 99.3431 378.52 99.3431 380.584ZM106.476 377.32C107.98 377.32 109.26 378.264 109.244 379.976H103.708C103.868 378.264 105.052 377.32 106.476 377.32ZM110.572 382.296H109.004C108.684 383.24 107.852 383.912 106.54 383.912C105.052 383.912 103.804 382.936 103.692 381.16H110.7C110.732 380.856 110.748 380.6 110.748 380.28C110.748 377.88 109.084 376.088 106.54 376.088C103.98 376.088 102.204 377.832 102.204 380.6C102.204 383.384 104.044 385.144 106.54 385.144C108.716 385.144 110.124 383.896 110.572 382.296ZM120.99 380.6C120.99 377.832 119.054 376.088 116.558 376.088C114.078 376.088 112.126 377.832 112.126 380.6C112.126 383.384 114.014 385.144 116.494 385.144C118.99 385.144 120.99 383.384 120.99 380.6ZM113.614 380.6C113.614 378.392 115.006 377.352 116.542 377.352C118.046 377.352 119.502 378.392 119.502 380.6C119.502 382.824 118.014 383.864 116.494 383.864C114.974 383.864 113.614 382.824 113.614 380.6ZM124.36 377.848V376.232H122.904V389.16H124.36V383.384C124.904 384.28 126.04 385.144 127.64 385.144C129.992 385.144 131.8 383.304 131.8 380.584C131.8 377.848 129.992 376.088 127.64 376.088C126.04 376.088 124.888 376.92 124.36 377.848ZM130.312 380.584C130.312 382.648 128.952 383.864 127.336 383.864C125.752 383.864 124.36 382.664 124.36 380.6C124.36 378.568 125.752 377.352 127.336 377.352C128.952 377.352 130.312 378.52 130.312 380.584ZM133.716 385H135.172V373.16H133.716V385ZM141.382 377.32C142.886 377.32 144.166 378.264 144.15 379.976H138.614C138.774 378.264 139.958 377.32 141.382 377.32ZM145.478 382.296H143.91C143.59 383.24 142.758 383.912 141.446 383.912C139.958 383.912 138.71 382.936 138.598 381.16H145.606C145.638 380.856 145.654 380.6 145.654 380.28C145.654 377.88 143.99 376.088 141.446 376.088C138.886 376.088 137.11 377.832 137.11 380.6C137.11 383.384 138.95 385.144 141.446 385.144C143.622 385.144 145.03 383.896 145.478 382.296ZM152.161 382.6C152.161 384.36 153.041 385 154.593 385H155.905V383.768H154.833C153.937 383.768 153.617 383.464 153.617 382.6V377.432H155.905V376.232H153.617V374.024H152.161V376.232H151.025V377.432H152.161V382.6ZM165.99 380.6C165.99 377.832 164.054 376.088 161.558 376.088C159.078 376.088 157.126 377.832 157.126 380.6C157.126 383.384 159.014 385.144 161.494 385.144C163.99 385.144 165.99 383.384 165.99 380.6ZM158.614 380.6C158.614 378.392 160.006 377.352 161.542 377.352C163.046 377.352 164.502 378.392 164.502 380.6C164.502 382.824 163.014 383.864 161.494 383.864C159.974 383.864 158.614 382.824 158.614 380.6ZM172.49 382.6C172.49 384.36 173.37 385 174.922 385H176.234V383.768H175.161C174.266 383.768 173.946 383.464 173.946 382.6V377.432H176.234V376.232H173.946V374.024H172.49V376.232H171.354V377.432H172.49V382.6ZM177.998 385H179.454V380.152C179.454 378.264 180.478 377.336 181.966 377.336C183.438 377.336 184.414 378.248 184.414 380.04V385H185.854V379.832C185.854 377.32 184.302 376.072 182.35 376.072C181.118 376.072 180.03 376.568 179.454 377.496V373.16H177.998V385ZM188.232 385H189.688V376.232H188.232V385ZM188.984 374.808C189.512 374.808 189.944 374.376 189.944 373.816C189.944 373.256 189.512 372.824 188.984 372.824C188.424 372.824 187.992 373.256 187.992 373.816C187.992 374.376 188.424 374.808 188.984 374.808ZM198.586 385H200.026V379.832C200.026 377.32 198.474 376.072 196.442 376.072C195.258 376.072 194.202 376.568 193.626 377.48V376.232H192.17V385H193.626V380.152C193.626 378.264 194.65 377.336 196.138 377.336C197.61 377.336 198.586 378.248 198.586 380.04V385ZM202.404 385H203.86V381.128L207.3 385H209.284L205.14 380.6L209.268 376.232H207.236L203.86 380.12V373.16H202.404V385ZM223.224 380.6C223.224 377.832 221.288 376.088 218.792 376.088C216.312 376.088 214.36 377.832 214.36 380.6C214.36 383.384 216.248 385.144 218.728 385.144C221.224 385.144 223.224 383.384 223.224 380.6ZM215.848 380.6C215.848 378.392 217.24 377.352 218.776 377.352C220.28 377.352 221.736 378.392 221.736 380.6C221.736 382.824 220.248 383.864 218.728 383.864C217.208 383.864 215.848 382.824 215.848 380.6ZM232.914 376.232H231.458V381.048C231.458 382.936 230.45 383.864 228.946 383.864C227.474 383.864 226.498 382.952 226.498 381.176V376.232H225.058V381.368C225.058 383.88 226.642 385.128 228.658 385.128C229.826 385.128 230.898 384.616 231.458 383.704V385H232.914V376.232ZM235.693 382.6C235.693 384.36 236.573 385 238.125 385H239.437V383.768H238.365C237.469 383.768 237.149 383.464 237.149 382.6V377.432H239.437V376.232H237.149V374.024H235.693V376.232H234.557V377.432H235.693V382.6ZM253.786 380.6C253.786 377.832 251.85 376.088 249.354 376.088C246.874 376.088 244.922 377.832 244.922 380.6C244.922 383.384 246.81 385.144 249.29 385.144C251.786 385.144 253.786 383.384 253.786 380.6ZM246.41 380.6C246.41 378.392 247.802 377.352 249.338 377.352C250.842 377.352 252.298 378.392 252.298 380.6C252.298 382.824 250.81 383.864 249.29 383.864C247.77 383.864 246.41 382.824 246.41 380.6ZM255.973 385H257.429V377.432H259.269V376.232H257.429V375.608C257.429 374.472 257.861 373.992 259.173 373.992V372.776C256.933 372.776 255.973 373.656 255.973 375.608V376.232H254.837V377.432H255.973V385ZM266.688 377.864V373.16H265.232V385H266.688V383.384C267.232 384.344 268.368 385.144 269.968 385.144C272.32 385.144 274.128 383.304 274.128 380.584C274.128 377.848 272.336 376.088 269.968 376.088C268.416 376.088 267.248 376.888 266.688 377.864ZM272.64 380.584C272.64 382.648 271.28 383.864 269.664 383.864C268.08 383.864 266.688 382.664 266.688 380.6C266.688 378.568 268.08 377.352 269.664 377.352C271.28 377.352 272.64 378.52 272.64 380.584ZM284.365 380.6C284.365 377.832 282.429 376.088 279.933 376.088C277.453 376.088 275.501 377.832 275.501 380.6C275.501 383.384 277.389 385.144 279.869 385.144C282.365 385.144 284.365 383.384 284.365 380.6ZM276.989 380.6C276.989 378.392 278.381 377.352 279.917 377.352C281.421 377.352 282.877 378.392 282.877 380.6C282.877 382.824 281.389 383.864 279.869 383.864C278.349 383.864 276.989 382.824 276.989 380.6ZM290.855 385H292.503L289.671 380.568L292.487 376.232H290.967L288.983 379.48L286.903 376.232H285.255L288.087 380.648L285.255 385H286.775L288.775 381.736L290.855 385ZM295.359 384.104C295.359 383.544 294.927 383.112 294.399 383.112C293.839 383.112 293.407 383.544 293.407 384.104C293.407 384.664 293.839 385.096 294.399 385.096C294.927 385.096 295.359 384.664 295.359 384.104Z" fill="#EDEDED"/>
<g opacity="0.35" filter="url(#filter0_f_315_682)">
<rect x="77" y="77" width="65" height="69.3919" rx="28" fill="#EFB30A"/>
</g>
<rect x="61" y="60" width="98" height="103" rx="34" fill="white"/>
<path fill-rule="evenodd" clip-rule="evenodd" d="M108.607 81.2386C108.612 80.609 108.204 80.2815 107.728 80H106.612C106.306 80.0548 105.999 80.1049 105.691 80.1549C105.042 80.2606 104.392 80.3664 103.753 80.5169C88.9705 83.9886 82.3239 100.905 90.6083 113.445C90.8983 113.885 90.9699 114.195 90.7209 114.707C89.5386 117.147 90.7294 120.081 93.2475 121.07C95.7792 122.063 98.6009 120.733 99.4505 118.143C100.298 115.56 98.8022 112.815 96.1699 112.124C95.0524 111.831 93.9657 111.983 92.9011 112.411C92.8619 112.354 92.8247 112.301 92.7891 112.25C92.707 112.132 92.6335 112.026 92.5634 111.919C87.72 104.546 88.6822 94.5744 94.8596 88.269C98.2682 84.7871 102.417 82.8746 107.274 82.4908C108.119 82.4242 108.6 81.9636 108.607 81.2386ZM94.9961 114.456C96.2466 114.466 97.2105 115.458 97.1952 116.717C97.1798 117.96 96.1613 118.943 94.9211 118.909C93.7098 118.875 92.7288 117.873 92.734 116.672C92.7391 115.441 93.7541 114.446 94.9961 114.456ZM104.053 131.176C104.05 131.226 104.047 131.275 104.045 131.325L104.047 131.33L103.924 131.388C103.767 131.136 103.613 130.882 103.458 130.628C103.111 130.057 102.763 129.486 102.394 128.93C101.332 127.335 99.4455 126.572 97.6457 126.978C94.6875 127.645 93.1435 130.744 94.4606 133.5C95.4948 135.666 96.5666 137.812 97.6385 139.959C98.0979 140.879 98.5574 141.8 99.0139 142.721L99.0199 142.733C99.064 142.822 99.1086 142.911 99.1657 142.991C99.5445 143.527 100.188 143.69 100.754 143.399C101.285 143.126 101.547 142.508 101.361 141.921C101.308 141.753 101.226 141.592 101.144 141.433C101.122 141.389 101.1 141.346 101.078 141.302C100.675 140.486 100.271 139.671 99.8673 138.856C98.8403 136.785 97.8132 134.713 96.808 132.632C96.6033 132.206 96.4788 131.678 96.5129 131.213C96.5794 130.286 97.2926 129.577 98.1439 129.411C99.0549 129.234 99.8993 129.597 100.42 130.442C101.199 131.706 101.971 132.974 102.744 134.242C103.229 135.038 103.715 135.835 104.202 136.631C104.526 137.158 104.988 137.424 105.614 137.262C106.237 137.1 106.522 136.655 106.551 136.03C106.559 135.849 106.559 135.666 106.558 135.484C106.558 135.439 106.558 135.393 106.558 135.348V108.233C106.558 108.197 106.558 108.161 106.558 108.125C106.557 107.872 106.557 107.617 106.583 107.366C106.708 106.223 107.755 105.457 108.885 105.67C109.873 105.856 110.466 106.65 110.466 107.803V130.697C110.466 131.837 110.884 132.397 111.725 132.388C112.549 132.38 112.949 131.84 112.949 130.732C112.949 130.172 112.948 129.613 112.947 129.053C112.945 127.71 112.944 126.366 112.952 125.023C112.961 123.843 113.807 122.964 114.904 122.959C115.973 122.954 116.825 123.797 116.874 124.945C116.895 125.413 116.89 125.881 116.886 126.349C116.884 126.543 116.883 126.737 116.883 126.931C116.883 127.364 116.883 127.797 116.882 128.231C116.88 129.369 116.879 130.508 116.896 131.646C116.907 132.339 117.417 132.828 118.065 132.857C118.674 132.883 119.211 132.446 119.327 131.803C119.364 131.598 119.363 131.385 119.363 131.174C119.363 131.158 119.363 131.141 119.363 131.124C119.364 130.369 119.364 129.614 119.364 128.86C119.363 127.566 119.362 126.274 119.37 124.981C119.373 124.083 119.855 123.386 120.621 123.09C121.886 122.602 123.238 123.525 123.253 124.928C123.262 125.845 123.261 126.763 123.26 127.682C123.258 128.915 123.256 130.148 123.28 131.38C123.289 131.798 123.437 132.339 123.725 132.588C124.007 132.83 124.575 132.898 124.969 132.815C125.488 132.704 125.742 132.231 125.742 131.673C125.742 131.253 125.742 130.833 125.741 130.413C125.739 129.469 125.737 128.524 125.75 127.579C125.769 126.277 126.709 125.417 127.946 125.535C128.965 125.631 129.679 126.494 129.679 127.669C129.682 130.079 129.682 132.488 129.682 134.898C129.682 137.307 129.682 139.716 129.685 142.126C129.685 142.991 130.169 143.533 130.909 143.537C131.614 143.539 132.158 142.993 132.158 142.198C132.16 141.322 132.162 140.445 132.164 139.569C132.173 135.481 132.182 131.393 132.143 127.306C132.122 125.223 130.597 123.508 128.571 123.109C127.53 122.904 126.527 123.09 125.578 123.549C124.167 120.101 120.377 119.6 118.08 121.796C117.874 121.613 117.666 121.43 117.425 121.221C117.486 121.188 117.541 121.157 117.593 121.128C117.708 121.065 117.805 121.011 117.906 120.961C129.835 115.146 133.782 100.421 126.366 89.378C126.163 89.076 126.165 88.8593 126.336 88.5522C126.858 87.6122 126.987 86.5869 126.8 85.5446C126.322 82.8832 123.702 81.1652 121.11 81.7828C118.447 82.4174 116.881 85.0908 117.642 87.7044C118.392 90.2855 121.141 91.7203 123.691 90.8144C124.152 90.6506 124.341 90.7598 124.573 91.1232C126.453 94.0609 127.465 97.2631 127.629 100.752C128.04 109.493 122.342 117.449 113.918 119.846C113.709 119.905 113.499 119.958 113.28 120.013C113.178 120.039 113.074 120.065 112.967 120.093V113.434C113.051 113.398 113.133 113.363 113.215 113.328C113.367 113.264 113.515 113.201 113.66 113.131C118.287 110.903 120.907 107.228 121.211 102.11C121.687 94.0951 114.426 87.7095 106.496 89.035C100.892 89.9733 96.6409 94.4516 95.9636 100.136C95.3136 105.592 98.41 110.925 103.54 113.139C103.948 113.315 104.077 113.528 104.077 113.963C104.066 118.633 104.066 123.305 104.067 127.975C104.067 128.909 104.067 129.844 104.067 130.778C104.067 130.91 104.06 131.043 104.053 131.176ZM112.949 110.67C116.548 109.115 119.624 104.544 118.532 99.3803C117.531 94.6529 113.058 91.1232 108.276 91.3416C103.153 91.577 99.0429 95.3319 98.4441 100.324C97.9357 104.56 100.662 109.584 104.071 110.568C104.071 110.391 104.07 110.215 104.069 110.041C104.068 109.697 104.067 109.358 104.071 109.019C104.073 108.825 104.072 108.63 104.071 108.436C104.066 107.538 104.06 106.64 104.437 105.778C104.497 105.641 104.352 105.365 104.231 105.21C103.025 103.685 102.591 101.984 103.076 100.09C103.646 97.8602 105.572 96.1696 107.795 95.8966C110.185 95.6032 112.438 96.7479 113.566 98.8275C114.68 100.88 114.426 103.41 112.884 105.196C112.597 105.529 112.575 105.78 112.698 106.18C112.851 106.685 112.918 107.23 112.938 107.76C112.963 108.423 112.958 109.088 112.953 109.777C112.951 110.07 112.949 110.367 112.949 110.67ZM110.54 103.606C109.107 102.942 107.703 102.988 106.283 103.719C105.07 102.484 105.07 100.568 106.247 99.3257C107.402 98.1076 109.347 97.9984 110.627 99.0834C111.922 100.18 112.157 102.141 111.121 103.427C111.012 103.562 110.681 103.671 110.54 103.606ZM122.168 84.1507C123.415 84.1559 124.389 85.1505 124.379 86.4061V86.4044C124.369 87.6583 123.379 88.6188 122.118 88.6C120.902 88.583 119.924 87.5969 119.919 86.3873C119.914 85.1658 120.94 84.1456 122.168 84.1507Z" fill="#EFB30A"/>
<defs>
<filter id="filter0_f_315_682" x="0" y="0" width="219" height="223.393" filterUnits="userSpaceOnUse" color-interpolation-filters="sRGB">
<feFlood flood-opacity="0" result="BackgroundImageFix"/>
<feBlend mode="normal" in="SourceGraphic" in2="BackgroundImageFix" result="shape"/>
<feGaussianBlur stdDeviation="38.5" result="effect1_foregroundBlur_315_682"/>
</filter>
</defs>
</svg>
