<svg width="279" height="362" viewBox="0 0 279 362" fill="none" xmlns="http://www.w3.org/2000/svg">
<path d="M70.6901 230H73.6501L68.6301 216.02H65.3701L60.3501 230H63.2901L64.2101 227.34H69.7701L70.6901 230ZM69.0101 225.1H64.9701L66.9901 219.26L69.0101 225.1ZM74.8065 224.42C74.8065 227.88 77.0465 230.18 79.8665 230.18C81.6065 230.18 82.8665 229.32 83.5265 228.36V230.08C83.5265 232.14 82.3265 233.02 80.7865 233.02C79.3865 233.02 78.3465 232.36 78.0665 231.36H75.2865C75.5665 233.9 77.7465 235.46 80.8665 235.46C84.5065 235.46 86.3465 233.08 86.3465 230.08V218.92H83.5265V220.5C82.8665 219.54 81.6065 218.74 79.8665 218.74C77.0465 218.74 74.8065 220.96 74.8065 224.42ZM83.5265 224.46C83.5265 226.56 82.1265 227.72 80.5865 227.72C79.0865 227.72 77.6665 226.52 77.6665 224.42C77.6665 222.32 79.0865 221.2 80.5865 221.2C82.1265 221.2 83.5265 222.36 83.5265 224.46ZM89.0812 230H91.8812V218.92H89.0812V230ZM90.5012 217.6C91.4812 217.6 92.2212 216.88 92.2212 215.96C92.2212 215.04 91.4812 214.32 90.5012 214.32C89.5012 214.32 88.7812 215.04 88.7812 215.96C88.7812 216.88 89.5012 217.6 90.5012 217.6ZM94.6476 230H97.4476V215.2H94.6476V230ZM104.974 221.04C106.414 221.04 107.574 221.96 107.614 223.42H102.354C102.574 221.9 103.634 221.04 104.974 221.04ZM110.234 226.52H107.214C106.854 227.26 106.194 227.86 104.994 227.86C103.594 227.86 102.474 226.94 102.334 225.3H110.434C110.494 224.94 110.514 224.58 110.514 224.22C110.514 220.92 108.254 218.74 105.054 218.74C101.774 218.74 99.494 220.96 99.494 224.46C99.494 227.94 101.834 230.18 105.054 230.18C107.794 230.18 109.634 228.56 110.234 226.52ZM127.083 225.96C127.083 221.04 119.923 222.6 119.923 219.8C119.923 218.66 120.743 218.12 121.843 218.16C123.043 218.18 123.783 218.9 123.843 219.82H126.923C126.743 217.3 124.783 215.84 121.923 215.84C119.043 215.84 117.003 217.36 117.003 219.88C116.983 224.94 124.183 223.12 124.183 226.14C124.183 227.14 123.403 227.84 122.083 227.84C120.783 227.84 120.043 227.1 119.963 225.98H116.963C117.003 228.62 119.243 230.14 122.143 230.14C125.323 230.14 127.083 228.16 127.083 225.96ZM134.231 226.66L131.371 218.92H128.231L132.671 229.72L130.271 235.24H133.251L140.111 218.92H137.131L134.231 226.66ZM150.22 226.84C150.14 222.78 144 224.04 144 222.02C144 221.38 144.54 220.96 145.58 220.96C146.68 220.96 147.36 221.54 147.44 222.4H150.12C149.96 220.2 148.34 218.74 145.66 218.74C142.92 218.74 141.28 220.22 141.28 222.06C141.28 226.12 147.54 224.86 147.54 226.84C147.54 227.48 146.94 227.98 145.84 227.98C144.72 227.98 143.94 227.34 143.84 226.5H141.02C141.14 228.56 143.08 230.18 145.86 230.18C148.56 230.18 150.22 228.74 150.22 226.84ZM152.959 226.56C152.959 229.1 154.379 230 156.499 230H158.259V227.64H156.959C156.079 227.64 155.779 227.32 155.779 226.58V221.22H158.259V218.92H155.779V216.18H152.959V218.92H151.639V221.22H152.959V226.56ZM165.033 221.04C166.473 221.04 167.633 221.96 167.673 223.42H162.413C162.633 221.9 163.693 221.04 165.033 221.04ZM170.293 226.52H167.273C166.913 227.26 166.253 227.86 165.053 227.86C163.653 227.86 162.533 226.94 162.393 225.3H170.493C170.553 224.94 170.573 224.58 170.573 224.22C170.573 220.92 168.313 218.74 165.113 218.74C161.833 218.74 159.553 220.96 159.553 224.46C159.553 227.94 161.893 230.18 165.113 230.18C167.853 230.18 169.693 228.56 170.293 226.52ZM188.116 230H190.916V223.5C190.916 220.44 189.036 218.76 186.376 218.76C184.756 218.76 183.296 219.62 182.576 220.88C181.816 219.5 180.396 218.76 178.676 218.76C177.296 218.76 176.116 219.34 175.416 220.26V218.92H172.616V230H175.416V223.88C175.416 222.12 176.396 221.2 177.916 221.2C179.396 221.2 180.376 222.12 180.376 223.88V230H183.176V223.88C183.176 222.12 184.156 221.2 185.656 221.2C187.136 221.2 188.116 222.12 188.116 223.88V230Z" fill="#EDEDED"/>
<path d="M66.2 265.128C66.2 266.376 65.48 267.272 63.832 267.272H61.688V263.048H63.832C65.496 263.048 66.2 263.864 66.2 265.128ZM60.232 261.848V273H61.688V268.44H63.448L66.104 273H67.848L65.048 268.328C66.92 267.912 67.704 266.552 67.704 265.128C67.704 263.304 66.456 261.848 63.832 261.848H60.232ZM69.4224 268.584C69.4224 271.304 71.2304 273.144 73.5664 273.144C75.1824 273.144 76.3184 272.312 76.8464 271.368V273H78.3184V264.232H76.8464V265.832C76.3344 264.92 75.2144 264.088 73.5824 264.088C71.2304 264.088 69.4224 265.848 69.4224 268.584ZM76.8464 268.6C76.8464 270.664 75.4704 271.864 73.8704 271.864C72.2704 271.864 70.9104 270.648 70.9104 268.584C70.9104 266.52 72.2704 265.352 73.8704 265.352C75.4704 265.352 76.8464 266.568 76.8464 268.6ZM82.2349 265.848V264.232H80.7789V277.16H82.2349V271.384C82.7789 272.28 83.9149 273.144 85.5149 273.144C87.8669 273.144 89.6749 271.304 89.6749 268.584C89.6749 265.848 87.8669 264.088 85.5149 264.088C83.9149 264.088 82.7629 264.92 82.2349 265.848ZM88.1869 268.584C88.1869 270.648 86.8269 271.864 85.2109 271.864C83.6269 271.864 82.2349 270.664 82.2349 268.6C82.2349 266.568 83.6269 265.352 85.2109 265.352C86.8269 265.352 88.1869 266.52 88.1869 268.584ZM91.5914 273H93.0474V264.232H91.5914V273ZM92.3434 262.808C92.8714 262.808 93.3034 262.376 93.3034 261.816C93.3034 261.256 92.8714 260.824 92.3434 260.824C91.7834 260.824 91.3514 261.256 91.3514 261.816C91.3514 262.376 91.7834 262.808 92.3434 262.808ZM94.9849 268.584C94.9849 271.304 96.7929 273.144 99.1449 273.144C100.745 273.144 101.881 272.328 102.409 271.352V273H103.881V261.16H102.409V265.8C101.801 264.792 100.537 264.088 99.1609 264.088C96.7929 264.088 94.9849 265.848 94.9849 268.584ZM102.409 268.6C102.409 270.664 101.033 271.864 99.4329 271.864C97.8329 271.864 96.4729 270.648 96.4729 268.584C96.4729 266.52 97.8329 265.352 99.4329 265.352C101.033 265.352 102.409 266.568 102.409 268.6ZM114.335 265.32C115.839 265.32 117.119 266.264 117.103 267.976H111.567C111.727 266.264 112.911 265.32 114.335 265.32ZM118.431 270.296H116.863C116.543 271.24 115.711 271.912 114.399 271.912C112.911 271.912 111.663 270.936 111.551 269.16H118.559C118.591 268.856 118.607 268.6 118.607 268.28C118.607 265.88 116.943 264.088 114.399 264.088C111.839 264.088 110.063 265.832 110.063 268.6C110.063 271.384 111.903 273.144 114.399 273.144C116.575 273.144 117.983 271.896 118.431 270.296ZM125.105 273H126.753L123.921 268.568L126.737 264.232H125.217L123.233 267.48L121.153 264.232H119.505L122.337 268.648L119.505 273H121.025L123.025 269.736L125.105 273ZM129.641 265.848V264.232H128.185V277.16H129.641V271.384C130.185 272.28 131.321 273.144 132.921 273.144C135.273 273.144 137.081 271.304 137.081 268.584C137.081 265.848 135.273 264.088 132.921 264.088C131.321 264.088 130.169 264.92 129.641 265.848ZM135.593 268.584C135.593 270.648 134.233 271.864 132.617 271.864C131.033 271.864 129.641 270.664 129.641 268.6C129.641 266.568 131.033 265.352 132.617 265.352C134.233 265.352 135.593 266.52 135.593 268.584ZM142.726 265.32C144.23 265.32 145.51 266.264 145.494 267.976H139.958C140.118 266.264 141.302 265.32 142.726 265.32ZM146.822 270.296H145.254C144.934 271.24 144.102 271.912 142.79 271.912C141.302 271.912 140.054 270.936 139.942 269.16H146.95C146.982 268.856 146.998 268.6 146.998 268.28C146.998 265.88 145.334 264.088 142.79 264.088C140.23 264.088 138.454 265.832 138.454 268.6C138.454 271.384 140.294 273.144 142.79 273.144C144.966 273.144 146.374 271.896 146.822 270.296ZM150.376 268.232C150.376 266.2 151.432 265.576 152.824 265.576H153.208V264.072C151.816 264.072 150.872 264.68 150.376 265.656V264.232H148.92V273H150.376V268.232ZM154.888 273H156.344V264.232H154.888V273ZM155.64 262.808C156.168 262.808 156.6 262.376 156.6 261.816C156.6 261.256 156.168 260.824 155.64 260.824C155.08 260.824 154.648 261.256 154.648 261.816C154.648 262.376 155.08 262.808 155.64 262.808ZM171.482 273H172.922V267.832C172.922 265.32 171.37 264.072 169.37 264.072C168.026 264.072 166.778 264.76 166.266 266.024C165.69 264.712 164.49 264.072 163.05 264.072C161.898 264.072 160.858 264.568 160.282 265.496V264.232H158.826V273H160.282V268.168C160.282 266.28 161.29 265.336 162.762 265.336C164.202 265.336 165.162 266.248 165.162 268.04V273H166.602V268.168C166.602 266.28 167.61 265.336 169.082 265.336C170.522 265.336 171.482 266.248 171.482 268.04V273ZM179.038 265.32C180.542 265.32 181.822 266.264 181.806 267.976H176.27C176.43 266.264 177.614 265.32 179.038 265.32ZM183.134 270.296H181.566C181.246 271.24 180.414 271.912 179.102 271.912C177.614 271.912 176.366 270.936 176.254 269.16H183.262C183.294 268.856 183.31 268.6 183.31 268.28C183.31 265.88 181.646 264.088 179.102 264.088C176.542 264.088 174.766 265.832 174.766 268.6C174.766 271.384 176.606 273.144 179.102 273.144C181.278 273.144 182.686 271.896 183.134 270.296ZM191.648 273H193.088V267.832C193.088 265.32 191.536 264.072 189.504 264.072C188.32 264.072 187.264 264.568 186.688 265.48V264.232H185.232V273H186.688V268.152C186.688 266.264 187.712 265.336 189.2 265.336C190.672 265.336 191.648 266.248 191.648 268.04V273ZM195.786 270.6C195.786 272.36 196.666 273 198.218 273H199.53V271.768H198.458C197.562 271.768 197.242 271.464 197.242 270.6V265.432H199.53V264.232H197.242V262.024H195.786V264.232H194.65V265.432H195.786V270.6ZM200.751 268.584C200.751 271.304 202.559 273.144 204.895 273.144C206.511 273.144 207.647 272.312 208.175 271.368V273H209.647V264.232H208.175V265.832C207.663 264.92 206.543 264.088 204.911 264.088C202.559 264.088 200.751 265.848 200.751 268.584ZM208.175 268.6C208.175 270.664 206.799 271.864 205.199 271.864C203.599 271.864 202.239 270.648 202.239 268.584C202.239 266.52 203.599 265.352 205.199 265.352C206.799 265.352 208.175 266.568 208.175 268.6ZM212.427 270.6C212.427 272.36 213.307 273 214.859 273H216.171V271.768H215.099C214.203 271.768 213.883 271.464 213.883 270.6V265.432H216.171V264.232H213.883V262.024H212.427V264.232H211.291V265.432H212.427V270.6ZM217.935 273H219.391V264.232H217.935V273ZM218.687 262.808C219.215 262.808 219.647 262.376 219.647 261.816C219.647 261.256 219.215 260.824 218.687 260.824C218.127 260.824 217.695 261.256 217.695 261.816C217.695 262.376 218.127 262.808 218.687 262.808ZM230.193 268.6C230.193 265.832 228.257 264.088 225.761 264.088C223.281 264.088 221.329 265.832 221.329 268.6C221.329 271.384 223.217 273.144 225.697 273.144C228.193 273.144 230.193 271.384 230.193 268.6ZM222.817 268.6C222.817 266.392 224.209 265.352 225.745 265.352C227.249 265.352 228.705 266.392 228.705 268.6C228.705 270.824 227.217 271.864 225.697 271.864C224.177 271.864 222.817 270.824 222.817 268.6ZM238.523 273H239.963V267.832C239.963 265.32 238.411 264.072 236.379 264.072C235.195 264.072 234.139 264.568 233.563 265.48V264.232H232.107V273H233.563V268.152C233.563 266.264 234.587 265.336 236.075 265.336C237.547 265.336 238.523 266.248 238.523 268.04V273ZM246.063 268.584C246.063 271.304 247.871 273.144 250.207 273.144C251.823 273.144 252.959 272.312 253.487 271.368V273H254.959V264.232H253.487V265.832C252.975 264.92 251.855 264.088 250.223 264.088C247.871 264.088 246.063 265.848 246.063 268.584ZM253.487 268.6C253.487 270.664 252.111 271.864 250.511 271.864C248.911 271.864 247.551 270.648 247.551 268.584C247.551 266.52 248.911 265.352 250.511 265.352C252.111 265.352 253.487 266.568 253.487 268.6ZM263.836 273H265.276V267.832C265.276 265.32 263.724 264.072 261.692 264.072C260.508 264.072 259.452 264.568 258.876 265.48V264.232H257.42V273H258.876V268.152C258.876 266.264 259.9 265.336 261.388 265.336C262.86 265.336 263.836 266.248 263.836 268.04V273ZM267.11 268.584C267.11 271.304 268.918 273.144 271.27 273.144C272.87 273.144 274.006 272.328 274.534 271.352V273H276.006V261.16H274.534V265.8C273.926 264.792 272.662 264.088 271.286 264.088C268.918 264.088 267.11 265.848 267.11 268.584ZM274.534 268.6C274.534 270.664 273.158 271.864 271.558 271.864C269.958 271.864 268.598 270.648 268.598 268.584C268.598 266.52 269.958 265.352 271.558 265.352C273.158 265.352 274.534 266.568 274.534 268.6ZM60.232 301H61.688V292.728L65.384 301H66.408L70.088 292.744V301H71.544V289.928H69.992L65.896 299.08L61.8 289.928H60.232V301ZM82.3333 296.6C82.3333 293.832 80.3973 292.088 77.9013 292.088C75.4213 292.088 73.4693 293.832 73.4693 296.6C73.4693 299.384 75.3573 301.144 77.8373 301.144C80.3333 301.144 82.3333 299.384 82.3333 296.6ZM74.9573 296.6C74.9573 294.392 76.3493 293.352 77.8853 293.352C79.3893 293.352 80.8453 294.392 80.8453 296.6C80.8453 298.824 79.3573 299.864 77.8373 299.864C76.3173 299.864 74.9573 298.824 74.9573 296.6ZM83.7036 296.584C83.7036 299.304 85.5116 301.144 87.8636 301.144C89.4636 301.144 90.5996 300.328 91.1276 299.352V301H92.5996V289.16H91.1276V293.8C90.5196 292.792 89.2556 292.088 87.8796 292.088C85.5116 292.088 83.7036 293.848 83.7036 296.584ZM91.1276 296.6C91.1276 298.664 89.7516 299.864 88.1516 299.864C86.5516 299.864 85.1916 298.648 85.1916 296.584C85.1916 294.52 86.5516 293.352 88.1516 293.352C89.7516 293.352 91.1276 294.568 91.1276 296.6ZM102.836 292.232H101.38V297.048C101.38 298.936 100.372 299.864 98.8681 299.864C97.3961 299.864 96.4201 298.952 96.4201 297.176V292.232H94.9801V297.368C94.9801 299.88 96.5641 301.128 98.5801 301.128C99.7481 301.128 100.82 300.616 101.38 299.704V301H102.836V292.232ZM105.295 301H106.751V289.16H105.295V301ZM108.688 296.584C108.688 299.304 110.496 301.144 112.832 301.144C114.448 301.144 115.584 300.312 116.112 299.368V301H117.584V292.232H116.112V293.832C115.6 292.92 114.48 292.088 112.848 292.088C110.496 292.088 108.688 293.848 108.688 296.584ZM116.112 296.6C116.112 298.664 114.736 299.864 113.136 299.864C111.536 299.864 110.176 298.648 110.176 296.584C110.176 294.52 111.536 293.352 113.136 293.352C114.736 293.352 116.112 294.568 116.112 296.6ZM121.501 296.232C121.501 294.2 122.557 293.576 123.949 293.576H124.333V292.072C122.941 292.072 121.997 292.68 121.501 293.656V292.232H120.045V301H121.501V296.232ZM126.013 301H127.469V292.232H126.013V301ZM126.765 290.808C127.293 290.808 127.725 290.376 127.725 289.816C127.725 289.256 127.293 288.824 126.765 288.824C126.205 288.824 125.773 289.256 125.773 289.816C125.773 290.376 126.205 290.808 126.765 290.808ZM135.311 292.232H129.407V293.416H133.631L129.375 299.8V301H135.343V299.8H131.039L135.311 293.416V292.232ZM140.96 293.32C142.464 293.32 143.744 294.264 143.728 295.976H138.192C138.352 294.264 139.536 293.32 140.96 293.32ZM145.056 298.296H143.488C143.168 299.24 142.336 299.912 141.024 299.912C139.536 299.912 138.288 298.936 138.176 297.16H145.184C145.216 296.856 145.232 296.6 145.232 296.28C145.232 293.88 143.568 292.088 141.024 292.088C138.464 292.088 136.688 293.832 136.688 296.6C136.688 299.384 138.528 301.144 141.024 301.144C143.2 301.144 144.608 299.896 145.056 298.296ZM146.61 296.584C146.61 299.304 148.418 301.144 150.77 301.144C152.37 301.144 153.506 300.328 154.034 299.352V301H155.506V289.16H154.034V293.8C153.426 292.792 152.162 292.088 150.786 292.088C148.418 292.088 146.61 293.848 146.61 296.584ZM154.034 296.6C154.034 298.664 152.658 299.864 151.058 299.864C149.458 299.864 148.098 298.648 148.098 296.584C148.098 294.52 149.458 293.352 151.058 293.352C152.658 293.352 154.034 294.568 154.034 296.6ZM161.688 296.584C161.688 299.304 163.496 301.144 165.832 301.144C167.448 301.144 168.584 300.312 169.112 299.368V301H170.584V292.232H169.112V293.832C168.6 292.92 167.48 292.088 165.848 292.088C163.496 292.088 161.688 293.848 161.688 296.584ZM169.112 296.6C169.112 298.664 167.736 299.864 166.136 299.864C164.536 299.864 163.176 298.648 163.176 296.584C163.176 294.52 164.536 293.352 166.136 293.352C167.736 293.352 169.112 294.568 169.112 296.6ZM174.501 293.848V292.232H173.045V305.16H174.501V299.384C175.045 300.28 176.181 301.144 177.781 301.144C180.133 301.144 181.941 299.304 181.941 296.584C181.941 293.848 180.133 292.088 177.781 292.088C176.181 292.088 175.029 292.92 174.501 293.848ZM180.453 296.584C180.453 298.648 179.093 299.864 177.477 299.864C175.893 299.864 174.501 298.664 174.501 296.6C174.501 294.568 175.893 293.352 177.477 293.352C179.093 293.352 180.453 294.52 180.453 296.584ZM185.313 293.848V292.232H183.857V305.16H185.313V299.384C185.857 300.28 186.993 301.144 188.593 301.144C190.945 301.144 192.753 299.304 192.753 296.584C192.753 293.848 190.945 292.088 188.593 292.088C186.993 292.088 185.841 292.92 185.313 293.848ZM191.265 296.584C191.265 298.648 189.905 299.864 188.289 299.864C186.705 299.864 185.313 298.664 185.313 296.6C185.313 294.568 186.705 293.352 188.289 293.352C189.905 293.352 191.265 294.52 191.265 296.584ZM196.126 296.232C196.126 294.2 197.182 293.576 198.574 293.576H198.958V292.072C197.566 292.072 196.622 292.68 196.126 293.656V292.232H194.67V301H196.126V296.232ZM208.958 296.6C208.958 293.832 207.022 292.088 204.526 292.088C202.046 292.088 200.094 293.832 200.094 296.6C200.094 299.384 201.982 301.144 204.462 301.144C206.958 301.144 208.958 299.384 208.958 296.6ZM201.582 296.6C201.582 294.392 202.974 293.352 204.51 293.352C206.014 293.352 207.47 294.392 207.47 296.6C207.47 298.824 205.982 299.864 204.462 299.864C202.942 299.864 201.582 298.824 201.582 296.6ZM210.329 296.584C210.329 299.304 212.137 301.144 214.473 301.144C216.089 301.144 217.225 300.312 217.753 299.368V301H219.225V292.232H217.753V293.832C217.241 292.92 216.121 292.088 214.489 292.088C212.137 292.088 210.329 293.848 210.329 296.584ZM217.753 296.6C217.753 298.664 216.377 299.864 214.777 299.864C213.177 299.864 211.817 298.648 211.817 296.584C211.817 294.52 213.177 293.352 214.777 293.352C216.377 293.352 217.753 294.568 217.753 296.6ZM221.141 296.6C221.141 299.384 222.917 301.144 225.413 301.144C227.589 301.144 229.013 299.928 229.461 298.184H227.893C227.573 299.288 226.709 299.912 225.413 299.912C223.813 299.912 222.629 298.776 222.629 296.6C222.629 294.456 223.813 293.32 225.413 293.32C226.709 293.32 227.589 293.992 227.893 295.048H229.461C229.013 293.208 227.589 292.088 225.413 292.088C222.917 292.088 221.141 293.848 221.141 296.6ZM231.404 301H232.86V296.152C232.86 294.264 233.884 293.336 235.372 293.336C236.844 293.336 237.82 294.248 237.82 296.04V301H239.26V295.832C239.26 293.32 237.708 292.072 235.756 292.072C234.524 292.072 233.436 292.568 232.86 293.496V289.16H231.404V301ZM246.224 298.6C246.224 300.36 247.104 301 248.656 301H249.968V299.768H248.896C248 299.768 247.68 299.464 247.68 298.6V293.432H249.968V292.232H247.68V290.024H246.224V292.232H245.088V293.432H246.224V298.6ZM260.052 296.6C260.052 293.832 258.116 292.088 255.62 292.088C253.14 292.088 251.188 293.832 251.188 296.6C251.188 299.384 253.076 301.144 255.556 301.144C258.052 301.144 260.052 299.384 260.052 296.6ZM252.676 296.6C252.676 294.392 254.068 293.352 255.604 293.352C257.108 293.352 258.564 294.392 258.564 296.6C258.564 298.824 257.076 299.864 255.556 299.864C254.036 299.864 252.676 298.824 252.676 296.6ZM66.648 329H68.088V323.832C68.088 321.32 66.536 320.072 64.504 320.072C63.32 320.072 62.264 320.568 61.688 321.48V320.232H60.232V329H61.688V324.152C61.688 322.264 62.712 321.336 64.2 321.336C65.672 321.336 66.648 322.248 66.648 324.04V329ZM69.9224 324.584C69.9224 327.304 71.7304 329.144 74.0664 329.144C75.6824 329.144 76.8184 328.312 77.3464 327.368V329H78.8184V320.232H77.3464V321.832C76.8344 320.92 75.7144 320.088 74.0824 320.088C71.7304 320.088 69.9224 321.848 69.9224 324.584ZM77.3464 324.6C77.3464 326.664 75.9704 327.864 74.3704 327.864C72.7704 327.864 71.4104 326.648 71.4104 324.584C71.4104 322.52 72.7704 321.352 74.3704 321.352C75.9704 321.352 77.3464 322.568 77.3464 324.6ZM80.2389 320.232L83.6789 329H85.3749L88.8149 320.232H87.2629L84.5429 327.656L81.8069 320.232H80.2389ZM90.2476 329H91.7036V320.232H90.2476V329ZM90.9996 318.808C91.5276 318.808 91.9596 318.376 91.9596 317.816C91.9596 317.256 91.5276 316.824 90.9996 316.824C90.4396 316.824 90.0076 317.256 90.0076 317.816C90.0076 318.376 90.4396 318.808 90.9996 318.808ZM93.6411 324.584C93.6411 327.304 95.4491 329.144 97.8011 329.144C99.4011 329.144 100.537 328.296 101.065 327.352V329.192C101.065 331.064 99.8971 332.056 98.3451 332.056C96.9051 332.056 95.8651 331.336 95.5451 330.28H94.1051C94.3931 332.152 96.0411 333.32 98.3451 333.32C100.921 333.32 102.537 331.608 102.537 329.192V320.232H101.065V321.832C100.553 320.888 99.4011 320.088 97.8011 320.088C95.4491 320.088 93.6411 321.848 93.6411 324.584ZM101.065 324.6C101.065 326.664 99.6891 327.864 98.0891 327.864C96.4891 327.864 95.1291 326.648 95.1291 324.584C95.1291 322.52 96.4891 321.352 98.0891 321.352C99.6891 321.352 101.065 322.568 101.065 324.6ZM104.454 324.584C104.454 327.304 106.262 329.144 108.598 329.144C110.214 329.144 111.35 328.312 111.878 327.368V329H113.35V320.232H111.878V321.832C111.366 320.92 110.246 320.088 108.614 320.088C106.262 320.088 104.454 321.848 104.454 324.584ZM111.878 324.6C111.878 326.664 110.502 327.864 108.902 327.864C107.302 327.864 105.942 326.648 105.942 324.584C105.942 322.52 107.302 321.352 108.902 321.352C110.502 321.352 111.878 322.568 111.878 324.6ZM116.13 326.6C116.13 328.36 117.01 329 118.562 329H119.874V327.768H118.802C117.906 327.768 117.586 327.464 117.586 326.6V321.432H119.874V320.232H117.586V318.024H116.13V320.232H114.994V321.432H116.13V326.6ZM125.366 321.32C126.87 321.32 128.15 322.264 128.134 323.976H122.598C122.758 322.264 123.942 321.32 125.366 321.32ZM129.462 326.296H127.894C127.574 327.24 126.742 327.912 125.43 327.912C123.942 327.912 122.694 326.936 122.582 325.16H129.59C129.622 324.856 129.638 324.6 129.638 324.28C129.638 321.88 127.974 320.088 125.43 320.088C122.87 320.088 121.094 321.832 121.094 324.6C121.094 327.384 122.934 329.144 125.43 329.144C127.606 329.144 129.014 327.896 129.462 326.296ZM136.146 326.6C136.146 328.36 137.026 329 138.578 329H139.89V327.768H138.818C137.922 327.768 137.602 327.464 137.602 326.6V321.432H139.89V320.232H137.602V318.024H136.146V320.232H135.01V321.432H136.146V326.6ZM141.654 329H143.11V324.152C143.11 322.264 144.134 321.336 145.622 321.336C147.094 321.336 148.07 322.248 148.07 324.04V329H149.51V323.832C149.51 321.32 147.958 320.072 146.006 320.072C144.774 320.072 143.686 320.568 143.11 321.496V317.16H141.654V329ZM155.616 321.32C157.12 321.32 158.4 322.264 158.384 323.976H152.848C153.008 322.264 154.192 321.32 155.616 321.32ZM159.712 326.296H158.144C157.824 327.24 156.992 327.912 155.68 327.912C154.192 327.912 152.944 326.936 152.832 325.16H159.84C159.872 324.856 159.888 324.6 159.888 324.28C159.888 321.88 158.224 320.088 155.68 320.088C153.12 320.088 151.344 321.832 151.344 324.6C151.344 327.384 153.184 329.144 155.68 329.144C157.856 329.144 159.264 327.896 159.712 326.296ZM167.532 321.848V320.232H166.076V333.16H167.532V327.384C168.076 328.28 169.212 329.144 170.812 329.144C173.164 329.144 174.972 327.304 174.972 324.584C174.972 321.848 173.164 320.088 170.812 320.088C169.212 320.088 168.06 320.92 167.532 321.848ZM173.484 324.584C173.484 326.648 172.124 327.864 170.508 327.864C168.924 327.864 167.532 326.664 167.532 324.6C167.532 322.568 168.924 321.352 170.508 321.352C172.124 321.352 173.484 322.52 173.484 324.584ZM178.344 324.232C178.344 322.2 179.4 321.576 180.792 321.576H181.176V320.072C179.784 320.072 178.84 320.68 178.344 321.656V320.232H176.888V329H178.344V324.232ZM191.177 324.6C191.177 321.832 189.241 320.088 186.745 320.088C184.265 320.088 182.313 321.832 182.313 324.6C182.313 327.384 184.201 329.144 186.681 329.144C189.177 329.144 191.177 327.384 191.177 324.6ZM183.801 324.6C183.801 322.392 185.193 321.352 186.729 321.352C188.233 321.352 189.689 322.392 189.689 324.6C189.689 326.824 188.201 327.864 186.681 327.864C185.161 327.864 183.801 326.824 183.801 324.6ZM193.875 318.808C194.419 318.808 194.851 318.376 194.851 317.816C194.851 317.256 194.419 316.824 193.875 316.824C193.331 316.824 192.899 317.256 192.899 317.816C192.899 318.376 193.331 318.808 193.875 318.808ZM193.139 320.232V330.872C193.139 331.64 192.835 331.928 192.035 331.928H191.427V333.16H192.275C193.763 333.16 194.595 332.488 194.595 330.904V320.232H193.139ZM200.788 321.32C202.292 321.32 203.572 322.264 203.556 323.976H198.02C198.18 322.264 199.364 321.32 200.788 321.32ZM204.884 326.296H203.316C202.996 327.24 202.164 327.912 200.852 327.912C199.364 327.912 198.116 326.936 198.004 325.16H205.012C205.044 324.856 205.06 324.6 205.06 324.28C205.06 321.88 203.396 320.088 200.852 320.088C198.292 320.088 196.516 321.832 196.516 324.6C196.516 327.384 198.356 329.144 200.852 329.144C203.028 329.144 204.436 327.896 204.884 326.296ZM206.438 324.6C206.438 327.384 208.214 329.144 210.71 329.144C212.886 329.144 214.31 327.928 214.758 326.184H213.19C212.87 327.288 212.006 327.912 210.71 327.912C209.11 327.912 207.926 326.776 207.926 324.6C207.926 322.456 209.11 321.32 210.71 321.32C212.006 321.32 212.886 321.992 213.19 323.048H214.758C214.31 321.208 212.886 320.088 210.71 320.088C208.214 320.088 206.438 321.848 206.438 324.6ZM217.021 326.6C217.021 328.36 217.901 329 219.453 329H220.765V327.768H219.693C218.797 327.768 218.477 327.464 218.477 326.6V321.432H220.765V320.232H218.477V318.024H217.021V320.232H215.885V321.432H217.021V326.6ZM226.795 329H228.251V320.232H226.795V329ZM227.547 318.808C228.075 318.808 228.507 318.376 228.507 317.816C228.507 317.256 228.075 316.824 227.547 316.824C226.987 316.824 226.555 317.256 226.555 317.816C226.555 318.376 226.987 318.808 227.547 318.808ZM237.148 329H238.588V323.832C238.588 321.32 237.036 320.072 235.004 320.072C233.82 320.072 232.764 320.568 232.188 321.48V320.232H230.732V329H232.188V324.152C232.188 322.264 233.212 321.336 234.7 321.336C236.172 321.336 237.148 322.248 237.148 324.04V329ZM61.688 352.232C61.688 350.2 62.744 349.576 64.136 349.576H64.52V348.072C63.128 348.072 62.184 348.68 61.688 349.656V348.232H60.232V357H61.688V352.232ZM66.2008 357H67.6568V348.232H66.2008V357ZM66.9528 346.808C67.4808 346.808 67.9128 346.376 67.9128 345.816C67.9128 345.256 67.4808 344.824 66.9528 344.824C66.3928 344.824 65.9608 345.256 65.9608 345.816C65.9608 346.376 66.3928 346.808 66.9528 346.808ZM69.5943 352.584C69.5943 355.304 71.4023 357.144 73.7543 357.144C75.3543 357.144 76.4903 356.296 77.0183 355.352V357.192C77.0183 359.064 75.8503 360.056 74.2983 360.056C72.8583 360.056 71.8183 359.336 71.4983 358.28H70.0583C70.3463 360.152 71.9943 361.32 74.2983 361.32C76.8743 361.32 78.4903 359.608 78.4903 357.192V348.232H77.0183V349.832C76.5063 348.888 75.3543 348.088 73.7543 348.088C71.4023 348.088 69.5943 349.848 69.5943 352.584ZM77.0183 352.6C77.0183 354.664 75.6423 355.864 74.0423 355.864C72.4423 355.864 71.0823 354.648 71.0823 352.584C71.0823 350.52 72.4423 349.352 74.0423 349.352C75.6423 349.352 77.0183 350.568 77.0183 352.6ZM80.9508 357H82.4068V352.152C82.4068 350.264 83.4308 349.336 84.9188 349.336C86.3908 349.336 87.3668 350.248 87.3668 352.04V357H88.8068V351.832C88.8068 349.32 87.2548 348.072 85.3028 348.072C84.0708 348.072 82.9828 348.568 82.4068 349.496V345.16H80.9508V357ZM91.5051 354.6C91.5051 356.36 92.3851 357 93.9371 357H95.2491V355.768H94.1771C93.2811 355.768 92.9611 355.464 92.9611 354.6V349.432H95.2491V348.232H92.9611V346.024H91.5051V348.232H90.3691V349.432H91.5051V354.6ZM100.735 352.584C100.735 355.304 102.543 357.144 104.895 357.144C106.495 357.144 107.631 356.328 108.159 355.352V357H109.631V345.16H108.159V349.8C107.551 348.792 106.287 348.088 104.911 348.088C102.543 348.088 100.735 349.848 100.735 352.584ZM108.159 352.6C108.159 354.664 106.783 355.864 105.183 355.864C103.583 355.864 102.223 354.648 102.223 352.584C102.223 350.52 103.583 349.352 105.183 349.352C106.783 349.352 108.159 350.568 108.159 352.6ZM112.091 357H113.547V348.232H112.091V357ZM112.843 346.808C113.371 346.808 113.803 346.376 113.803 345.816C113.803 345.256 113.371 344.824 112.843 344.824C112.283 344.824 111.851 345.256 111.851 345.816C111.851 346.376 112.283 346.808 112.843 346.808ZM117.485 352.232C117.485 350.2 118.541 349.576 119.933 349.576H120.317V348.072C118.925 348.072 117.981 348.68 117.485 349.656V348.232H116.029V357H117.485V352.232ZM125.726 349.32C127.23 349.32 128.51 350.264 128.494 351.976H122.958C123.118 350.264 124.302 349.32 125.726 349.32ZM129.822 354.296H128.254C127.934 355.24 127.102 355.912 125.79 355.912C124.302 355.912 123.054 354.936 122.942 353.16H129.95C129.982 352.856 129.998 352.6 129.998 352.28C129.998 349.88 128.334 348.088 125.79 348.088C123.23 348.088 121.454 349.832 121.454 352.6C121.454 355.384 123.294 357.144 125.79 357.144C127.966 357.144 129.374 355.896 129.822 354.296ZM131.376 352.6C131.376 355.384 133.152 357.144 135.648 357.144C137.824 357.144 139.248 355.928 139.696 354.184H138.128C137.808 355.288 136.944 355.912 135.648 355.912C134.048 355.912 132.864 354.776 132.864 352.6C132.864 350.456 134.048 349.32 135.648 349.32C136.944 349.32 137.824 349.992 138.128 351.048H139.696C139.248 349.208 137.824 348.088 135.648 348.088C133.152 348.088 131.376 349.848 131.376 352.6ZM141.958 354.6C141.958 356.36 142.838 357 144.39 357H145.702V355.768H144.63C143.734 355.768 143.414 355.464 143.414 354.6V349.432H145.702V348.232H143.414V346.024H141.958V348.232H140.822V349.432H141.958V354.6ZM147.466 357H148.922V348.232H147.466V357ZM148.218 346.808C148.746 346.808 149.178 346.376 149.178 345.816C149.178 345.256 148.746 344.824 148.218 344.824C147.658 344.824 147.226 345.256 147.226 345.816C147.226 346.376 147.658 346.808 148.218 346.808ZM159.724 352.6C159.724 349.832 157.788 348.088 155.292 348.088C152.812 348.088 150.86 349.832 150.86 352.6C150.86 355.384 152.748 357.144 155.228 357.144C157.724 357.144 159.724 355.384 159.724 352.6ZM152.348 352.6C152.348 350.392 153.74 349.352 155.276 349.352C156.78 349.352 158.236 350.392 158.236 352.6C158.236 354.824 156.748 355.864 155.228 355.864C153.708 355.864 152.348 354.824 152.348 352.6ZM168.054 357H169.494V351.832C169.494 349.32 167.942 348.072 165.91 348.072C164.726 348.072 163.67 348.568 163.094 349.48V348.232H161.638V357H163.094V352.152C163.094 350.264 164.118 349.336 165.606 349.336C167.078 349.336 168.054 350.248 168.054 352.04V357Z" fill="#EDEDED"/>
<g opacity="0.35" filter="url(#filter0_f_315_690)">
<rect x="77" y="77" width="65" height="69.3919" rx="28" fill="#EB2246"/>
</g>
<rect x="60" y="60" width="98" height="103" rx="34" fill="white"/>
<path fill-rule="evenodd" clip-rule="evenodd" d="M106.104 88.1119C106.204 88.1119 106.303 88.1106 106.403 88.1092C106.624 88.1063 106.846 88.1034 107.067 88.1149C107.886 88.1572 108.508 88.7815 108.535 89.5736C108.562 90.3642 107.986 91.0353 107.167 91.1215C106.712 91.1701 106.255 91.2045 105.799 91.2389C104.992 91.2997 104.186 91.3604 103.394 91.4994C98.9148 92.2854 95.1554 94.4199 92.111 97.7847C89.2979 100.894 87.6306 104.554 87.1756 108.721C86.5936 114.051 88.0765 118.807 91.3764 123.005C91.7926 123.535 92.2536 124.029 92.7146 124.524C92.8529 124.672 92.9912 124.82 93.1283 124.97C93.7753 125.674 93.8055 126.577 93.1873 127.187C92.5615 127.807 91.6212 127.762 90.9335 127.071C87.3373 123.458 84.9943 119.174 84.2551 114.113C83.4101 108.321 84.6663 102.958 87.9934 98.1385C91.2645 93.3995 95.7177 90.2644 101.309 88.8359C102.378 88.5624 103.477 88.399 104.574 88.2356C105.078 88.1606 105.582 88.0856 106.083 88L106.106 88.1103L106.104 88.1119ZM117.458 94.1176C117.483 94.2183 117.505 94.3048 117.525 94.382L117.525 94.3821L117.526 94.3826C117.566 94.5394 117.597 94.6578 117.622 94.7782C117.786 95.5627 117.318 96.3503 116.569 96.5619C115.793 96.7811 114.963 96.4062 114.731 95.6277C114.292 94.1584 113.895 92.674 113.532 91.1836C113.357 90.461 113.849 89.7127 114.595 89.4996C115.99 89.1021 117.39 88.7226 118.797 88.3735C119.651 88.1618 120.423 88.6425 120.649 89.4573C120.866 90.2448 120.402 91.0339 119.563 91.3045C119.409 91.3544 119.256 91.4043 119.04 91.4753C119.089 91.5126 119.132 91.5465 119.172 91.5776L119.173 91.5781L119.173 91.5783L119.173 91.5783C119.257 91.644 119.325 91.6973 119.397 91.7444C125.094 95.5567 128.625 100.829 129.558 107.618C130.674 115.725 128.099 122.621 121.983 128.084C117.628 131.973 112.428 133.728 106.609 133.721C102.178 133.716 97.7466 133.717 93.3154 133.717H93.3153H93.3153H93.3152C90.8543 133.718 88.3934 133.718 85.9327 133.718C85.7135 133.718 85.4913 133.712 85.2766 133.677C84.5238 133.554 83.9842 132.892 84.0099 132.141C84.0356 131.388 84.616 130.77 85.3779 130.693C85.5407 130.677 85.7054 130.678 85.8697 130.679H85.8698H85.8699H85.87C85.9085 130.679 85.9471 130.679 85.9856 130.679C88.073 130.679 90.1605 130.678 92.248 130.677C97.0188 130.675 101.79 130.673 106.56 130.682C110.017 130.69 113.311 130.007 116.34 128.318C121.911 125.215 125.465 120.545 126.453 114.233C127.738 106.022 124.836 99.431 118.111 94.5378C117.997 94.4554 117.877 94.38 117.729 94.2863L117.729 94.2863L117.728 94.2862L117.728 94.286C117.648 94.2355 117.56 94.1797 117.459 94.1146L117.458 94.1176ZM135.904 132.551C135.816 132.668 135.732 132.789 135.647 132.909C135.464 133.172 135.28 133.434 135.063 133.666C134.261 134.53 133.435 135.371 132.609 136.211L132.609 136.212L132.533 136.289C131.85 136.986 130.908 137.034 130.282 136.42C129.646 135.796 129.677 134.892 130.361 134.17C130.422 134.105 130.482 134.039 130.557 133.957L130.557 133.956C130.609 133.9 130.668 133.835 130.74 133.757C130.659 133.752 130.587 133.747 130.52 133.742L130.52 133.742L130.52 133.742C130.38 133.732 130.265 133.724 130.149 133.724C129.238 133.723 128.328 133.723 127.417 133.723C126.505 133.723 125.594 133.723 124.682 133.722H124.681C124.479 133.722 124.275 133.722 124.075 133.699C123.246 133.606 122.674 132.972 122.688 132.171C122.701 131.352 123.32 130.703 124.174 130.69C125.216 130.674 126.259 130.677 127.302 130.679H127.302H127.302H127.303H127.303C127.761 130.68 128.22 130.681 128.678 130.681H130.69L130.614 130.599L130.561 130.541L130.503 130.479L130.502 130.479L130.502 130.478L130.502 130.478C130.382 130.35 130.29 130.252 130.204 130.15C129.674 129.526 129.703 128.654 130.269 128.085C130.82 127.531 131.757 127.466 132.332 128.016C133.416 129.054 134.468 130.126 135.518 131.199C135.633 131.316 135.711 131.47 135.79 131.624L135.79 131.624C135.826 131.697 135.863 131.77 135.904 131.839V132.548V132.551ZM93.3323 110.875C93.3157 118.431 99.4513 124.58 107.009 124.586C114.543 124.592 120.682 118.473 120.699 110.939C120.715 103.382 114.583 97.2361 107.022 97.23C99.4876 97.224 93.3489 103.343 93.3323 110.875ZM117.659 110.907C117.659 116.769 112.897 121.534 107.029 121.544C101.169 121.555 96.3842 116.79 96.3737 110.933C96.3631 105.047 101.144 100.262 107.029 100.271C112.897 100.28 117.659 105.045 117.659 110.907ZM106.737 111.947C106.32 112.365 105.899 112.788 105.471 113.215L105.47 113.217C105.269 113.011 105.074 112.808 104.881 112.608C104.449 112.158 104.03 111.723 103.595 111.303C102.927 110.659 101.944 110.668 101.32 111.29C100.685 111.921 100.666 112.893 101.316 113.562C102.316 114.59 103.331 115.605 104.359 116.606C105.009 117.239 105.949 117.27 106.594 116.633C108.664 114.597 110.715 112.541 112.754 110.475C113.27 109.952 113.321 109.211 112.979 108.599C112.642 107.997 111.965 107.651 111.259 107.834C110.907 107.925 110.552 108.158 110.287 108.416C109.106 109.572 107.938 110.742 106.737 111.947Z" fill="#EB2246"/>
<defs>
<filter id="filter0_f_315_690" x="0" y="0" width="219" height="223.393" filterUnits="userSpaceOnUse" color-interpolation-filters="sRGB">
<feFlood flood-opacity="0" result="BackgroundImageFix"/>
<feBlend mode="normal" in="SourceGraphic" in2="BackgroundImageFix" result="shape"/>
<feGaussianBlur stdDeviation="38.5" result="effect1_foregroundBlur_315_690"/>
</filter>
</defs>
</svg>
