<svg width="271" height="358" viewBox="0 0 271 358" fill="none" xmlns="http://www.w3.org/2000/svg">
<path d="M69.9901 230H72.7901V216.04H69.9901V221.78H64.0101V216.04H61.2101V230H64.0101V224.06H69.9901V230ZM80.266 226.66L77.406 218.92H74.266L78.706 229.72L76.306 235.24H79.286L86.146 218.92H83.166L80.266 226.66ZM90.4554 220.54V215.2H87.6554V230H90.4554V228.42C91.1354 229.38 92.3754 230.18 94.1154 230.18C96.9554 230.18 99.1754 227.88 99.1754 224.42C99.1754 220.96 96.9554 218.74 94.1154 218.74C92.4354 218.74 91.1354 219.52 90.4554 220.54ZM96.3154 224.42C96.3154 226.52 94.8954 227.72 93.3754 227.72C91.8754 227.72 90.4554 226.56 90.4554 224.46C90.4554 222.36 91.8754 221.2 93.3754 221.2C94.8954 221.2 96.3154 222.32 96.3154 224.42ZM104.01 224.48C104.01 222.34 105.01 221.7 106.67 221.7H107.41V218.76C105.87 218.76 104.71 219.5 104.01 220.64V218.92H101.21V230H104.01V224.48ZM109.296 230H112.096V218.92H109.296V230ZM110.716 217.6C111.696 217.6 112.436 216.88 112.436 215.96C112.436 215.04 111.696 214.32 110.716 214.32C109.716 214.32 108.996 215.04 108.996 215.96C108.996 216.88 109.716 217.6 110.716 217.6ZM114.142 224.42C114.142 227.88 116.382 230.18 119.202 230.18C120.942 230.18 122.182 229.38 122.842 228.36V230H125.682V215.2H122.842V220.46C122.082 219.42 120.682 218.74 119.222 218.74C116.382 218.74 114.142 220.96 114.142 224.42ZM122.862 224.46C122.862 226.56 121.462 227.72 119.922 227.72C118.422 227.72 117.002 226.52 117.002 224.42C117.002 222.32 118.422 221.2 119.922 221.2C121.462 221.2 122.862 222.36 122.862 224.46ZM136.003 230.02L139.283 230L142.023 220.06L144.643 230H147.943L151.843 216.04H148.823L146.343 226.82L143.663 216.04H140.543L137.703 226.88L135.243 216.04H132.243L136.003 230.02ZM164.371 224.46C164.371 220.96 161.871 218.74 158.671 218.74C155.471 218.74 152.971 220.96 152.971 224.46C152.971 227.94 155.391 230.18 158.591 230.18C161.811 230.18 164.371 227.94 164.371 224.46ZM155.811 224.46C155.811 222.24 157.151 221.18 158.631 221.18C160.111 221.18 161.491 222.24 161.491 224.46C161.491 226.66 160.071 227.74 158.591 227.74C157.091 227.74 155.811 226.66 155.811 224.46ZM169.225 224.48C169.225 222.34 170.225 221.7 171.885 221.7H172.625V218.76C171.085 218.76 169.925 219.5 169.225 220.64V218.92H166.425V230H169.225V224.48ZM174.511 230H177.311V225.28L181.071 230H184.711L179.791 224.48L184.671 218.92H181.031L177.311 223.62V215.2H174.511V230ZM186.491 230H189.331V221.22H191.271V218.92H189.331V218.46C189.331 217.22 189.791 216.78 191.151 216.82V214.46C188.031 214.38 186.491 215.64 186.491 218.36V218.92H185.231V221.22H186.491V230ZM203.785 224.46C203.785 220.96 201.285 218.74 198.085 218.74C194.885 218.74 192.385 220.96 192.385 224.46C192.385 227.94 194.805 230.18 198.005 230.18C201.225 230.18 203.785 227.94 203.785 224.46ZM195.225 224.46C195.225 222.24 196.565 221.18 198.045 221.18C199.525 221.18 200.905 222.24 200.905 224.46C200.905 226.66 199.485 227.74 198.005 227.74C196.505 227.74 195.225 226.66 195.225 224.46ZM208.639 224.48C208.639 222.34 209.639 221.7 211.299 221.7H212.039V218.76C210.499 218.76 209.339 219.5 208.639 220.64V218.92H205.839V230H208.639V224.48ZM213.205 224.46C213.205 227.94 215.485 230.18 218.685 230.18C221.445 230.18 223.305 228.62 223.905 226.26H220.885C220.545 227.26 219.825 227.78 218.665 227.78C217.105 227.78 216.065 226.62 216.065 224.46C216.065 222.3 217.105 221.12 218.665 221.12C219.825 221.12 220.565 221.72 220.885 222.66H223.905C223.305 220.18 221.445 218.74 218.685 218.74C215.485 218.74 213.205 220.98 213.205 224.46ZM230.716 221.04C232.156 221.04 233.316 221.96 233.356 223.42H228.096C228.316 221.9 229.376 221.04 230.716 221.04ZM235.976 226.52H232.956C232.596 227.26 231.936 227.86 230.736 227.86C229.336 227.86 228.216 226.94 228.076 225.3H236.176C236.236 224.94 236.256 224.58 236.256 224.22C236.256 220.92 233.996 218.74 230.796 218.74C227.516 218.74 225.236 220.96 225.236 224.46C225.236 227.94 227.576 230.18 230.796 230.18C233.536 230.18 235.376 228.56 235.976 226.52Z" fill="#EDEDED"/>
<path d="M62.488 273.016L64.104 273L66.792 264.024L69.384 273H71.016L74.248 261.848H72.68L70.232 271.272L67.672 261.848H66.04L63.352 271.304L60.92 261.848H59.368L62.488 273.016ZM84.1614 268.6C84.1614 265.832 82.2254 264.088 79.7294 264.088C77.2494 264.088 75.2974 265.832 75.2974 268.6C75.2974 271.384 77.1854 273.144 79.6654 273.144C82.1614 273.144 84.1614 271.384 84.1614 268.6ZM76.7854 268.6C76.7854 266.392 78.1774 265.352 79.7134 265.352C81.2174 265.352 82.6734 266.392 82.6734 268.6C82.6734 270.824 81.1854 271.864 79.6654 271.864C78.1454 271.864 76.7854 270.824 76.7854 268.6ZM87.5318 268.232C87.5318 266.2 88.5878 265.576 89.9798 265.576H90.3638V264.072C88.9718 264.072 88.0278 264.68 87.5318 265.656V264.232H86.0758V273H87.5318V268.232ZM92.0445 273H93.5005V269.128L96.9405 273H98.9245L94.7805 268.6L98.9085 264.232H96.8765L93.5005 268.12V261.16H92.0445V273ZM100.279 273H101.735V264.232H100.279V273ZM101.031 262.808C101.559 262.808 101.991 262.376 101.991 261.816C101.991 261.256 101.559 260.824 101.031 260.824C100.471 260.824 100.039 261.256 100.039 261.816C100.039 262.376 100.471 262.808 101.031 262.808ZM110.632 273H112.072V267.832C112.072 265.32 110.52 264.072 108.488 264.072C107.304 264.072 106.248 264.568 105.672 265.48V264.232H104.216V273H105.672V268.152C105.672 266.264 106.696 265.336 108.184 265.336C109.656 265.336 110.632 266.248 110.632 268.04V273ZM113.907 268.584C113.907 271.304 115.715 273.144 118.067 273.144C119.667 273.144 120.803 272.296 121.331 271.352V273.192C121.331 275.064 120.163 276.056 118.611 276.056C117.171 276.056 116.131 275.336 115.811 274.28H114.371C114.659 276.152 116.307 277.32 118.611 277.32C121.187 277.32 122.803 275.608 122.803 273.192V264.232H121.331V265.832C120.819 264.888 119.667 264.088 118.067 264.088C115.715 264.088 113.907 265.848 113.907 268.584ZM121.331 268.6C121.331 270.664 119.955 271.864 118.355 271.864C116.755 271.864 115.395 270.648 115.395 268.584C115.395 266.52 116.755 265.352 118.355 265.352C119.955 265.352 121.331 266.568 121.331 268.6ZM129.801 273H131.257V265.432H133.097V264.232H131.257V263.608C131.257 262.472 131.689 261.992 133.001 261.992V260.776C130.761 260.776 129.801 261.656 129.801 263.608V264.232H128.665V265.432H129.801V273ZM136.251 268.232C136.251 266.2 137.307 265.576 138.699 265.576H139.083V264.072C137.691 264.072 136.747 264.68 136.251 265.656V264.232H134.795V273H136.251V268.232ZM149.083 268.6C149.083 265.832 147.147 264.088 144.651 264.088C142.171 264.088 140.219 265.832 140.219 268.6C140.219 271.384 142.107 273.144 144.587 273.144C147.083 273.144 149.083 271.384 149.083 268.6ZM141.707 268.6C141.707 266.392 143.099 265.352 144.635 265.352C146.139 265.352 147.595 266.392 147.595 268.6C147.595 270.824 146.107 271.864 144.587 271.864C143.067 271.864 141.707 270.824 141.707 268.6ZM163.654 273H165.094V267.832C165.094 265.32 163.542 264.072 161.542 264.072C160.198 264.072 158.95 264.76 158.438 266.024C157.862 264.712 156.662 264.072 155.222 264.072C154.07 264.072 153.03 264.568 152.454 265.496V264.232H150.998V273H152.454V268.168C152.454 266.28 153.462 265.336 154.934 265.336C156.374 265.336 157.334 266.248 157.334 268.04V273H158.774V268.168C158.774 266.28 159.782 265.336 161.254 265.336C162.694 265.336 163.654 266.248 163.654 268.04V273ZM171.204 268.6C171.204 271.384 172.98 273.144 175.476 273.144C177.652 273.144 179.076 271.928 179.524 270.184H177.956C177.636 271.288 176.772 271.912 175.476 271.912C173.876 271.912 172.692 270.776 172.692 268.6C172.692 266.456 173.876 265.32 175.476 265.32C176.772 265.32 177.652 265.992 177.956 267.048H179.524C179.076 265.208 177.652 264.088 175.476 264.088C172.98 264.088 171.204 265.848 171.204 268.6ZM189.786 268.6C189.786 265.832 187.85 264.088 185.354 264.088C182.874 264.088 180.922 265.832 180.922 268.6C180.922 271.384 182.81 273.144 185.29 273.144C187.786 273.144 189.786 271.384 189.786 268.6ZM182.41 268.6C182.41 266.392 183.802 265.352 185.338 265.352C186.842 265.352 188.298 266.392 188.298 268.6C188.298 270.824 186.81 271.864 185.29 271.864C183.77 271.864 182.41 270.824 182.41 268.6ZM204.357 273H205.797V267.832C205.797 265.32 204.245 264.072 202.245 264.072C200.901 264.072 199.653 264.76 199.141 266.024C198.565 264.712 197.365 264.072 195.925 264.072C194.773 264.072 193.733 264.568 193.157 265.496V264.232H191.701V273H193.157V268.168C193.157 266.28 194.165 265.336 195.637 265.336C197.077 265.336 198.037 266.248 198.037 268.04V273H199.477V268.168C199.477 266.28 200.485 265.336 201.957 265.336C203.397 265.336 204.357 266.248 204.357 268.04V273ZM208.457 273H209.913V265.432H211.753V264.232H209.913V263.608C209.913 262.472 210.345 261.992 211.657 261.992V260.776C209.417 260.776 208.457 261.656 208.457 263.608V264.232H207.321V265.432H208.457V273ZM221.771 268.6C221.771 265.832 219.835 264.088 217.339 264.088C214.859 264.088 212.907 265.832 212.907 268.6C212.907 271.384 214.795 273.144 217.275 273.144C219.771 273.144 221.771 271.384 221.771 268.6ZM214.395 268.6C214.395 266.392 215.787 265.352 217.323 265.352C218.827 265.352 220.283 266.392 220.283 268.6C220.283 270.824 218.795 271.864 217.275 271.864C215.755 271.864 214.395 270.824 214.395 268.6ZM225.141 268.232C225.141 266.2 226.197 265.576 227.589 265.576H227.973V264.072C226.581 264.072 225.637 264.68 225.141 265.656V264.232H223.685V273H225.141V268.232ZM229.974 270.6C229.974 272.36 230.854 273 232.406 273H233.718V271.768H232.646C231.75 271.768 231.43 271.464 231.43 270.6V265.432H233.718V264.232H231.43V262.024H229.974V264.232H228.838V265.432H229.974V270.6ZM59.688 296.584C59.688 299.304 61.496 301.144 63.832 301.144C65.448 301.144 66.584 300.312 67.112 299.368V301H68.584V292.232H67.112V293.832C66.6 292.92 65.48 292.088 63.848 292.088C61.496 292.088 59.688 293.848 59.688 296.584ZM67.112 296.6C67.112 298.664 65.736 299.864 64.136 299.864C62.536 299.864 61.176 298.648 61.176 296.584C61.176 294.52 62.536 293.352 64.136 293.352C65.736 293.352 67.112 294.568 67.112 296.6ZM77.4605 301H78.9005V295.832C78.9005 293.32 77.3485 292.072 75.3165 292.072C74.1325 292.072 73.0765 292.568 72.5005 293.48V292.232H71.0445V301H72.5005V296.152C72.5005 294.264 73.5245 293.336 75.0125 293.336C76.4845 293.336 77.4605 294.248 77.4605 296.04V301ZM84.6069 299.336L81.8549 292.232H80.2389L83.7749 300.904L82.0469 305.128H83.5509L88.8309 292.232H87.3269L84.6069 299.336ZM92.0065 301H93.5105L95.6225 294.04L97.7345 301H99.2385L101.975 292.232H100.535L98.5505 299.608L96.4225 292.232H94.9345L92.7585 299.592L90.7425 292.232H89.2545L92.0065 301ZM103.42 301H104.876V296.152C104.876 294.264 105.9 293.336 107.388 293.336C108.86 293.336 109.836 294.248 109.836 296.04V301H111.276V295.832C111.276 293.32 109.724 292.072 107.772 292.072C106.54 292.072 105.452 292.568 104.876 293.496V289.16H103.42V301ZM117.382 293.32C118.886 293.32 120.166 294.264 120.15 295.976H114.614C114.774 294.264 115.958 293.32 117.382 293.32ZM121.478 298.296H119.91C119.59 299.24 118.758 299.912 117.446 299.912C115.958 299.912 114.71 298.936 114.598 297.16H121.606C121.638 296.856 121.654 296.6 121.654 296.28C121.654 293.88 119.99 292.088 117.446 292.088C114.886 292.088 113.11 293.832 113.11 296.6C113.11 299.384 114.95 301.144 117.446 301.144C119.622 301.144 121.03 299.896 121.478 298.296ZM125.032 296.232C125.032 294.2 126.088 293.576 127.48 293.576H127.864V292.072C126.472 292.072 125.528 292.68 125.032 293.656V292.232H123.576V301H125.032V296.232ZM133.273 293.32C134.777 293.32 136.057 294.264 136.041 295.976H130.505C130.664 294.264 131.849 293.32 133.273 293.32ZM137.369 298.296H135.801C135.481 299.24 134.649 299.912 133.337 299.912C131.849 299.912 130.601 298.936 130.489 297.16H137.497C137.529 296.856 137.545 296.6 137.545 296.28C137.545 293.88 135.881 292.088 133.337 292.088C130.777 292.088 129.001 293.832 129.001 296.6C129.001 299.384 130.841 301.144 133.337 301.144C135.513 301.144 136.921 299.896 137.369 298.296ZM143.188 296.584C143.188 299.304 144.996 301.144 147.332 301.144C148.948 301.144 150.084 300.312 150.612 299.368V301H152.084V292.232H150.612V293.832C150.1 292.92 148.98 292.088 147.348 292.088C144.996 292.088 143.188 293.848 143.188 296.584ZM150.612 296.6C150.612 298.664 149.236 299.864 147.636 299.864C146.036 299.864 144.676 298.648 144.676 296.584C144.676 294.52 146.036 293.352 147.636 293.352C149.236 293.352 150.612 294.568 150.612 296.6ZM160.961 301H162.401V295.832C162.401 293.32 160.849 292.072 158.817 292.072C157.633 292.072 156.577 292.568 156.001 293.48V292.232H154.545V301H156.001V296.152C156.001 294.264 157.025 293.336 158.513 293.336C159.985 293.336 160.961 294.248 160.961 296.04V301ZM164.235 296.584C164.235 299.304 166.043 301.144 168.395 301.144C169.995 301.144 171.131 300.328 171.659 299.352V301H173.131V289.16H171.659V293.8C171.051 292.792 169.787 292.088 168.411 292.088C166.043 292.088 164.235 293.848 164.235 296.584ZM171.659 296.6C171.659 298.664 170.283 299.864 168.683 299.864C167.083 299.864 165.723 298.648 165.723 296.584C165.723 294.52 167.083 293.352 168.683 293.352C170.283 293.352 171.659 294.568 171.659 296.6ZM186.161 298.616C186.097 295.48 181.009 296.616 181.009 294.536C181.009 293.832 181.649 293.32 182.721 293.32C183.889 293.32 184.561 293.96 184.625 294.84H186.081C185.985 293.128 184.705 292.088 182.769 292.088C180.817 292.088 179.553 293.192 179.553 294.536C179.553 297.8 184.737 296.664 184.737 298.616C184.737 299.336 184.097 299.912 182.945 299.912C181.713 299.912 180.961 299.272 180.881 298.424H179.377C179.473 300.024 180.913 301.144 182.961 301.144C184.897 301.144 186.161 300.056 186.161 298.616ZM191.944 293.32C193.448 293.32 194.728 294.264 194.712 295.976H189.176C189.336 294.264 190.52 293.32 191.944 293.32ZM196.04 298.296H194.472C194.152 299.24 193.32 299.912 192.008 299.912C190.52 299.912 189.272 298.936 189.16 297.16H196.168C196.2 296.856 196.216 296.6 196.216 296.28C196.216 293.88 194.552 292.088 192.008 292.088C189.448 292.088 187.672 293.832 187.672 296.6C187.672 299.384 189.512 301.144 192.008 301.144C194.184 301.144 195.592 299.896 196.04 298.296ZM199.594 296.232C199.594 294.2 200.65 293.576 202.042 293.576H202.426V292.072C201.034 292.072 200.09 292.68 199.594 293.656V292.232H198.138V301H199.594V296.232ZM203.067 292.232L206.507 301H208.203L211.643 292.232H210.091L207.371 299.656L204.635 292.232H203.067ZM213.076 301H214.532V292.232H213.076V301ZM213.828 290.808C214.356 290.808 214.788 290.376 214.788 289.816C214.788 289.256 214.356 288.824 213.828 288.824C213.268 288.824 212.836 289.256 212.836 289.816C212.836 290.376 213.268 290.808 213.828 290.808ZM223.429 301H224.869V295.832C224.869 293.32 223.317 292.072 221.285 292.072C220.101 292.072 219.045 292.568 218.469 293.48V292.232H217.013V301H218.469V296.152C218.469 294.264 219.493 293.336 220.981 293.336C222.453 293.336 223.429 294.248 223.429 296.04V301ZM226.704 296.584C226.704 299.304 228.512 301.144 230.864 301.144C232.464 301.144 233.6 300.296 234.128 299.352V301.192C234.128 303.064 232.96 304.056 231.408 304.056C229.968 304.056 228.928 303.336 228.608 302.28H227.168C227.456 304.152 229.104 305.32 231.408 305.32C233.984 305.32 235.6 303.608 235.6 301.192V292.232H234.128V293.832C233.616 292.888 232.464 292.088 230.864 292.088C228.512 292.088 226.704 293.848 226.704 296.584ZM234.128 296.6C234.128 298.664 232.752 299.864 231.152 299.864C229.552 299.864 228.192 298.648 228.192 296.584C228.192 294.52 229.552 293.352 231.152 293.352C232.752 293.352 234.128 294.568 234.128 296.6ZM250.646 296.6C250.646 293.832 248.71 292.088 246.214 292.088C243.734 292.088 241.782 293.832 241.782 296.6C241.782 299.384 243.67 301.144 246.15 301.144C248.646 301.144 250.646 299.384 250.646 296.6ZM243.27 296.6C243.27 294.392 244.662 293.352 246.198 293.352C247.702 293.352 249.158 294.392 249.158 296.6C249.158 298.824 247.67 299.864 246.15 299.864C244.63 299.864 243.27 298.824 243.27 296.6ZM260.336 292.232H258.88V297.048C258.88 298.936 257.872 299.864 256.368 299.864C254.896 299.864 253.92 298.952 253.92 297.176V292.232H252.48V297.368C252.48 299.88 254.064 301.128 256.08 301.128C257.248 301.128 258.32 300.616 258.88 299.704V301H260.336V292.232ZM264.251 296.232C264.251 294.2 265.307 293.576 266.699 293.576H267.083V292.072C265.691 292.072 264.747 292.68 264.251 293.656V292.232H262.795V301H264.251V296.232ZM59.688 324.6C59.688 327.384 61.464 329.144 63.96 329.144C66.136 329.144 67.56 327.928 68.008 326.184H66.44C66.12 327.288 65.256 327.912 63.96 327.912C62.36 327.912 61.176 326.776 61.176 324.6C61.176 322.456 62.36 321.32 63.96 321.32C65.256 321.32 66.136 321.992 66.44 323.048H68.008C67.56 321.208 66.136 320.088 63.96 320.088C61.464 320.088 59.688 321.848 59.688 324.6ZM69.9508 329H71.4068V317.16H69.9508V329ZM73.8883 329H75.3443V320.232H73.8883V329ZM74.6403 318.808C75.1683 318.808 75.6003 318.376 75.6003 317.816C75.6003 317.256 75.1683 316.824 74.6403 316.824C74.0803 316.824 73.6483 317.256 73.6483 317.816C73.6483 318.376 74.0803 318.808 74.6403 318.808ZM81.5538 321.32C83.0578 321.32 84.3378 322.264 84.3218 323.976H78.7858C78.9457 322.264 80.1298 321.32 81.5538 321.32ZM85.6498 326.296H84.0818C83.7618 327.24 82.9298 327.912 81.6178 327.912C80.1298 327.912 78.8818 326.936 78.7698 325.16H85.7778C85.8098 324.856 85.8258 324.6 85.8258 324.28C85.8258 321.88 84.1618 320.088 81.6178 320.088C79.0578 320.088 77.2818 321.832 77.2818 324.6C77.2818 327.384 79.1218 329.144 81.6178 329.144C83.7938 329.144 85.2018 327.896 85.6498 326.296ZM94.1636 329H95.6036V323.832C95.6036 321.32 94.0516 320.072 92.0196 320.072C90.8356 320.072 89.7796 320.568 89.2036 321.48V320.232H87.7476V329H89.2036V324.152C89.2036 322.264 90.2276 321.336 91.7156 321.336C93.1876 321.336 94.1636 322.248 94.1636 324.04V329ZM98.302 326.6C98.302 328.36 99.182 329 100.734 329H102.046V327.768H100.974C100.078 327.768 99.758 327.464 99.758 326.6V321.432H102.046V320.232H99.758V318.024H98.302V320.232H97.166V321.432H98.302V326.6ZM110.114 326.616C110.05 323.48 104.962 324.616 104.962 322.536C104.962 321.832 105.602 321.32 106.674 321.32C107.842 321.32 108.514 321.96 108.578 322.84H110.034C109.938 321.128 108.658 320.088 106.722 320.088C104.77 320.088 103.506 321.192 103.506 322.536C103.506 325.8 108.69 324.664 108.69 326.616C108.69 327.336 108.05 327.912 106.898 327.912C105.666 327.912 104.914 327.272 104.834 326.424H103.33C103.426 328.024 104.866 329.144 106.914 329.144C108.85 329.144 110.114 328.056 110.114 326.616ZM116.755 326.6C116.755 328.36 117.635 329 119.187 329H120.499V327.768H119.427C118.531 327.768 118.211 327.464 118.211 326.6V321.432H120.499V320.232H118.211V318.024H116.755V320.232H115.619V321.432H116.755V326.6ZM130.583 324.6C130.583 321.832 128.647 320.088 126.151 320.088C123.671 320.088 121.719 321.832 121.719 324.6C121.719 327.384 123.607 329.144 126.087 329.144C128.583 329.144 130.583 327.384 130.583 324.6ZM123.207 324.6C123.207 322.392 124.599 321.352 126.135 321.352C127.639 321.352 129.095 322.392 129.095 324.6C129.095 326.824 127.607 327.864 126.087 327.864C124.567 327.864 123.207 326.824 123.207 324.6ZM138.219 321.848V320.232H136.763V333.16H138.219V327.384C138.763 328.28 139.899 329.144 141.499 329.144C143.851 329.144 145.659 327.304 145.659 324.584C145.659 321.848 143.851 320.088 141.499 320.088C139.899 320.088 138.747 320.92 138.219 321.848ZM144.171 324.584C144.171 326.648 142.811 327.864 141.195 327.864C139.611 327.864 138.219 326.664 138.219 324.6C138.219 322.568 139.611 321.352 141.195 321.352C142.811 321.352 144.171 322.52 144.171 324.584ZM147.576 329H149.032V317.16H147.576V329ZM150.969 324.584C150.969 327.304 152.777 329.144 155.113 329.144C156.729 329.144 157.865 328.312 158.393 327.368V329H159.865V320.232H158.393V321.832C157.881 320.92 156.761 320.088 155.129 320.088C152.777 320.088 150.969 321.848 150.969 324.584ZM158.393 324.6C158.393 326.664 157.017 327.864 155.417 327.864C153.817 327.864 152.457 326.648 152.457 324.584C152.457 322.52 153.817 321.352 155.417 321.352C157.017 321.352 158.393 322.568 158.393 324.6ZM168.742 329H170.182V323.832C170.182 321.32 168.63 320.072 166.598 320.072C165.414 320.072 164.358 320.568 163.782 321.48V320.232H162.326V329H163.782V324.152C163.782 322.264 164.806 321.336 166.294 321.336C167.766 321.336 168.742 322.248 168.742 324.04V329ZM177.146 326.6C177.146 328.36 178.026 329 179.578 329H180.89V327.768H179.818C178.922 327.768 178.602 327.464 178.602 326.6V321.432H180.89V320.232H178.602V318.024H177.146V320.232H176.01V321.432H177.146V326.6ZM182.654 329H184.11V324.152C184.11 322.264 185.134 321.336 186.622 321.336C188.094 321.336 189.07 322.248 189.07 324.04V329H190.51V323.832C190.51 321.32 188.958 320.072 187.006 320.072C185.774 320.072 184.686 320.568 184.11 321.496V317.16H182.654V329ZM196.616 321.32C198.12 321.32 199.4 322.264 199.384 323.976H193.848C194.008 322.264 195.192 321.32 196.616 321.32ZM200.712 326.296H199.144C198.824 327.24 197.992 327.912 196.68 327.912C195.192 327.912 193.944 326.936 193.832 325.16H200.84C200.872 324.856 200.888 324.6 200.888 324.28C200.888 321.88 199.224 320.088 196.68 320.088C194.12 320.088 192.344 321.832 192.344 324.6C192.344 327.384 194.184 329.144 196.68 329.144C198.856 329.144 200.264 327.896 200.712 326.296ZM202.81 329H204.266V320.232H202.81V329ZM203.562 318.808C204.09 318.808 204.522 318.376 204.522 317.816C204.522 317.256 204.09 316.824 203.562 316.824C203.002 316.824 202.57 317.256 202.57 317.816C202.57 318.376 203.002 318.808 203.562 318.808ZM208.204 324.232C208.204 322.2 209.26 321.576 210.652 321.576H211.036V320.072C209.644 320.072 208.7 320.68 208.204 321.656V320.232H206.748V329H208.204V324.232ZM61.688 349.864V345.16H60.232V357H61.688V355.384C62.232 356.344 63.368 357.144 64.968 357.144C67.32 357.144 69.128 355.304 69.128 352.584C69.128 349.848 67.336 348.088 64.968 348.088C63.416 348.088 62.248 348.888 61.688 349.864ZM67.64 352.584C67.64 354.648 66.28 355.864 64.664 355.864C63.08 355.864 61.688 354.664 61.688 352.6C61.688 350.568 63.08 349.352 64.664 349.352C66.28 349.352 67.64 350.52 67.64 352.584ZM78.8205 348.232H77.3645V353.048C77.3645 354.936 76.3565 355.864 74.8525 355.864C73.3805 355.864 72.4045 354.952 72.4045 353.176V348.232H70.9645V353.368C70.9645 355.88 72.5485 357.128 74.5645 357.128C75.7325 357.128 76.8045 356.616 77.3645 355.704V357H78.8205V348.232ZM87.5829 354.616C87.5189 351.48 82.4309 352.616 82.4309 350.536C82.4309 349.832 83.0709 349.32 84.1429 349.32C85.3109 349.32 85.9829 349.96 86.0469 350.84H87.5029C87.4069 349.128 86.1269 348.088 84.1909 348.088C82.2389 348.088 80.9749 349.192 80.9749 350.536C80.9749 353.8 86.1589 352.664 86.1589 354.616C86.1589 355.336 85.5189 355.912 84.3669 355.912C83.1349 355.912 82.3829 355.272 82.3029 354.424H80.7989C80.8949 356.024 82.3349 357.144 84.3829 357.144C86.3189 357.144 87.5829 356.056 87.5829 354.616ZM89.6383 357H91.0943V348.232H89.6383V357ZM90.3903 346.808C90.9183 346.808 91.3503 346.376 91.3503 345.816C91.3503 345.256 90.9183 344.824 90.3903 344.824C89.8303 344.824 89.3983 345.256 89.3983 345.816C89.3983 346.376 89.8303 346.808 90.3903 346.808ZM99.9918 357H101.432V351.832C101.432 349.32 99.8798 348.072 97.8478 348.072C96.6638 348.072 95.6078 348.568 95.0318 349.48V348.232H93.5758V357H95.0318V352.152C95.0318 350.264 96.0558 349.336 97.5438 349.336C99.0158 349.336 99.9918 350.248 99.9918 352.04V357ZM107.538 349.32C109.042 349.32 110.322 350.264 110.306 351.976H104.77C104.93 350.264 106.114 349.32 107.538 349.32ZM111.634 354.296H110.066C109.746 355.24 108.914 355.912 107.602 355.912C106.114 355.912 104.866 354.936 104.754 353.16H111.762C111.794 352.856 111.81 352.6 111.81 352.28C111.81 349.88 110.146 348.088 107.602 348.088C105.042 348.088 103.266 349.832 103.266 352.6C103.266 355.384 105.106 357.144 107.602 357.144C109.778 357.144 111.186 355.896 111.634 354.296ZM120.036 354.616C119.972 351.48 114.884 352.616 114.884 350.536C114.884 349.832 115.524 349.32 116.596 349.32C117.764 349.32 118.436 349.96 118.5 350.84H119.956C119.86 349.128 118.58 348.088 116.644 348.088C114.692 348.088 113.428 349.192 113.428 350.536C113.428 353.8 118.612 352.664 118.612 354.616C118.612 355.336 117.972 355.912 116.82 355.912C115.588 355.912 114.836 355.272 114.756 354.424H113.252C113.348 356.024 114.788 357.144 116.836 357.144C118.772 357.144 120.036 356.056 120.036 354.616ZM128.395 354.616C128.331 351.48 123.243 352.616 123.243 350.536C123.243 349.832 123.883 349.32 124.955 349.32C126.123 349.32 126.795 349.96 126.859 350.84H128.315C128.219 349.128 126.939 348.088 125.003 348.088C123.051 348.088 121.787 349.192 121.787 350.536C121.787 353.8 126.971 352.664 126.971 354.616C126.971 355.336 126.331 355.912 125.179 355.912C123.947 355.912 123.195 355.272 123.115 354.424H121.611C121.707 356.024 123.147 357.144 125.195 357.144C127.131 357.144 128.395 356.056 128.395 354.616ZM141.02 354.616C140.956 351.48 135.868 352.616 135.868 350.536C135.868 349.832 136.508 349.32 137.58 349.32C138.748 349.32 139.42 349.96 139.484 350.84H140.94C140.844 349.128 139.564 348.088 137.628 348.088C135.676 348.088 134.412 349.192 134.412 350.536C134.412 353.8 139.596 352.664 139.596 354.616C139.596 355.336 138.956 355.912 137.804 355.912C136.572 355.912 135.82 355.272 135.74 354.424H134.236C134.332 356.024 135.772 357.144 137.82 357.144C139.756 357.144 141.02 356.056 141.02 354.616ZM151.396 352.6C151.396 349.832 149.46 348.088 146.964 348.088C144.484 348.088 142.532 349.832 142.532 352.6C142.532 355.384 144.42 357.144 146.9 357.144C149.396 357.144 151.396 355.384 151.396 352.6ZM144.02 352.6C144.02 350.392 145.412 349.352 146.948 349.352C148.452 349.352 149.908 350.392 149.908 352.6C149.908 354.824 148.42 355.864 146.9 355.864C145.38 355.864 144.02 354.824 144.02 352.6ZM153.31 357H154.766V345.16H153.31V357ZM165.024 348.232H163.568V353.048C163.568 354.936 162.56 355.864 161.056 355.864C159.584 355.864 158.608 354.952 158.608 353.176V348.232H157.168V353.368C157.168 355.88 158.752 357.128 160.768 357.128C161.936 357.128 163.008 356.616 163.568 355.704V357H165.024V348.232ZM167.802 354.6C167.802 356.36 168.682 357 170.234 357H171.546V355.768H170.474C169.578 355.768 169.258 355.464 169.258 354.6V349.432H171.546V348.232H169.258V346.024H167.802V348.232H166.666V349.432H167.802V354.6ZM173.31 357H174.766V348.232H173.31V357ZM174.062 346.808C174.59 346.808 175.022 346.376 175.022 345.816C175.022 345.256 174.59 344.824 174.062 344.824C173.502 344.824 173.07 345.256 173.07 345.816C173.07 346.376 173.502 346.808 174.062 346.808ZM185.568 352.6C185.568 349.832 183.632 348.088 181.136 348.088C178.656 348.088 176.704 349.832 176.704 352.6C176.704 355.384 178.592 357.144 181.072 357.144C183.568 357.144 185.568 355.384 185.568 352.6ZM178.192 352.6C178.192 350.392 179.584 349.352 181.12 349.352C182.624 349.352 184.08 350.392 184.08 352.6C184.08 354.824 182.592 355.864 181.072 355.864C179.552 355.864 178.192 354.824 178.192 352.6ZM193.898 357H195.338V351.832C195.338 349.32 193.786 348.072 191.754 348.072C190.57 348.072 189.514 348.568 188.938 349.48V348.232H187.482V357H188.938V352.152C188.938 350.264 189.962 349.336 191.45 349.336C192.922 349.336 193.898 350.248 193.898 352.04V357ZM204.02 354.616C203.956 351.48 198.868 352.616 198.868 350.536C198.868 349.832 199.508 349.32 200.58 349.32C201.748 349.32 202.42 349.96 202.484 350.84H203.94C203.844 349.128 202.564 348.088 200.628 348.088C198.676 348.088 197.412 349.192 197.412 350.536C197.412 353.8 202.596 352.664 202.596 354.616C202.596 355.336 201.956 355.912 200.804 355.912C199.572 355.912 198.82 355.272 198.74 354.424H197.236C197.332 356.024 198.772 357.144 200.82 357.144C202.756 357.144 204.02 356.056 204.02 354.616Z" fill="#EDEDED"/>
<g opacity="0.35" filter="url(#filter0_f_315_701)">
<rect x="77" y="77" width="65" height="69.3919" rx="28" fill="#46C622"/>
</g>
<rect x="60" y="60" width="98" height="103" rx="34" fill="white"/>
<path fill-rule="evenodd" clip-rule="evenodd" d="M87.3631 142.016C87.3631 142.791 87.5258 143.405 88.2899 143.732V143.738H94.017C94.7007 143.42 94.9347 142.888 94.9292 142.138C94.9104 139.662 94.9133 137.186 94.9161 134.71C94.9172 133.81 94.9182 132.91 94.9182 132.009V131.223H106.235V131.9C106.235 132.765 106.236 133.631 106.237 134.497C106.24 136.986 106.243 139.476 106.222 141.966C106.217 142.736 106.405 143.337 107.089 143.736H112.94C113.604 143.363 113.827 142.805 113.821 142.041C113.801 138.798 113.804 135.555 113.807 132.311C113.808 131.183 113.809 130.055 113.809 128.927V128.114C113.993 128.321 114.161 128.511 114.321 128.689C114.585 128.985 114.822 129.251 115.057 129.52C115.958 130.546 116.861 131.572 117.764 132.597C120.282 135.459 122.801 138.321 125.292 141.208C126.319 142.398 127.442 143.365 128.999 143.736H130.617C130.845 143.633 131.084 143.545 131.324 143.456C131.85 143.262 132.377 143.067 132.779 142.725C134.406 141.345 135.971 139.882 137.466 138.36C138.386 137.422 138.485 136.204 137.982 134.993C137.487 133.797 136.563 133.101 135.271 133.022C134.534 132.978 133.763 132.991 133.052 133.165C132.376 133.329 131.72 133.58 131.048 133.837C130.757 133.949 130.463 134.061 130.164 134.168L129.544 133.273C127.95 130.967 126.32 128.611 124.639 126.178H125.374C126.277 126.177 127.18 126.177 128.083 126.177C130.147 126.177 132.211 126.177 134.275 126.163C137.121 126.143 139.322 124.045 139.369 121.206C139.402 119.237 139.316 117.263 139.185 115.298C139.101 114.049 138.388 113.121 137.225 112.629C136.042 112.128 134.847 112.223 133.916 113.119C133.2 113.81 132.602 114.66 132.096 115.523C131.829 115.977 131.668 116.494 131.5 117.03C131.423 117.274 131.346 117.522 131.257 117.769C130.957 117.718 130.656 117.665 130.353 117.612C129.649 117.49 128.938 117.366 128.226 117.248C127.407 117.113 126.736 117.544 126.632 118.254C126.52 119.001 126.979 119.563 127.82 119.707C128.092 119.754 128.365 119.799 128.637 119.845C129.346 119.963 130.055 120.082 130.76 120.221C130.939 120.255 131.226 120.436 131.229 120.559C131.259 121.348 131.256 122.139 131.253 122.945C131.252 123.189 131.251 123.434 131.251 123.681C131.201 123.683 131.147 123.686 131.089 123.689C130.98 123.696 130.861 123.703 130.741 123.703C130.334 123.702 129.927 123.702 129.519 123.701C127.084 123.698 124.649 123.696 122.214 123.685C120.804 123.678 119.395 123.674 117.985 123.669C113.835 123.657 109.685 123.644 105.535 123.577C102.543 123.529 99.9324 121.54 98.9197 118.734C98.8237 118.469 98.7559 118.194 98.6834 117.9C98.6481 117.757 98.6118 117.61 98.5705 117.457H99.362C100.508 117.457 101.654 117.454 102.8 117.451C105.575 117.444 108.35 117.436 111.125 117.471C112.526 117.489 113.926 117.605 115.326 117.722C115.662 117.75 115.997 117.777 116.333 117.804C117.143 117.866 117.784 117.453 117.881 116.718C117.971 116.042 117.463 115.44 116.671 115.336C115.808 115.223 114.944 115.117 114.076 115.058C113.597 115.025 113.364 114.879 113.257 114.364C112.97 112.985 112.624 111.618 112.258 110.258C111.962 109.156 111.656 108.056 111.351 106.956C111.019 105.764 110.688 104.571 110.368 103.376C110.315 103.182 110.425 102.897 110.546 102.712C111.332 101.516 112.124 100.323 112.917 99.1313C113.491 98.2689 114.064 97.4066 114.635 96.5427C117.059 92.8739 115.626 88.4337 111.511 86.858C110.464 86.4574 109.417 86.0583 108.37 85.6592C106.36 84.8929 104.35 84.1266 102.343 83.3501C102.071 83.2459 101.797 83.054 101.609 82.831C99.4626 80.2681 96.0132 79.334 92.88 80.4893C89.809 81.6208 87.7818 84.6004 87.7891 87.9073C87.7909 88.2381 87.641 88.633 87.429 88.8907C86.5423 89.9666 85.644 91.0337 84.7456 92.1008C83.6397 93.4143 82.5338 94.728 81.4496 96.0583C78.7917 99.3176 79.9214 104.036 83.7547 105.77C84.6778 106.187 85.6284 106.555 86.5862 106.884C87.173 107.087 87.3924 107.364 87.3924 108.032C87.3761 114.767 87.374 121.503 87.3719 128.238C87.3705 132.831 87.3691 137.423 87.3631 142.016ZM110.856 114.963C110.671 114.215 110.484 113.477 110.299 112.744C109.884 111.107 109.477 109.501 109.122 107.882C108.604 105.524 107.806 103.308 106.325 101.376C104.93 99.5552 103.307 98.0197 101.122 97.1715C100.673 96.9978 100.3 97.0362 99.8337 97.2154C98.916 97.5682 97.949 97.9173 96.9838 97.9904C96.1722 98.0526 95.7317 98.3597 95.4081 99.0159C95.3259 99.1823 95.2326 99.345 95.1357 99.504C93.8324 101.641 91.2385 102.443 88.9663 101.396C88.4417 101.155 87.9353 100.864 87.4326 100.575C86.4016 99.983 86.2609 99.2883 86.9701 98.3359C87.2852 97.9125 87.6012 97.4901 87.9173 97.0676C88.4704 96.3283 89.0234 95.589 89.5714 94.8445C89.6701 94.7092 89.7944 94.4844 89.7468 94.3655C89.4602 93.6566 89.151 92.9558 88.8369 92.244C88.7323 92.007 88.6271 91.7687 88.5221 91.5285C88.4858 91.5675 88.4489 91.6064 88.4118 91.6453C88.3238 91.7379 88.2352 91.8311 88.1528 91.9288C86.6447 93.7221 85.1367 95.5154 83.6322 97.3104C81.6214 99.7088 82.3636 102.586 85.2811 103.721C86.4917 104.192 87.7018 104.665 88.912 105.137C91.1537 106.012 93.3954 106.887 95.6403 107.754C96.2618 107.993 96.6109 108.392 96.7608 109.039C96.9453 109.833 97.1402 110.624 97.3351 111.416C97.5709 112.373 97.8068 113.331 98.024 114.292C98.1391 114.804 98.3347 114.983 98.8813 114.978C100.745 114.954 102.61 114.957 104.474 114.961C105.14 114.962 105.805 114.963 106.471 114.963H110.856ZM101.607 89.7755C102.022 92.8776 99.501 95.5629 95.9583 95.5556V95.5574C94.2272 95.4514 92.5455 94.5337 91.6534 92.5613C91.0959 91.3256 90.6828 89.9967 90.4122 88.6677C89.8766 86.0427 91.4889 83.5073 94.0499 82.7194C96.5963 81.9352 99.3858 83.1509 100.393 85.6205C100.936 86.9512 101.417 88.3588 101.607 89.7755ZM110.153 98.7908C109.747 99.3994 109.342 100.008 108.937 100.617V100.619C108.426 100.013 107.928 99.4237 107.429 98.8316C107.053 98.3861 106.675 97.9391 106.29 97.4823C106.481 97.2153 106.674 96.9467 106.868 96.6766C107.514 95.7762 108.171 94.8599 108.816 93.936C108.988 93.6892 109.155 93.3967 109.197 93.1061C109.29 92.4718 108.959 92.0458 108.385 91.7899L108.234 91.7227C107.019 91.1802 105.803 90.6371 104.594 90.0789C104.424 90.0003 104.197 89.8559 104.161 89.7024C103.968 88.9121 103.799 88.1166 103.626 87.2962C103.567 87.0198 103.508 86.7405 103.448 86.4577L103.554 86.4976C103.853 86.609 104.155 86.7218 104.457 86.8361C104.98 87.0356 105.504 87.2349 106.028 87.4343C107.573 88.022 109.118 88.61 110.661 89.2051C113.24 90.1996 114.09 92.8264 112.578 95.1333C111.777 96.3568 110.965 97.5738 110.153 98.7908ZM115.444 126.183C117.009 127.991 118.562 129.784 120.11 131.573C122.024 133.783 123.932 135.987 125.851 138.204C126.196 137.881 126.532 137.565 126.863 137.254C127.357 136.79 127.841 136.336 128.326 135.881C127.968 135.363 127.611 134.846 127.255 134.331C125.42 131.677 123.615 129.066 121.793 126.467C121.673 126.295 121.355 126.182 121.126 126.176C119.635 126.146 118.142 126.141 116.65 126.135C116.401 126.134 116.152 126.133 115.903 126.132C115.828 126.132 115.752 126.143 115.642 126.158C115.586 126.165 115.522 126.174 115.444 126.183ZM89.9059 126.134H111.29V128.644H89.9059V126.134ZM89.9059 123.553V108.205C90.1144 108.287 90.3186 108.365 90.5193 108.442C91.0855 108.66 91.6239 108.867 92.1543 109.095C92.2823 109.15 92.4175 109.364 92.4175 109.505C92.4289 113.651 92.4287 117.799 92.4285 121.981C92.4285 122.504 92.4285 123.028 92.4285 123.553H89.9059ZM108.774 141.199V131.203H111.284V141.199H108.774ZM92.3901 131.214V141.213H89.904V131.214H92.3901ZM136.903 120.937C136.94 122.641 135.737 123.73 133.847 123.654V123.652C133.847 123.091 133.841 122.533 133.835 121.979C133.821 120.654 133.807 119.345 133.874 118.04C133.927 116.994 134.474 116.075 135.192 115.289C135.47 114.983 135.766 114.729 136.214 114.894C136.657 115.055 136.741 115.418 136.752 115.844C136.771 116.625 136.797 117.405 136.823 118.185C136.853 119.102 136.884 120.019 136.903 120.937ZM131.818 140.321C130.392 141.65 128.89 141.551 127.573 139.979H127.575C127.949 139.637 128.317 139.292 128.682 138.95C129.523 138.163 130.353 137.386 131.224 136.658C132.198 135.843 133.381 135.453 134.671 135.461C135.097 135.462 135.523 135.486 135.702 135.969C135.872 136.429 135.633 136.746 135.306 137.049C134.627 137.678 133.954 138.312 133.281 138.946C132.794 139.405 132.307 139.864 131.818 140.321ZM99.2176 123.566H94.942V112.581L95.0827 112.554C95.177 112.987 95.2826 113.419 95.3881 113.851C95.6244 114.819 95.8606 115.785 95.9693 116.766C96.2508 119.319 97.1794 121.52 99.0184 123.325C99.053 123.358 99.0829 123.396 99.1285 123.454C99.1527 123.485 99.1814 123.521 99.2176 123.566ZM102.621 95.0638C103.06 94.2083 103.48 93.3894 103.927 92.5229V92.5211C104.137 92.615 104.349 92.7091 104.563 92.8046C105.046 93.0198 105.544 93.2415 106.082 93.4808C105.743 93.9568 105.412 94.4207 105.081 94.8832C104.822 95.2466 104.563 95.6092 104.301 95.976L102.621 95.0638ZM92.141 96.772C92.5517 97.0134 92.9576 97.252 93.379 97.4987V97.5005C92.5071 99.3194 91.2129 99.8312 89.6353 98.9355C90.266 98.0928 90.8893 97.2593 91.5236 96.4092C91.7322 96.5317 91.9372 96.6522 92.141 96.772ZM122.335 116.223C121.642 116.179 121.048 116.716 121.02 117.413C120.995 118.091 121.503 118.659 122.17 118.702C122.85 118.744 123.463 118.195 123.501 117.51C123.538 116.868 122.989 116.263 122.335 116.223Z" fill="#46C622"/>
<defs>
<filter id="filter0_f_315_701" x="0" y="0" width="219" height="223.393" filterUnits="userSpaceOnUse" color-interpolation-filters="sRGB">
<feFlood flood-opacity="0" result="BackgroundImageFix"/>
<feBlend mode="normal" in="SourceGraphic" in2="BackgroundImageFix" result="shape"/>
<feGaussianBlur stdDeviation="38.5" result="effect1_foregroundBlur_315_701"/>
</filter>
</defs>
</svg>
