<svg width="117" height="54" viewBox="0 0 117 54" fill="none" xmlns="http://www.w3.org/2000/svg">
<path fill-rule="evenodd" clip-rule="evenodd" d="M116.769 40.2135C116.699 40.3753 116.628 40.5372 116.558 40.6983C115.691 42.6785 114.259 43.836 112.208 43.914C110.156 43.9919 108.099 43.9688 106.045 43.9371C105.377 43.9284 105.054 44.0987 104.871 44.8637C103.554 50.3857 99.2653 53.9795 94.0932 53.9622C88.9939 53.9449 84.6834 50.3049 83.4099 44.8839C83.2537 44.2199 83.0491 43.9371 82.3679 43.9371C68.9151 43.9532 55.4622 43.9546 42.0094 43.956H41.999C38.636 43.9563 35.273 43.9567 31.9101 43.9573C31.8173 43.9573 31.7246 43.9731 31.6179 43.9914C31.5543 44.0022 31.4857 44.014 31.4093 44.0237C31.3689 44.1832 31.3294 44.3427 31.29 44.5019C31.2139 44.8093 31.1382 45.1155 31.0566 45.4179C29.5623 50.9861 24.4253 54.6146 19.0567 53.8958C13.6611 53.1713 9.46102 48.2092 9.40179 42.3841C9.39102 41.4228 9.17563 40.9321 8.3033 40.6002C7.60381 40.3332 6.92471 40.0037 6.24552 39.674C5.57314 39.3477 4.90066 39.0213 4.20819 38.7556C2.14583 37.9647 0.675787 36.6022 0 34.3333V18.9016C0.915409 16.1391 2.83777 14.8748 5.46553 14.4678C6.71993 14.273 7.95876 13.9709 9.19775 13.6688L9.19775 13.6688L9.19784 13.6688C9.88681 13.5008 10.5758 13.3328 11.2676 13.1832C13.6854 12.6579 15.8877 11.6187 17.977 10.2245C20.2362 8.71592 22.5075 7.22894 24.779 5.74182L24.7791 5.74178L24.7793 5.74165C26.663 4.50845 28.5467 3.27517 30.4239 2.02943C32.4862 0.658291 34.6913 -0.0113996 37.1279 0.000146764C45.6547 0.0347859 54.1841 0.0347859 62.7136 0.000146764C64.9402 -0.00851303 66.9864 0.545713 68.9437 1.67149C72.5392 3.7411 76.1393 5.80208 79.7397 7.86316L79.7413 7.86409C84.7273 10.7184 89.7137 13.573 94.6883 16.4509C96.0213 17.2215 97.4507 17.4015 98.8798 17.5816C99.5866 17.6706 100.293 17.7597 100.988 17.9201C101.174 17.9633 101.362 17.9917 101.55 18.02C101.777 18.0541 102.003 18.0882 102.224 18.1482C103.207 18.4138 103.708 19.2076 103.56 20.2265C103.42 21.1964 102.652 21.8488 101.656 21.7276C100.911 21.6365 100.169 21.5208 99.4261 21.4052L99.426 21.4052C98.6623 21.2863 97.8987 21.1674 97.1329 21.0752C95.8891 20.9251 94.6344 20.7779 93.3851 20.775C75.3004 20.7548 57.2157 20.7346 39.131 20.7837C35.3052 20.7952 31.9612 19.6723 29.0535 16.9791C27.2119 15.2731 25.2976 13.6509 23.3725 12.0517C23.0737 11.8034 22.379 11.6505 22.1394 11.841C17.4143 15.6426 11.868 17.008 6.22747 18.0818C3.44086 18.6129 3.23355 18.9362 3.52971 22.6282C3.9244 22.6282 4.32057 22.6279 4.71784 22.6276C5.51567 22.6269 6.31791 22.6263 7.12134 22.6282C7.93444 22.6311 8.62369 22.8851 8.99255 23.7482C9.50948 24.9634 8.74754 26.2335 7.40673 26.2913C6.52624 26.3309 5.6432 26.3216 4.72531 26.3118H4.72517C4.30711 26.3074 3.88182 26.3028 3.44625 26.3028C3.44625 26.9597 3.44182 27.6066 3.43744 28.2461L3.43744 28.2462C3.42545 29.9983 3.41384 31.6948 3.49471 33.3865C3.51894 33.8946 4.05742 34.5816 4.5232 34.8241C5.87843 35.5325 7.26875 36.1625 8.67478 36.7996L8.67553 36.8C9.17707 37.0273 9.68061 37.2554 10.1853 37.4884C10.3762 37.1251 10.543 36.8107 10.7098 36.4964L10.7103 36.4954C11.3268 35.3379 12.2422 34.9511 13.1603 35.462C14.0569 35.9614 14.2454 36.963 13.75 38.2187C13.4404 39.001 13.1388 39.8063 12.9773 40.6319C12.3069 44.0265 13.8254 47.4847 16.7008 49.2426C19.5494 50.9832 23.1787 50.53 25.6072 48.1371C28.033 45.7441 28.7519 41.9164 27.3761 38.7123C26.0138 35.5399 22.8691 33.6204 19.6651 34.0072C17.8424 34.2265 17.0374 33.808 16.892 32.561C16.7385 31.2389 17.4843 30.5519 19.2963 30.3527C24.7403 29.7552 29.6646 33.3894 31.1158 39.076C31.2047 39.4282 31.2962 39.7775 31.4228 40.2595H32.6316C35.3726 40.2595 38.1136 40.2594 40.8546 40.2592C54.5613 40.2584 68.2681 40.2576 81.9748 40.2768C82.866 40.2768 83.2537 40.095 83.5041 39.05C84.7426 33.8571 89.2308 30.2286 94.1875 30.2575C99.2276 30.2892 103.619 33.9754 104.879 39.2348C104.919 39.4019 104.961 39.569 105.006 39.7472C105.045 39.9015 105.086 40.0641 105.129 40.2422C105.793 40.2422 106.454 40.2448 107.114 40.2473H107.115C108.788 40.2537 110.45 40.2601 112.111 40.2249C113.002 40.2076 113.521 39.5465 113.54 38.6286C113.575 36.9519 113.568 35.2752 113.562 33.5487C113.559 32.8468 113.556 32.1367 113.556 31.415C113.225 31.415 112.903 31.4168 112.588 31.4185C111.923 31.4223 111.286 31.4258 110.649 31.4121C109.461 31.3861 108.767 30.7164 108.751 29.6253C108.734 28.5371 109.434 27.8154 110.589 27.749C110.906 27.7309 111.224 27.7352 111.542 27.7395C111.681 27.7414 111.82 27.7432 111.96 27.7432H113.451C112.929 25.5004 111.79 24.0513 109.957 23.2113C109.816 23.1466 109.669 23.0958 109.523 23.0452L109.523 23.0452C109.343 22.9828 109.163 22.9207 108.996 22.8331C108.137 22.3886 107.714 21.6698 107.999 20.648C108.282 19.6377 108.99 19.1931 109.938 19.3923C110.6 19.5338 111.257 19.7936 111.866 20.114C114.41 21.4476 115.985 23.6472 116.736 26.554C116.793 26.7749 116.857 26.993 116.921 27.2112C116.948 27.3009 116.974 27.3906 117 27.4806V39.7284L116.981 39.7255C116.911 39.8877 116.84 40.0506 116.769 40.2135ZM40.1838 3.73829V17.0109H58.2011V3.73829H40.1838ZM88.1135 16.9907C88.0438 16.9203 87.9911 16.862 87.9477 16.814C87.8754 16.7341 87.8287 16.6825 87.7715 16.65C86.4307 15.8814 85.0901 15.1126 83.7496 14.3439L83.7242 14.3293L83.7237 14.329C78.0047 11.0491 72.2872 7.7701 66.5556 4.5119C65.0748 3.66901 63.454 3.55355 61.7605 3.75272V16.9907H88.1135ZM94.174 50.2847C98.3957 50.2703 101.772 46.6158 101.75 42.0867C101.729 37.5606 98.2987 33.9061 94.1067 33.9379C89.8904 33.9696 86.525 37.627 86.5357 42.1618C86.5492 46.6938 89.9389 50.2991 94.174 50.2847ZM29.2226 12.382C28.0846 11.335 26.9292 10.272 25.6231 9.3746C26.9869 8.68828 28.223 7.8266 29.4417 6.97709C31.6575 5.43248 33.8156 3.92809 36.5787 3.59107V16.9618C33.5518 16.3648 31.4195 14.4031 29.2226 12.382L29.2226 12.382ZM20.3491 40.3115C21.2807 40.2826 22.1288 41.1342 22.1422 42.1156C22.1557 43.074 21.4207 43.8822 20.5026 43.9226C19.5387 43.9631 18.7445 43.1663 18.7364 42.1416C18.7283 41.1486 19.4418 40.3433 20.3491 40.3144V40.3115ZM92.4592 42.1617C92.4592 43.1749 93.1619 43.9399 94.1069 43.9543C95.0627 43.9687 95.795 43.2327 95.822 42.231C95.8516 41.1947 95.0843 40.3663 94.1015 40.3691C93.1565 40.372 92.4592 41.1341 92.4592 42.1617Z" fill="url(#paint0_linear_317_489)"/>
<defs>
<linearGradient id="paint0_linear_317_489" x1="60.9824" y1="64.5155" x2="60.3634" y2="-9.23644" gradientUnits="userSpaceOnUse">
<stop stop-color="#0047BF"/>
<stop offset="1" stop-color="#2AA9FF"/>
</linearGradient>
</defs>
</svg>
