<svg width="70" height="70" viewBox="0 0 70 70" fill="none" xmlns="http://www.w3.org/2000/svg">
<mask id="path-1-inside-1_121_297" fill="white">
<path fill-rule="evenodd" clip-rule="evenodd" d="M10.7225 49.1487C10.0059 52.9772 11.9014 56.011 16.4608 58.2445L16.455 58.2474C15.3628 62.1452 16.1979 65.2946 18.8792 67.4588C21.3814 69.4813 24.9007 69.8772 27.6774 68.262C31.4654 66.0574 32.5142 62.6797 31.4827 58.493H32.4333C32.9151 58.493 34.019 58.4933 35.499 58.4938C38.8018 58.4948 43.9775 58.4964 48.2909 58.4961C47.9974 59.3233 47.8372 60.2123 47.8366 61.1368C47.8337 65.5344 51.3963 69.1057 55.7969 69.1201H55.794C60.1454 69.1317 63.7513 65.5749 63.7773 61.2437C63.8062 56.7998 60.2465 53.1939 55.8171 53.1765C55.7054 53.1761 55.5942 53.178 55.4836 53.1822C50.166 53.1757 35.6752 53.1775 26.1544 53.1787C23.2633 53.1791 20.8304 53.1794 19.252 53.1794C19.1789 53.1794 19.1055 53.1802 19.0319 53.1811C18.8288 53.1833 18.6242 53.1856 18.4227 53.1708C17.0965 53.0696 16.0303 51.9919 15.9494 50.6888C15.8685 49.3366 16.822 48.1172 18.1655 47.9005C18.4456 47.8546 18.7349 47.858 19.0216 47.8613C19.0957 47.8621 19.1697 47.863 19.2433 47.863H60.6857C62.506 47.863 63.5057 47.0742 63.7831 45.4099C65.5109 35.0428 67.2359 24.6757 68.958 14.3086C69.3654 11.8555 68.3194 10.6477 65.8143 10.6477H24.5395C24.4708 10.6477 24.4023 10.6471 24.3339 10.6465C24.1523 10.6447 23.9717 10.643 23.7912 10.6535C22.4505 10.7344 21.3785 11.7688 21.2716 13.0806C21.1618 14.4184 22.098 15.6637 23.4358 15.9122C23.7256 15.9673 24.0273 15.9648 24.3261 15.9623C24.3878 15.9618 24.4493 15.9613 24.5106 15.9613H62.298H63.3035C62.1145 23.102 60.9367 30.1686 59.7566 37.2486C59.4626 39.0123 59.1685 40.7769 58.874 42.5436H57.9928C56.0311 42.5436 54.0695 42.5433 52.108 42.543C43.6051 42.5417 35.1033 42.5404 26.5996 42.5638C25.9091 42.5638 25.6577 42.3269 25.4352 41.7259C23.3211 36.0363 21.1893 30.3502 19.0578 24.6649C18.4626 23.0773 17.8675 21.4899 17.2727 19.9024C16.7791 18.5853 16.2854 17.2685 15.7917 15.9517C14.063 11.3413 12.3349 6.73242 10.6156 2.11829C10.1446 0.855632 9.35004 0.0408267 7.9458 0.0206011C6.17172 -0.00540335 4.40053 -0.00829273 2.62934 0.0206011C1.12975 0.0466055 -0.00288387 1.21969 5.51567e-06 2.67594C0.0028949 4.12063 1.14709 5.28216 2.64379 5.32261C2.69521 5.324 2.74665 5.32541 2.7981 5.32681C3.60511 5.34887 4.41422 5.37099 5.21823 5.31395C5.90301 5.26772 6.21795 5.49309 6.46355 6.15476C9.84853 15.2384 13.2523 24.3152 16.6565 33.3931C17.6778 36.1166 18.6991 38.8402 19.72 41.5641C19.801 41.7778 19.87 41.996 19.9495 42.2476C19.9807 42.3463 20.0136 42.4502 20.0494 42.561C17.8275 42.4252 15.802 42.6996 14.0193 43.971C12.2192 45.2539 11.1299 46.973 10.7225 49.1487ZM21.2659 61.1339C21.2716 59.6834 22.4563 58.5017 23.9096 58.493H23.9125C25.3457 58.4843 26.5621 59.6834 26.5736 61.1195C26.5852 62.5728 25.415 63.7748 23.9674 63.8008C22.4852 63.8268 21.2572 62.6162 21.2659 61.1339ZM55.872 58.4959C57.3196 58.5306 58.4811 59.7354 58.4638 61.1888C58.4435 62.6248 57.2242 63.8181 55.7882 63.8037C54.3377 63.7863 53.156 62.5959 53.156 61.1483C53.1589 59.6661 54.3926 58.4612 55.872 58.4959Z"/>
</mask>
<path fill-rule="evenodd" clip-rule="evenodd" d="M10.7225 49.1487C10.0059 52.9772 11.9014 56.011 16.4608 58.2445L16.455 58.2474C15.3628 62.1452 16.1979 65.2946 18.8792 67.4588C21.3814 69.4813 24.9007 69.8772 27.6774 68.262C31.4654 66.0574 32.5142 62.6797 31.4827 58.493H32.4333C32.9151 58.493 34.019 58.4933 35.499 58.4938C38.8018 58.4948 43.9775 58.4964 48.2909 58.4961C47.9974 59.3233 47.8372 60.2123 47.8366 61.1368C47.8337 65.5344 51.3963 69.1057 55.7969 69.1201H55.794C60.1454 69.1317 63.7513 65.5749 63.7773 61.2437C63.8062 56.7998 60.2465 53.1939 55.8171 53.1765C55.7054 53.1761 55.5942 53.178 55.4836 53.1822C50.166 53.1757 35.6752 53.1775 26.1544 53.1787C23.2633 53.1791 20.8304 53.1794 19.252 53.1794C19.1789 53.1794 19.1055 53.1802 19.0319 53.1811C18.8288 53.1833 18.6242 53.1856 18.4227 53.1708C17.0965 53.0696 16.0303 51.9919 15.9494 50.6888C15.8685 49.3366 16.822 48.1172 18.1655 47.9005C18.4456 47.8546 18.7349 47.858 19.0216 47.8613C19.0957 47.8621 19.1697 47.863 19.2433 47.863H60.6857C62.506 47.863 63.5057 47.0742 63.7831 45.4099C65.5109 35.0428 67.2359 24.6757 68.958 14.3086C69.3654 11.8555 68.3194 10.6477 65.8143 10.6477H24.5395C24.4708 10.6477 24.4023 10.6471 24.3339 10.6465C24.1523 10.6447 23.9717 10.643 23.7912 10.6535C22.4505 10.7344 21.3785 11.7688 21.2716 13.0806C21.1618 14.4184 22.098 15.6637 23.4358 15.9122C23.7256 15.9673 24.0273 15.9648 24.3261 15.9623C24.3878 15.9618 24.4493 15.9613 24.5106 15.9613H62.298H63.3035C62.1145 23.102 60.9367 30.1686 59.7566 37.2486C59.4626 39.0123 59.1685 40.7769 58.874 42.5436H57.9928C56.0311 42.5436 54.0695 42.5433 52.108 42.543C43.6051 42.5417 35.1033 42.5404 26.5996 42.5638C25.9091 42.5638 25.6577 42.3269 25.4352 41.7259C23.3211 36.0363 21.1893 30.3502 19.0578 24.6649C18.4626 23.0773 17.8675 21.4899 17.2727 19.9024C16.7791 18.5853 16.2854 17.2685 15.7917 15.9517C14.063 11.3413 12.3349 6.73242 10.6156 2.11829C10.1446 0.855632 9.35004 0.0408267 7.9458 0.0206011C6.17172 -0.00540335 4.40053 -0.00829273 2.62934 0.0206011C1.12975 0.0466055 -0.00288387 1.21969 5.51567e-06 2.67594C0.0028949 4.12063 1.14709 5.28216 2.64379 5.32261C2.69521 5.324 2.74665 5.32541 2.7981 5.32681C3.60511 5.34887 4.41422 5.37099 5.21823 5.31395C5.90301 5.26772 6.21795 5.49309 6.46355 6.15476C9.84853 15.2384 13.2523 24.3152 16.6565 33.3931C17.6778 36.1166 18.6991 38.8402 19.72 41.5641C19.801 41.7778 19.87 41.996 19.9495 42.2476C19.9807 42.3463 20.0136 42.4502 20.0494 42.561C17.8275 42.4252 15.802 42.6996 14.0193 43.971C12.2192 45.2539 11.1299 46.973 10.7225 49.1487ZM21.2659 61.1339C21.2716 59.6834 22.4563 58.5017 23.9096 58.493H23.9125C25.3457 58.4843 26.5621 59.6834 26.5736 61.1195C26.5852 62.5728 25.415 63.7748 23.9674 63.8008C22.4852 63.8268 21.2572 62.6162 21.2659 61.1339ZM55.872 58.4959C57.3196 58.5306 58.4811 59.7354 58.4638 61.1888C58.4435 62.6248 57.2242 63.8181 55.7882 63.8037C54.3377 63.7863 53.156 62.5959 53.156 61.1483C53.1589 59.6661 54.3926 58.4612 55.872 58.4959Z" fill="url(#paint0_linear_121_297)"/>
<path d="M16.4608 58.2445L16.9078 59.1391L18.7158 58.2356L16.9007 57.3465L16.4608 58.2445ZM10.7225 49.1487L9.73958 48.9647L9.73957 48.9648L10.7225 49.1487ZM16.455 58.2474L16.0081 57.3529L15.6117 57.5509L15.4921 57.9776L16.455 58.2474ZM18.8792 67.4588L19.5079 66.6811L19.5073 66.6806L18.8792 67.4588ZM27.6774 68.262L28.1802 69.1264L28.1804 69.1263L27.6774 68.262ZM31.4827 58.493V57.493H30.2064L30.5117 58.7322L31.4827 58.493ZM35.499 58.4938L35.4993 57.4938H35.4993L35.499 58.4938ZM48.2909 58.4961L49.2334 58.8304L49.7067 57.496L48.2908 57.4961L48.2909 58.4961ZM47.8366 61.1368L46.8366 61.1361V61.1361L47.8366 61.1368ZM55.7969 69.1201V70.1201L55.8001 68.1201L55.7969 69.1201ZM55.794 69.1201V68.1201L55.7913 70.1201L55.794 69.1201ZM63.7773 61.2437L62.7774 61.2372L62.7774 61.2377L63.7773 61.2437ZM55.8171 53.1765L55.8131 54.1765H55.8132L55.8171 53.1765ZM55.4836 53.1822L55.4824 54.1822L55.502 54.1822L55.5216 54.1815L55.4836 53.1822ZM26.1544 53.1787L26.1543 52.1787L26.1544 53.1787ZM19.0319 53.1811L19.0208 52.1811H19.0208L19.0319 53.1811ZM18.4227 53.1708L18.3467 54.1679L18.3492 54.1681L18.4227 53.1708ZM15.9494 50.6888L14.9512 50.7485L14.9513 50.7508L15.9494 50.6888ZM18.1655 47.9005L18.3248 48.8878L18.3273 48.8874L18.1655 47.9005ZM19.0216 47.8613L19.0101 48.8612H19.0101L19.0216 47.8613ZM63.7831 45.4099L64.7695 45.5743L63.7831 45.4099ZM68.958 14.3086L69.9445 14.4725L69.9445 14.4724L68.958 14.3086ZM24.3339 10.6465L24.3434 9.6465H24.3434L24.3339 10.6465ZM23.7912 10.6535L23.7331 9.65521L23.7309 9.65534L23.7912 10.6535ZM21.2716 13.0806L22.2683 13.1624L22.2683 13.1618L21.2716 13.0806ZM23.4358 15.9122L23.6225 14.9298L23.6184 14.929L23.4358 15.9122ZM24.3261 15.9623L24.3179 14.9624H24.3179L24.3261 15.9623ZM63.3035 15.9613L64.2899 16.1256L64.4837 14.9613H63.3035V15.9613ZM59.7566 37.2486L60.743 37.413L59.7566 37.2486ZM58.874 42.5436V43.5436H59.7212L59.8604 42.708L58.874 42.5436ZM52.108 42.543L52.1082 41.543L52.108 42.543ZM26.5996 42.5638V43.5639L26.6024 43.5638L26.5996 42.5638ZM25.4352 41.7259L26.373 41.3788L26.3726 41.3776L25.4352 41.7259ZM19.0578 24.6649L19.9942 24.3138L19.0578 24.6649ZM17.2727 19.9024L18.2092 19.5516L18.2091 19.5515L17.2727 19.9024ZM15.7917 15.9517L14.8553 16.3028L15.7917 15.9517ZM10.6156 2.11829L11.5526 1.76912L11.5525 1.76881L10.6156 2.11829ZM7.9458 0.0206011L7.93115 1.02049L7.9314 1.0205L7.9458 0.0206011ZM2.62934 0.0206011L2.61303 -0.979266L2.612 -0.979249L2.62934 0.0206011ZM5.51567e-06 2.67594L-0.999992 2.67793V2.67794L5.51567e-06 2.67594ZM2.64379 5.32261L2.61677 6.32225L2.61686 6.32225L2.64379 5.32261ZM2.7981 5.32681L2.82542 4.32719L2.7981 5.32681ZM5.21823 5.31395L5.15087 4.31621L5.14746 4.31645L5.21823 5.31395ZM6.46355 6.15476L5.52605 6.50274L5.5265 6.50394L6.46355 6.15476ZM16.6565 33.3931L17.5928 33.042L16.6565 33.3931ZM19.72 41.5641L18.7836 41.9151L18.7848 41.9182L19.72 41.5641ZM19.9495 42.2476L18.9961 42.5491V42.5491L19.9495 42.2476ZM20.0494 42.561L19.9884 43.5591L21.4523 43.6486L21.0009 42.2531L20.0494 42.561ZM14.0193 43.971L14.5997 44.7853L14.5999 44.7852L14.0193 43.971ZM23.9096 58.493V57.493L23.9037 57.493L23.9096 58.493ZM21.2659 61.1339L22.2658 61.1397L22.2658 61.1379L21.2659 61.1339ZM23.9125 58.493V59.493L23.9186 59.493L23.9125 58.493ZM26.5736 61.1195L27.5736 61.1115V61.1114L26.5736 61.1195ZM23.9674 63.8008L23.985 64.8006L23.9854 64.8006L23.9674 63.8008ZM58.4638 61.1888L59.4637 61.2029L59.4637 61.2007L58.4638 61.1888ZM55.872 58.4959L55.8959 57.4962L55.8954 57.4962L55.872 58.4959ZM55.7882 63.8037L55.7762 64.8036L55.7781 64.8036L55.7882 63.8037ZM53.156 61.1483L52.156 61.1464V61.1483H53.156ZM16.9007 57.3465C14.7224 56.2794 13.2821 55.0692 12.4595 53.7621C11.6523 52.4795 11.3888 51.0242 11.7054 49.3327L9.73957 48.9648C9.3396 51.1017 9.66556 53.0775 10.7668 54.8274C11.8526 56.5527 13.6398 57.9761 16.0209 59.1426L16.9007 57.3465ZM16.902 59.142L16.9078 59.1391L16.0138 57.35L16.0081 57.3529L16.902 59.142ZM19.5073 66.6806C18.3201 65.7224 17.5682 64.5725 17.219 63.2482C16.8671 61.9136 16.9079 60.3373 17.4179 58.5172L15.4921 57.9776C14.9099 60.0553 14.8222 62.0026 15.2851 63.7582C15.7507 65.5241 16.757 67.0309 18.2512 68.2369L19.5073 66.6806ZM27.1746 67.3976C24.7849 68.7877 21.7137 68.4641 19.5079 66.6811L18.2506 68.2365C21.0492 70.4986 25.0165 70.9667 28.1802 69.1264L27.1746 67.3976ZM30.5117 58.7322C30.9949 60.6935 30.9676 62.3707 30.4493 63.7744C29.936 65.1644 28.9028 66.3918 27.1744 67.3977L28.1804 69.1263C30.24 67.9276 31.6251 66.3638 32.3255 64.4672C33.0207 62.5842 33.002 60.4792 32.4537 58.2538L30.5117 58.7322ZM32.4333 57.493H31.4827V59.493H32.4333V57.493ZM35.4993 57.4938C34.0194 57.4933 32.9153 57.493 32.4333 57.493V59.493C32.9149 59.493 34.0186 59.4933 35.4987 59.4938L35.4993 57.4938ZM48.2908 57.4961C43.9777 57.4964 38.8022 57.4948 35.4993 57.4938L35.4987 59.4938C38.8015 59.4948 43.9774 59.4964 48.291 59.4961L48.2908 57.4961ZM48.8366 61.1374C48.8371 60.3288 48.9772 59.5525 49.2334 58.8304L47.3484 58.1617C47.0177 59.0941 46.8373 60.0958 46.8366 61.1361L48.8366 61.1374ZM55.8001 68.1201C51.9498 68.1075 48.8341 64.9827 48.8366 61.1374L46.8366 61.1361C46.8334 66.0861 50.8429 70.1039 55.7936 70.1201L55.8001 68.1201ZM55.794 70.1201H55.7969V68.1201H55.794V70.1201ZM62.7774 61.2377C62.7547 65.0133 59.6017 68.1302 55.7966 68.1201L55.7913 70.1201C60.6891 70.1331 64.748 66.1364 64.7773 61.2497L62.7774 61.2377ZM55.8132 54.1765C59.6867 54.1917 62.8027 57.344 62.7774 61.2372L64.7773 61.2502C64.8098 56.2557 60.8063 52.196 55.821 52.1765L55.8132 54.1765ZM55.5216 54.1815C55.6183 54.1778 55.7155 54.1761 55.8131 54.1765L55.821 52.1765C55.6954 52.176 55.5702 52.1782 55.4457 52.1829L55.5216 54.1815ZM26.1546 54.1787C35.6758 54.1775 50.1657 54.1757 55.4824 54.1822L55.4849 52.1822C50.1664 52.1757 35.6746 52.1775 26.1543 52.1787L26.1546 54.1787ZM19.252 54.1794C20.8305 54.1794 23.2634 54.1791 26.1546 54.1787L26.1543 52.1787C23.2631 52.1791 20.8304 52.1794 19.252 52.1794V54.1794ZM19.0431 54.181C19.1176 54.1802 19.1854 54.1794 19.252 54.1794V52.1794C19.1724 52.1794 19.0934 52.1803 19.0208 52.1811L19.0431 54.181ZM18.3492 54.1681C18.6001 54.1865 18.8473 54.1832 19.0431 54.181L19.0208 52.1811C18.8102 52.1835 18.6483 52.1847 18.4962 52.1735L18.3492 54.1681ZM14.9513 50.7508C15.0636 52.5594 16.5302 54.0294 18.3467 54.1679L18.4987 52.1737C17.6627 52.1099 16.997 51.4244 16.9475 50.6268L14.9513 50.7508ZM18.0063 46.9133C16.1444 47.2136 14.8403 48.8951 14.9512 50.7485L16.9476 50.6291C16.8967 49.778 17.4995 49.0209 18.3248 48.8878L18.0063 46.9133ZM19.0331 46.8613C18.7623 46.8582 18.3847 46.8513 18.0038 46.9137L18.3273 48.8874C18.5066 48.858 18.7074 48.8577 19.0101 48.8612L19.0331 46.8613ZM19.2433 46.863C19.1764 46.863 19.1083 46.8622 19.0331 46.8613L19.0101 48.8612C19.0832 48.862 19.1629 48.863 19.2433 48.863V46.863ZM60.6857 46.863H19.2433V48.863H60.6857V46.863ZM62.7967 45.2455C62.686 45.9096 62.4564 46.2675 62.1925 46.4763C61.9172 46.6942 61.4618 46.863 60.6857 46.863V48.863C61.7299 48.863 62.6845 48.6374 63.4335 48.0447C64.1938 47.4431 64.6028 46.5744 64.7695 45.5743L62.7967 45.2455ZM67.9715 14.1447C66.2495 24.5117 64.5245 34.8786 62.7967 45.2455L64.7695 45.5743C66.4974 35.207 68.2224 24.8397 69.9445 14.4725L67.9715 14.1447ZM65.8143 11.6477C66.9401 11.6477 67.4726 11.9226 67.7204 12.2105C67.9648 12.4946 68.1534 13.0496 67.9715 14.1448L69.9445 14.4724C70.17 13.1145 70.0393 11.8391 69.2363 10.906C68.4367 9.97677 67.1937 9.64775 65.8143 9.64775V11.6477ZM24.5395 11.6477H65.8143V9.64775H24.5395V11.6477ZM24.3245 11.6464C24.3921 11.647 24.4653 11.6477 24.5395 11.6477V9.64775C24.4763 9.64775 24.4125 9.64715 24.3434 9.6465L24.3245 11.6464ZM23.8492 11.6518C23.9904 11.6436 24.1372 11.6446 24.3245 11.6464L24.3434 9.6465C24.1674 9.64483 23.953 9.64242 23.7331 9.65521L23.8492 11.6518ZM22.2683 13.1618C22.3337 12.36 22.9936 11.7035 23.8514 11.6517L23.7309 9.65534C21.9074 9.76538 20.4234 11.1776 20.2749 12.9994L22.2683 13.1618ZM23.6184 14.929C22.7893 14.775 22.2001 13.9934 22.2683 13.1624L20.275 12.9988C20.1236 14.8434 21.4067 16.5524 23.2532 16.8954L23.6184 14.929ZM24.3179 14.9624C24.0008 14.965 23.7991 14.9634 23.6225 14.9298L23.249 16.8946C23.6521 16.9712 24.0538 16.9646 24.3344 16.9623L24.3179 14.9624ZM24.5106 14.9613C24.4445 14.9613 24.3788 14.9619 24.3179 14.9624L24.3344 16.9623C24.3967 16.9618 24.4541 16.9613 24.5106 16.9613V14.9613ZM62.298 14.9613H24.5106V16.9613H62.298V14.9613ZM63.3035 14.9613H62.298V16.9613H63.3035V14.9613ZM60.743 37.413C61.923 30.333 63.1009 23.2663 64.2899 16.1256L62.317 15.7971C61.1281 22.9376 59.9503 30.0041 58.7702 37.0841L60.743 37.413ZM59.8604 42.708C60.1549 40.9413 60.449 39.1767 60.743 37.413L58.7702 37.0841C58.4762 38.8479 58.1821 40.6125 57.8876 42.3792L59.8604 42.708ZM57.9928 43.5436H58.874V41.5436H57.9928V43.5436ZM52.1079 43.543C54.0694 43.5433 56.031 43.5436 57.9928 43.5436V41.5436C56.0312 41.5436 54.0697 41.5433 52.1082 41.543L52.1079 43.543ZM26.6024 43.5638C35.1044 43.5404 43.6047 43.5417 52.1079 43.543L52.1082 41.543C43.6055 41.5417 35.1023 41.5404 26.5969 41.5639L26.6024 43.5638ZM24.4974 42.0731C24.6268 42.4226 24.8273 42.8555 25.2372 43.1667C25.6631 43.49 26.1539 43.5638 26.5996 43.5638V41.5638C26.48 41.5638 26.4231 41.5531 26.4043 41.5483C26.3929 41.5454 26.4154 41.5501 26.4466 41.5738C26.4759 41.5961 26.4806 41.6107 26.4657 41.5865C26.4476 41.557 26.4166 41.4964 26.373 41.3788L24.4974 42.0731ZM18.1214 25.0159C20.253 30.7015 22.3843 36.3862 24.4978 42.0742L26.3726 41.3776C24.2579 35.6864 22.1256 29.9989 19.9942 24.3138L18.1214 25.0159ZM16.3363 20.2533C16.9311 21.8408 17.5263 23.4284 18.1214 25.0159L19.9942 24.3138C19.399 22.7263 18.8039 21.1389 18.2092 19.5516L16.3363 20.2533ZM14.8553 16.3028C15.349 17.6196 15.8428 18.9363 16.3363 20.2534L18.2091 19.5515C17.7155 18.2343 17.2217 16.9174 16.728 15.6007L14.8553 16.3028ZM9.67853 2.46746C11.3983 7.0827 13.1267 11.6925 14.8553 16.3028L16.728 15.6007C14.9993 10.9901 13.2716 6.38213 11.5526 1.76912L9.67853 2.46746ZM7.9314 1.0205C8.42658 1.02763 8.74774 1.16768 8.98717 1.36897C9.24453 1.58534 9.47979 1.93464 9.67865 2.46777L11.5525 1.76881C11.2804 1.03929 10.8829 0.349853 10.2742 -0.161907C9.64752 -0.688741 8.86927 -0.966202 7.96021 -0.979295L7.9314 1.0205ZM2.64565 1.02047C4.40494 0.991768 6.16568 0.994615 7.93115 1.02049L7.96046 -0.979291C6.17777 -1.00542 4.39612 -1.00835 2.61303 -0.979266L2.64565 1.02047ZM1 2.67396C0.998201 1.7657 1.69161 1.03701 2.64668 1.02045L2.612 -0.979249C0.567896 -0.943802 -1.00397 0.673686 -0.999992 2.67793L1 2.67396ZM2.67081 4.32298C1.6965 4.29665 1.00177 3.55944 1 2.67394L-0.999992 2.67794C-0.995985 4.68183 0.597675 6.26768 2.61677 6.32225L2.67081 4.32298ZM2.82542 4.32719C2.77401 4.32578 2.72237 4.32437 2.67071 4.32298L2.61686 6.32225C2.66806 6.32363 2.71929 6.32503 2.77077 6.32644L2.82542 4.32719ZM5.14746 4.31645C4.40066 4.36944 3.6408 4.34947 2.82542 4.32719L2.77077 6.32644C3.56943 6.34827 4.42779 6.37254 5.28899 6.31144L5.14746 4.31645ZM7.40105 5.80678C7.25048 5.40113 7.017 4.94885 6.56977 4.64324C6.11092 4.3297 5.59883 4.28598 5.15087 4.31622L5.28558 6.31168C5.5224 6.29569 5.51018 6.34154 5.44139 6.29453C5.41331 6.27535 5.41012 6.26289 5.42665 6.28798C5.44632 6.31782 5.48097 6.38129 5.52605 6.50274L7.40105 5.80678ZM17.5928 33.042C14.1886 23.9639 10.7852 14.8881 7.4006 5.80557L5.5265 6.50394C8.91189 15.5887 12.316 24.6665 15.7202 33.7442L17.5928 33.042ZM20.6564 41.2132C19.6355 38.4892 18.6141 35.7655 17.5928 33.042L15.7202 33.7442C16.7415 36.4677 17.7628 39.1912 18.7836 41.9151L20.6564 41.2132ZM20.903 41.9461C20.8251 41.6999 20.7478 41.4544 20.6552 41.21L18.7848 41.9182C18.8541 42.1012 18.9148 42.2921 18.9961 42.5491L20.903 41.9461ZM21.0009 42.2531C20.9662 42.146 20.9343 42.0451 20.903 41.9461L18.9961 42.5491C19.0272 42.6475 19.061 42.7544 19.098 42.8688L21.0009 42.2531ZM14.5999 44.7852C16.1207 43.7006 17.8814 43.4303 19.9884 43.5591L20.1104 41.5628C17.7736 41.42 15.4833 41.6987 13.4387 43.1568L14.5999 44.7852ZM11.7054 49.3328C12.0657 47.4086 13.0125 45.9165 14.5997 44.7853L13.4389 43.1566C11.4259 44.5912 10.1941 46.5375 9.73958 48.9647L11.7054 49.3328ZM23.9037 57.493C21.9052 57.5049 20.2738 59.1278 20.2659 61.1299L22.2658 61.1379C22.2694 60.2391 23.0074 59.4984 23.9156 59.493L23.9037 57.493ZM23.9125 57.493H23.9096V59.493H23.9125V57.493ZM27.5736 61.1114C27.5576 59.1245 25.8917 57.481 23.9065 57.493L23.9186 59.493C24.7997 59.4877 25.5666 60.2424 25.5737 61.1275L27.5736 61.1114ZM23.9854 64.8006C25.9831 64.7647 27.5895 63.1113 27.5736 61.1115L25.5737 61.1274C25.5809 62.0343 24.8469 62.7848 23.9495 62.801L23.9854 64.8006ZM20.2659 61.1281C20.2539 63.1733 21.9429 64.8365 23.985 64.8006L23.9499 62.8009C23.0274 62.8171 22.2605 62.059 22.2658 61.1397L20.2659 61.1281ZM59.4637 61.2007C59.4875 59.2016 57.8927 57.544 55.8959 57.4962L55.848 59.4956C56.7464 59.5171 57.4747 60.2693 57.4638 61.1769L59.4637 61.2007ZM55.7781 64.8036C57.7664 64.8236 59.4357 63.188 59.4637 61.2029L57.4639 61.1747C57.4514 62.0616 56.682 62.8126 55.7983 62.8037L55.7781 64.8036ZM52.156 61.1483C52.156 63.1469 53.7816 64.7798 55.7762 64.8036L55.8001 62.8037C54.8938 62.7929 54.156 62.0449 54.156 61.1483H52.156ZM55.8954 57.4962C53.8539 57.4483 52.1599 59.1051 52.156 61.1464L54.156 61.1503C54.1578 60.2271 54.9313 59.4741 55.8486 59.4956L55.8954 57.4962Z" fill="white" mask="url(#path-1-inside-1_121_297)"/>
<defs>
<linearGradient id="paint0_linear_121_297" x1="35" y1="-7" x2="35" y2="75" gradientUnits="userSpaceOnUse">
<stop stop-color="#2AA9FF"/>
<stop offset="1" stop-color="#0047BF"/>
</linearGradient>
</defs>
</svg>
