<svg width="73" height="73" viewBox="0 0 73 73" fill="none" xmlns="http://www.w3.org/2000/svg">
<path fill-rule="evenodd" clip-rule="evenodd" d="M41.3886 0.268932C39.3885 0.723099 37.7162 1.7367 36.1642 3.1774V3.18041C36.1014 3.12728 36.0406 3.07578 35.9815 3.02566C35.7292 2.8119 35.5065 2.62325 35.28 2.44051C32.1579 -0.0559021 28.693 -0.702564 24.9845 0.804307C18.0367 3.62556 16.4817 12.7059 22.046 17.8792C25.1505 20.7661 28.2936 23.6098 31.4366 26.4534C32.6814 27.5797 33.9263 28.706 35.1687 29.8349C35.8996 30.4996 36.4018 30.4966 37.1387 29.8289C38.3118 28.7622 39.4856 27.6964 40.6593 26.6307C43.831 23.7507 47.0023 20.8711 50.1592 17.9754C52.9413 15.4219 54.0181 12.2427 53.4647 8.51311C52.6285 2.88566 46.9349 -0.98529 41.3886 0.268932ZM39.944 24.1519C38.685 25.2897 37.4221 26.431 36.1582 27.5821H36.1552C35.2594 26.7683 34.3731 25.9635 33.4926 25.1639C32.2741 24.0574 31.0665 22.9609 29.86 21.8644C29.2266 21.2881 28.5904 20.7152 27.9543 20.1422C26.4822 18.8164 25.0104 17.4908 23.5739 16.1257C21.294 13.9571 20.5 11.2802 21.294 8.23039C22.07 5.26477 24.01 3.35185 26.9816 2.5909C29.3307 1.98935 31.5023 2.50668 33.4392 3.95641C33.8345 4.25129 34.2102 4.57405 34.5863 4.89717C34.7626 5.04864 34.939 5.20019 35.1175 5.34898C35.9417 6.03775 36.3507 6.04377 37.1568 5.37004C37.3447 5.21365 37.5305 5.05516 37.7162 4.89676C37.9733 4.6774 38.2302 4.45823 38.4922 4.24515C41.8488 1.5021 46.3875 1.78182 49.2328 4.90083C52.0721 8.01383 52.03 12.9766 48.9471 15.8911C45.9957 18.6829 42.9812 21.4072 39.944 24.1519ZM51.2864 29.9817L51.2864 29.9617V29.9613C51.2858 28.7534 51.2851 27.5458 51.2871 26.3369C51.2871 26.1906 51.2848 26.0434 51.2825 25.8959V25.8958V25.8958C51.275 25.41 51.2674 24.921 51.3412 24.4481C51.7353 21.9637 54.1294 20.4779 56.5446 21.1757C56.6351 21.2013 56.7255 21.2288 56.8314 21.261C56.912 21.2856 57.0017 21.3129 57.1071 21.3441V18.4086C57.1101 16.1257 58.3462 14.5105 60.4216 14.0774C62.3585 13.6744 64.1391 14.7151 65.0204 16.7693C65.0387 16.814 65.0665 16.8545 65.1049 16.9104C65.1234 16.9373 65.1443 16.9677 65.1678 17.0039C66.2295 16.4295 67.3484 16.1678 68.5635 16.4415C70.6659 16.9167 72.2209 18.6973 72.2299 20.8418C72.26 27.4408 72.248 34.0367 72.2299 40.6357C72.2299 40.9785 72.0885 41.3515 71.9201 41.6583C69.7154 45.7277 67.4957 49.7882 65.27 53.8426C65.0866 54.1764 64.8369 54.4862 64.5692 54.7569L63.8357 55.4944L63.8353 55.4949C61.2585 58.0859 58.6795 60.6791 56.0754 63.2447C55.1701 64.138 54.7309 65.1546 54.767 66.4269C54.7986 67.6027 54.789 68.7785 54.7794 69.9543V69.9544C54.7771 70.2343 54.7748 70.5142 54.7731 70.7941C54.767 71.7987 54.355 72.2228 53.3654 72.2228C48.8779 72.2288 44.3904 72.2288 39.9029 72.2228C38.8983 72.2228 38.4742 71.8077 38.4742 70.8152C38.4682 66.06 38.4652 61.3048 38.4742 56.5525C38.4772 55.0336 39.0276 53.7133 40.0623 52.6004C40.5838 52.0379 41.1075 51.4769 41.6312 50.9159L41.6313 50.9158C42.7628 49.7037 43.8947 48.4911 45.007 47.2617C45.2506 46.991 45.4341 46.5549 45.4371 46.1939C45.4431 45.577 45.4505 44.96 45.4579 44.343L45.4579 44.3422C45.4912 41.563 45.5246 38.7829 45.4311 36.0068C45.3168 32.5328 48.5771 30.65 51.0645 31.7659C51.0881 31.7767 51.1171 31.7745 51.1626 31.771C51.1928 31.7687 51.2302 31.7659 51.2781 31.7659L51.2871 31.7749C51.2871 31.1769 51.2868 30.5793 51.2864 29.9817ZM52.4511 69.8738C52.4511 69.4976 52.4538 69.1296 52.4564 68.767C52.4622 67.9786 52.4677 67.2163 52.4451 66.454C52.3849 64.517 53.0797 62.9289 54.4572 61.5754C56.829 59.2424 59.1741 56.8829 61.5193 54.5233L61.5198 54.5228C61.9107 54.1296 62.3015 53.7364 62.6924 53.3433C62.9781 53.0546 63.2368 52.7207 63.4323 52.3658C65.5076 48.5851 67.5739 44.8014 69.6252 41.0056C69.7997 40.6838 69.9019 40.2807 69.9079 39.9138C69.9298 38.7503 69.9262 37.5852 69.9227 36.4208V36.4201C69.9213 35.9834 69.92 35.5468 69.92 35.1105V21.2118C69.92 20.0538 69.3906 19.2056 68.4612 18.8296C66.9032 18.201 65.273 19.344 65.267 21.1035C65.2626 22.8677 65.263 24.6319 65.2634 26.3961C65.2641 29.4833 65.2648 32.5706 65.24 35.6579C65.2369 36.1692 65.0414 36.7707 64.7286 37.1707C61.546 41.27 58.3385 45.3501 55.1306 49.4309L55.1302 49.4314L55.1253 49.4377C54.3029 50.4837 53.4806 51.5299 52.6586 52.5763C52.5563 52.7042 52.4449 52.8261 52.3234 52.959C52.2735 53.0137 52.2218 53.0702 52.1684 53.1298C51.6545 52.7181 51.1716 52.3293 50.6872 51.9392L50.3878 51.6981C51.0442 50.8619 51.6919 50.0272 52.3367 49.1963L52.3369 49.1961C53.979 47.08 55.6021 44.9885 57.2995 42.9606C58.1718 41.9199 58.3703 40.8642 58.271 39.6311C58.1898 38.6235 57.1251 38.1062 56.292 38.6836C56.1322 38.7942 55.9965 38.943 55.862 39.0905C55.8319 39.1236 55.8019 39.1565 55.7716 39.1889C54.7057 40.3308 53.6401 41.4729 52.5745 42.6149L52.5725 42.6169C49.0385 46.4045 45.5046 50.1918 41.9601 53.9719C41.1691 54.8141 40.7901 55.7645 40.7962 56.9255C40.8116 59.9141 40.8092 62.9028 40.8069 65.8914C40.806 66.9782 40.8052 68.0651 40.8052 69.1519C40.8052 69.3094 40.8147 69.467 40.8245 69.6309L40.8246 69.631C40.8294 69.7111 40.8343 69.7928 40.8383 69.8768H52.4481L52.4511 69.8738ZM60.602 38.6866C60.7705 38.473 60.9411 38.2578 61.1128 38.0411L61.113 38.0409C61.6615 37.3487 62.2218 36.6417 62.7646 35.9225C62.8819 35.7661 62.924 35.5225 62.924 35.318C62.933 29.6184 62.936 23.9187 62.924 18.2161C62.924 17.1212 62.1991 16.3573 61.2126 16.3392C60.199 16.3212 59.4411 17.1032 59.438 18.2281C59.429 24.3398 59.432 30.4545 59.438 36.5662C59.438 36.7707 59.4771 37.0053 59.5794 37.1768C59.796 37.5322 60.0332 37.8744 60.2776 38.227L60.2777 38.227C60.3828 38.3787 60.4893 38.5323 60.596 38.6897L60.602 38.6866ZM57.104 36.1301C57.104 35.0783 57.1052 34.0332 57.1064 32.9931V32.9922C57.1094 30.3058 57.1124 27.6522 57.095 24.9985C57.089 24.1142 56.3972 23.4315 55.5521 23.3352C54.4723 23.2119 53.6211 24.048 53.6181 25.2722C53.6121 29.3429 53.6151 33.4137 53.6181 37.4844V37.4896C53.6181 37.5721 53.6237 37.6545 53.6321 37.7793L53.6321 37.7794C53.6376 37.8593 53.6441 37.9565 53.6512 38.0821C54.5986 36.9091 55.5912 36.094 57.104 36.1301ZM48.6507 43.4076C48.3736 43.7024 48.0889 44.0053 47.7951 44.3199V42.338C47.7951 41.6126 47.7945 40.8868 47.7938 40.1609V40.1602C47.7925 38.7071 47.7911 37.2532 47.7951 35.7992C47.7981 34.6052 48.505 33.8111 49.5396 33.8111C50.5743 33.8111 51.2781 34.6052 51.2841 35.7992C51.2851 36.0436 51.2865 36.2879 51.288 36.5322C51.2947 37.6925 51.3014 38.8528 51.2691 40.0131C51.26 40.3349 51.1187 40.7199 50.9051 40.9605C50.1926 41.7669 49.4535 42.5533 48.6509 43.4073L48.6507 43.4076ZM7.25791 16.7431C7.22011 16.8276 7.18224 16.9123 7.14326 16.9966C3.62192 15.0381 -0.105951 17.7147 0.00230264 21.6238C0.11748 25.7205 0.0976131 29.8199 0.0777424 33.9201C0.0675167 36.0302 0.0572898 38.1404 0.0654652 40.2507C0.0684729 40.756 0.203821 41.3154 0.441431 41.7606C2.59496 45.7729 4.78158 49.7701 6.97421 53.7614C7.18175 54.1373 7.45846 54.4893 7.76224 54.793C10.5654 57.6143 13.3716 60.4355 16.2019 63.2297C17.1042 64.12 17.5614 65.1336 17.5253 66.4059C17.4981 67.3848 17.5044 68.3651 17.5108 69.3459C17.5135 69.7725 17.5163 70.1991 17.5163 70.6257C17.5193 71.8619 17.8802 72.2258 19.1194 72.2258H32.2181C33.4542 72.2258 33.8182 71.8589 33.8182 70.6227C33.8182 69.3128 33.8159 68.0029 33.8136 66.6931C33.808 63.4913 33.8025 60.2896 33.8302 57.0879C33.8452 55.2111 33.2527 53.6381 31.9564 52.2876C30.3803 50.6424 28.8254 48.9731 27.3004 47.2797C27.0448 46.994 26.8553 46.5308 26.8523 46.1488C26.8326 44.0611 26.8331 41.9724 26.8336 39.8839C26.834 38.4549 26.8343 37.0261 26.8282 35.5977C26.8192 33.5074 25.4236 31.82 23.3844 31.5403C22.8684 31.4686 22.3329 31.5322 21.7855 31.5971H21.7855C21.5288 31.6276 21.2695 31.6584 21.0083 31.6756C21.0083 31.0302 21.0099 30.3788 21.0115 29.7234V29.7229C21.0153 28.1796 21.0191 26.6139 21.0023 25.0496C20.9812 22.9893 19.5255 21.287 17.4952 21.0463C16.9884 20.9866 16.4661 21.0553 15.9301 21.1257C15.6837 21.1581 15.4343 21.1909 15.1823 21.2118C15.1823 20.8845 15.1849 20.5526 15.1874 20.2176C15.1933 19.4629 15.1992 18.6921 15.1763 17.9213C15.1191 16.0294 13.7807 14.4865 11.8918 14.0834C10.1293 13.7075 8.29461 14.6188 7.4735 16.2791C7.39751 16.4311 7.32782 16.5868 7.25791 16.7431ZM20.112 53.1358C20.0546 53.0676 19.9999 53.0033 19.9475 52.9416L19.9474 52.9414C19.8102 52.78 19.6881 52.6362 19.5706 52.4861C18.7398 51.4288 17.9092 50.3712 17.0785 49.3135L17.0766 49.3111C13.9382 45.3151 10.7993 41.3185 7.65095 37.3332C7.22085 36.7888 7.01933 36.2444 7.02234 35.5436C7.0464 30.7884 7.04941 26.0331 7.01632 21.2809C7.01331 20.7516 6.86594 20.1621 6.60727 19.7049C6.09897 18.8146 5.02521 18.4717 4.07777 18.7575C3.01605 19.0763 2.38142 19.9305 2.38142 21.1065C2.3754 27.4137 2.3754 33.7209 2.39044 40.0281C2.39044 40.3469 2.50473 40.6958 2.65813 40.9785C4.72143 44.7923 6.79977 48.6001 8.88713 52.4019C9.0706 52.7357 9.31423 53.0516 9.58191 53.3192C12.3701 56.1224 15.1643 58.9226 17.9675 61.7108C19.2397 62.9771 19.8774 64.4809 19.8503 66.2795C19.8353 67.1289 19.8411 67.9761 19.8469 68.8247C19.8481 68.9949 19.8493 69.1651 19.8503 69.3354C19.8503 69.4581 19.8664 69.5807 19.8816 69.6962C19.8891 69.7534 19.8964 69.8089 19.9014 69.8617H31.4932V69.0376C31.4932 67.9006 31.4912 66.7635 31.4893 65.6265V65.6263C31.4844 62.7844 31.4795 59.9429 31.5052 57.103C31.5173 55.8066 31.0992 54.769 30.2119 53.8336C27.9909 51.4852 25.7886 49.1194 23.5861 46.7533L23.586 46.7531C22.615 45.7101 21.6441 44.667 20.6714 43.6253C20.2598 43.1845 19.8487 42.7432 19.4376 42.3019C18.4097 41.1985 17.3818 40.0952 16.3463 38.9995C15.6635 38.2776 14.689 38.2866 14.2228 38.9904C13.8529 39.5499 13.9551 41.5681 14.3822 42.1125L21.3481 50.9822C21.4693 51.1386 21.5879 51.2962 21.7106 51.4592C21.7768 51.5471 21.8441 51.6365 21.9136 51.7282C21.279 52.2244 20.7105 52.6696 20.112 53.1388V53.1358ZM11.6963 38.6987C11.8008 38.541 11.9048 38.3881 12.007 38.2377C12.2404 37.8944 12.465 37.5639 12.6678 37.2189C12.7821 37.0264 12.8453 36.7767 12.8453 36.5512C12.8543 30.4635 12.8543 24.3759 12.8513 18.2852C12.8513 17.1333 12.1475 16.3543 11.1369 16.3362C10.0992 16.3182 9.36536 17.1152 9.36536 18.3003C9.35934 23.9518 9.36235 29.6033 9.36536 35.2548C9.36536 35.4624 9.38039 35.718 9.49469 35.8684C10.0452 36.6017 10.6131 37.3228 11.1693 38.0291L11.1694 38.0293C11.3455 38.2529 11.5205 38.4751 11.6933 38.6957L11.6963 38.6987ZM18.6743 38.1152C17.6974 36.9158 16.6964 36.077 15.2271 36.133C15.2216 36.0694 15.2153 36.0135 15.2095 35.9623C15.1996 35.8744 15.1913 35.8008 15.1913 35.7271C15.1906 34.9168 15.1895 34.1064 15.1883 33.2959V33.2953C15.1844 30.5919 15.1804 27.8875 15.1943 25.185C15.2003 23.8104 16.4486 22.9502 17.6246 23.4796C18.2773 23.7743 18.6683 24.3007 18.6683 25.0135C18.6772 28.217 18.6762 31.4205 18.675 34.7257C18.6747 35.8426 18.6743 36.9711 18.6743 38.1152ZM24.416 44.2269C24.4331 44.1653 24.4485 44.1179 24.461 44.0794C24.4815 44.0165 24.4942 43.9773 24.4942 43.9381C24.4942 43.0678 24.4957 42.1975 24.4972 41.3272C24.5004 39.4124 24.5036 37.4975 24.4912 35.5827C24.4852 34.554 23.7212 33.8081 22.7618 33.8051C21.7782 33.7991 21.0233 34.5661 21.0113 35.6368C20.9932 37.1365 21.0022 38.6362 21.0113 40.1389V40.1391L21.0113 40.1424C21.0113 40.3259 21.0233 40.5635 21.1316 40.6808C21.9772 41.6148 22.8381 42.5356 23.7231 43.4823L23.7237 43.4829C23.9528 43.7279 24.1835 43.9747 24.416 44.2239V44.2269Z" fill="url(#paint0_linear_121_299)"/>
<defs>
<linearGradient id="paint0_linear_121_299" x1="36.1241" y1="-13.5" x2="36.1241" y2="87.5" gradientUnits="userSpaceOnUse">
<stop stop-color="#2AA9FF"/>
<stop offset="1" stop-color="#0047BF"/>
</linearGradient>
</defs>
</svg>
