<svg width="18" height="18" viewBox="0 0 18 18" fill="none" xmlns="http://www.w3.org/2000/svg">
<path d="M8.86757 6.30961C9.98262 6.361 10.2701 7.29457 10.2875 7.73137H11.8469C11.7772 6.03554 10.5489 4.9992 8.84143 4.9992C6.91622 4.9992 5.48756 6.1897 5.48756 8.87906C5.48756 10.5406 6.29771 12.5105 8.83272 12.5105C10.7666 12.5105 11.8033 11.0973 11.8294 9.98392H10.2701C10.244 10.4892 9.87808 11.1659 8.85014 11.2172C7.70895 11.183 7.22983 10.3094 7.22983 8.87906C7.22983 6.40382 8.34488 6.32674 8.86757 6.30961ZM8.9721 0.194336C4.16343 0.194336 0.260742 4.03137 0.260742 8.75915C0.260742 13.4869 4.16343 17.324 8.9721 17.324C13.7808 17.324 17.6835 13.4869 17.6835 8.75915C17.6835 4.03137 13.7808 0.194336 8.9721 0.194336ZM8.9721 15.611C5.13039 15.611 2.00301 12.5362 2.00301 8.75915C2.00301 4.98207 5.13039 1.9073 8.9721 1.9073C12.8138 1.9073 15.9412 4.98207 15.9412 8.75915C15.9412 12.5362 12.8138 15.611 8.9721 15.611Z" fill="#CCCCCC"/>
</svg>
