<svg width="146" height="52" viewBox="0 0 146 52" fill="none" xmlns="http://www.w3.org/2000/svg">
<rect width="146" height="52" rx="5.18216" fill="#1E1E1E"/>
<path d="M48.3913 29.2315C48.3913 24.6422 41.7125 26.0974 41.7125 23.4856C41.7125 22.4222 42.4774 21.9185 43.5035 21.9558C44.6228 21.9744 45.3131 22.646 45.369 23.5042H48.242C48.0741 21.1536 46.2459 19.7917 43.5781 19.7917C40.8916 19.7917 38.9888 21.2095 38.9888 23.5602C38.9701 28.2801 45.6862 26.5824 45.6862 29.3994C45.6862 30.3322 44.9586 30.9852 43.7273 30.9852C42.5147 30.9852 41.8244 30.2949 41.7498 29.2502H38.9514C38.9888 31.7128 41.0782 33.1306 43.7833 33.1306C46.7496 33.1306 48.3913 31.2837 48.3913 29.2315ZM60.4126 22.6647H57.7821V28.3547C57.7821 30.0151 56.8866 30.9106 55.4688 30.9106C54.0883 30.9106 53.1741 30.0151 53.1741 28.3547V22.6647H50.5623V28.7278C50.5623 31.5635 52.2973 33.1306 54.7039 33.1306C55.9912 33.1306 57.1292 32.5709 57.7821 31.6941V33H60.4126V22.6647ZM65.6014 24.1758V19.1947H62.9896V33H65.6014V31.5262C66.2357 32.4217 67.3923 33.1679 69.0154 33.1679C71.6645 33.1679 73.7353 31.0225 73.7353 27.795C73.7353 24.5676 71.6645 22.4968 69.0154 22.4968C67.4483 22.4968 66.2357 23.2244 65.6014 24.1758ZM71.0675 27.795C71.0675 29.7539 69.743 30.8732 68.3251 30.8732C66.9259 30.8732 65.6014 29.7912 65.6014 27.8323C65.6014 25.8735 66.9259 24.7915 68.3251 24.7915C69.743 24.7915 71.0675 25.8362 71.0675 27.795ZM90.0915 33H92.7033V26.9369C92.7033 24.0825 90.9496 22.5155 88.4684 22.5155C86.9573 22.5155 85.5954 23.3176 84.9238 24.493C84.2149 23.2057 82.8903 22.5155 81.2859 22.5155C79.9987 22.5155 78.898 23.0565 78.245 23.9146V22.6647H75.6332V33H78.245V27.2913C78.245 25.6496 79.1592 24.7915 80.577 24.7915C81.9575 24.7915 82.8717 25.6496 82.8717 27.2913V33H85.4835V27.2913C85.4835 25.6496 86.3976 24.7915 87.7968 24.7915C89.1773 24.7915 90.0915 25.6496 90.0915 27.2913V33ZM95.1817 33H97.7935V22.6647H95.1817V33ZM96.5063 21.4334C97.4204 21.4334 98.1107 20.7618 98.1107 19.9036C98.1107 19.0455 97.4204 18.3739 96.5063 18.3739C95.5735 18.3739 94.9019 19.0455 94.9019 19.9036C94.9019 20.7618 95.5735 21.4334 96.5063 21.4334ZM100.784 29.7912C100.784 32.1605 102.109 33 104.086 33H105.728V30.7986H104.516C103.695 30.7986 103.415 30.5001 103.415 29.8099V24.8101H105.728V22.6647H103.415V20.1089H100.784V22.6647H99.5531V24.8101H100.784V29.7912Z" fill="#F2F2F2"/>
</svg>
