<svg width="14" height="13" viewBox="0 0 14 13" fill="none" xmlns="http://www.w3.org/2000/svg">
<path fill-rule="evenodd" clip-rule="evenodd" d="M-2.84124e-07 6.5C-2.94887e-07 6.25377 0.0921768 6.01763 0.256253 5.84352C0.420329 5.66941 0.642863 5.5716 0.874902 5.5716L11.0115 5.5716L7.25469 1.58689C7.09041 1.41256 6.99811 1.17612 6.99811 0.929577C6.99811 0.683037 7.09041 0.446596 7.25469 0.272266C7.41897 0.0979373 7.64179 6.19641e-07 7.87412 6.09486e-07C8.10645 5.9933e-07 8.32927 0.0979372 8.49355 0.272266L13.743 5.84269C13.8244 5.92893 13.8891 6.03138 13.9332 6.14417C13.9773 6.25697 14 6.37788 14 6.5C14 6.62212 13.9773 6.74303 13.9332 6.85583C13.8891 6.96862 13.8244 7.07107 13.743 7.15731L8.49355 12.7277C8.32927 12.9021 8.10645 13 7.87412 13C7.64179 13 7.41897 12.9021 7.25469 12.7277C7.09041 12.5534 6.99811 12.317 6.99811 12.0704C6.99811 11.8239 7.09041 11.5874 7.25469 11.4131L11.0115 7.4284L0.874902 7.4284C0.642864 7.4284 0.420329 7.33059 0.256253 7.15648C0.0921769 6.98237 -2.73361e-07 6.74623 -2.84124e-07 6.5Z" fill="black"/>
</svg>
